<svg width="89" height="55" viewBox="0 0 89 55" fill="none" xmlns="http://www.w3.org/2000/svg">
<path d="M7.31314 5.40379C8.13314 18.1771 8.62647 30.9605 8.79314 43.7538C8.79314 46.2638 18.7931 46.2438 18.7931 43.7538C18.6331 30.9538 18.1398 18.1705 17.3131 5.40379C17.1431 2.78379 7.16314 3.02379 7.31314 5.40379Z" fill="white"/>
<path d="M12.8532 7.99378L14.2932 43.9938C14.4032 46.5638 24.3932 46.4338 24.2932 43.9938L22.8532 7.99378C22.7532 5.42378 12.7632 5.56378 12.8532 7.99378Z" fill="white"/>
<path d="M18.5931 7.72375C18.3931 20.6438 18.5998 33.5604 19.2131 46.4738C19.3331 49.0638 29.3231 48.8938 29.2131 46.4738C28.6065 33.5604 28.3998 20.6438 28.5931 7.72375C28.5931 5.26375 18.5931 5.16375 18.5931 7.72375Z" fill="white"/>
<path d="M25.0332 9.63379C24.8398 22.6871 24.8698 35.7405 25.1232 48.7938C25.1732 51.3238 35.1732 51.2838 35.1232 48.7938C34.8765 35.7405 34.8465 22.6871 35.0332 9.63379C35.0332 7.17379 25.0332 7.07379 25.0332 9.63379Z" fill="white"/>
<path d="M30.0532 10.8638C29.9198 23.7038 30.2632 36.5272 31.0832 49.3338C31.2432 51.9438 41.2332 51.7138 41.0832 49.3338C40.2632 36.5205 39.9198 23.6972 40.0532 10.8638C40.0532 8.39382 30.0532 8.31382 30.0532 10.8638Z" fill="white"/>
<path d="M36.0432 12.7737C35.9165 25.1471 36.2565 37.5204 37.0632 49.8937C37.2332 52.5137 47.2232 52.2637 47.0632 49.8937C46.2565 37.5204 45.9165 25.1471 46.0432 12.7737C46.0432 10.3037 36.0432 10.2237 36.0432 12.7737Z" fill="white"/>
<path d="M54.2932 14.1338C54.6132 25.3671 55.4665 36.5605 56.8532 47.7138C57.1732 50.4238 67.1232 49.9538 66.8532 47.7138C65.5198 36.5605 64.6832 25.3671 64.3432 14.1338C64.2732 11.5838 54.2732 11.6738 54.3432 14.1338H54.2932Z" fill="white"/>
<path d="M60.5632 11.4937C60.3309 21.0312 60.8659 30.572 62.1632 40.0237C62.5332 42.7537 72.4632 42.2137 72.1632 40.0237C70.8659 30.572 70.3309 21.0312 70.5632 11.4937C70.6232 9.05371 60.6332 8.91371 60.5632 11.4937Z" fill="white"/>
<path d="M70.6132 7.33379C71.2799 18.1871 72.2298 29.0038 73.4632 39.7838C73.7732 42.4838 83.7232 42.0438 83.4632 39.7838C82.2165 28.9771 81.2665 18.1605 80.6132 7.33379C80.4532 4.72379 70.4632 4.94379 70.6132 7.33379Z" fill="white"/>
<path d="M54.0031 18.2438C56.1531 15.9638 61.2531 15.4138 64.2031 14.4438L74.3831 11.1038C76.9631 10.2538 88.5831 8.26375 88.4931 4.89375C88.4331 2.37375 79.0231 2.36375 78.4931 4.89375C77.3644 10.5138 76.5233 16.1879 75.9731 21.8938C75.6731 24.7538 75.4131 27.6238 75.1431 30.4838C74.9431 32.4838 75.2931 36.8538 74.1431 38.4838C72.9931 40.1138 69.0331 40.8338 67.2731 41.4238C64.8731 42.2238 62.4531 42.9238 60.0331 43.6638C55.1865 45.0589 50.4691 46.8689 45.9331 49.0738L55.2531 49.9638C55.495 40.9782 55.2112 31.9862 54.4031 23.0338C54.1731 20.3738 44.2031 20.7138 44.4031 23.0338C45.2113 31.9862 45.4952 40.9782 45.2531 49.9638C45.1831 52.8038 53.2531 51.4938 54.5731 50.8438C59.8531 48.2738 65.4831 46.7338 71.1031 44.9938C74.6131 43.9038 81.5231 42.7938 83.7631 39.4938C84.8531 37.8838 84.6731 35.1638 84.8531 33.3338C85.1531 30.4738 85.4131 27.6138 85.6831 24.7438C86.2635 18.0683 87.2015 11.4287 88.4931 4.85375H78.4931C78.4931 5.85375 61.4931 10.4938 59.9131 11.0138C55.0931 12.6038 47.9131 13.4738 44.3631 17.2738C43.1031 18.6038 52.0031 20.3238 54.0031 18.2038V18.2438Z" fill="white"/>
<path d="M0.103198 5.13382C-0.176963 12.7815 0.113844 20.4394 0.973198 28.0438C1.5732 33.9738 1.2832 39.0438 7.3132 41.6738C13.5132 44.4238 20.5732 45.0038 27.2232 45.8838L50.9432 49.0438C52.0932 49.1938 56.6332 49.3638 57.0932 47.8138C57.6032 46.0838 54.7532 45.8138 53.6032 45.6638L34.6032 43.1438C28.4332 42.3238 21.1432 42.2638 15.4232 39.6138C10.1932 37.1938 11.0332 29.2438 10.5932 24.2238C9.98345 17.8798 9.81304 11.5013 10.0832 5.13382C10.1932 2.75382 0.213198 2.50382 0.0831983 5.13382H0.103198Z" fill="white"/>
<path d="M19.41 47.5099C27.41 49.4033 35.45 51.0366 43.53 52.4099C45.83 52.7999 48.12 53.1699 50.43 53.5199C51.07 53.6199 50.9 52.7899 50.43 52.7099C42.31 51.4766 34.24 49.9899 26.22 48.2499C23.94 47.7499 21.67 47.2499 19.41 46.6999C18.77 46.5499 18.94 47.3999 19.41 47.5099Z" fill="black"/>
<path d="M1.12 34.79C1.38343 36.2681 1.30475 37.787 0.890005 39.23C0.720005 40.12 0.440005 41.31 1.17 42.04C1.54545 42.3591 2.01756 42.5423 2.51 42.56C2.96277 42.6908 3.4042 42.858 3.83 43.06L5.2 43.56C6.94 44.17 8.71 44.73 10.48 45.23C12.58 45.82 14.69 46.35 16.8 46.89C17.44 47.05 17.27 46.2 16.8 46.08C12.4073 45.0511 8.07695 43.7724 3.83 42.25C3.372 42.0265 2.893 41.849 2.4 41.72C2.15 41.72 1.88 41.72 1.71 41.52C1.41 41.12 1.71 40.21 1.71 39.79C2.16347 38.1623 2.24549 36.4536 1.95 34.79C1.83 34.33 0.950005 34.19 1.07 34.79H1.12Z" fill="black"/>
<path d="M49 43.14L49.55 53.67C49.55 54.13 50.55 54.46 50.47 53.89L49.91 43.35C49.91 42.89 48.97 42.57 49 43.14Z" fill="black"/>
<path d="M1.12001 34.14C1.05511 34.3741 1.03475 34.6183 1.06001 34.86C1.09197 35.1343 1.16972 35.4014 1.29001 35.65C1.3547 35.7631 1.45238 35.8538 1.57001 35.91C1.68331 35.9496 1.80671 35.9496 1.92001 35.91C1.96858 35.8984 2.01299 35.8736 2.0483 35.8383C2.08361 35.803 2.10843 35.7585 2.12001 35.71C2.14406 35.6041 2.12613 35.493 2.07001 35.4L2.12001 35.51C2.06656 35.3776 2.02637 35.2403 2.00001 35.1V35.2C1.97981 35.0339 1.97981 34.866 2.00001 34.7V34.8C1.9953 34.7167 1.9953 34.6332 2.00001 34.55C2.02341 34.4259 2.00337 34.2975 1.94328 34.1864C1.88319 34.0753 1.78669 33.9883 1.67001 33.94C1.48001 33.86 1.18001 33.85 1.12001 34.1V34.14Z" fill="black"/>
<path d="M1.80003 34.94L1.58003 34.79L1.53003 34.71L1.46003 34.5C1.44544 34.4613 1.44544 34.4187 1.46003 34.38C1.55095 34.3436 1.65208 34.3418 1.74424 34.375C1.83639 34.4082 1.91318 34.474 1.96003 34.56C1.96003 34.62 1.96003 34.63 1.96003 34.56C1.96003 34.49 1.96003 34.63 1.96003 34.56C1.96003 34.49 1.96003 34.49 1.96003 34.45C1.96003 34.23 1.96003 34.02 1.96003 33.8C1.96003 33.38 1.96003 32.96 1.96003 32.53C1.96003 32.1 1.06003 31.74 1.05003 32.32C1.03099 32.9871 1.04768 33.6547 1.10003 34.32C1.10788 34.498 1.16312 34.6706 1.26003 34.82C1.33403 34.9206 1.43031 35.0028 1.54134 35.06C1.65236 35.1173 1.77513 35.1481 1.90003 35.15C1.99575 35.1533 2.09003 35.126 2.16917 35.0721C2.2483 35.0181 2.30816 34.9403 2.34003 34.85C2.37061 34.7148 2.35345 34.5732 2.29147 34.4493C2.22949 34.3253 2.12651 34.2267 2.00003 34.17C1.83003 34.08 1.51003 34.1 1.45003 34.33C1.42589 34.4567 1.44791 34.5879 1.51211 34.6998C1.57631 34.8117 1.67844 34.8969 1.80003 34.94Z" fill="black"/>
<path d="M41.38 41.5699L50.21 43.5699C50.85 43.7199 50.68 42.8699 50.21 42.7599L41.38 40.7599C40.74 40.6099 40.91 41.4499 41.38 41.5699Z" fill="black"/>
<path d="M13.53 35.15L36 40.31C36.63 40.46 36.46 39.62 36 39.5L13.5 34.34C12.87 34.19 13.04 35.04 13.5 35.15H13.53Z" fill="black"/>
<path d="M2 32.4899L8.79 34.0599C8.8389 34.0773 8.89119 34.0828 8.94263 34.0761C8.99408 34.0695 9.04322 34.0508 9.08608 34.0215C9.12894 33.9923 9.16431 33.9534 9.18932 33.908C9.21432 33.8625 9.22826 33.8118 9.23 33.7599C9.21754 33.6344 9.16518 33.5162 9.08059 33.4226C8.996 33.329 8.88364 33.265 8.76 33.2399L2 31.6799C1.9511 31.6626 1.89881 31.6571 1.84736 31.6638C1.79592 31.6704 1.74677 31.6891 1.70391 31.7184C1.66105 31.7476 1.62568 31.7865 1.60068 31.8319C1.57567 31.8774 1.56174 31.9281 1.56 31.9799C1.56 32.2199 1.81 32.4399 2.03 32.4899H2Z" fill="black"/>
<path d="M52.5 53.27C61.06 49.9767 69.7033 46.9134 78.43 44.08C80.9433 43.2734 83.4667 42.4767 86 41.69C86.54 41.53 86 40.75 85.52 40.88C76.72 43.5867 68.0067 46.5234 59.38 49.69C56.92 50.5967 54.46 51.52 52 52.46C51.47 52.67 52 53.46 52.48 53.27H52.5Z" fill="black"/>
<path d="M81.46 34.49C82.95 33.96 84.46 33.41 85.91 32.86C86.44 32.65 85.91 31.86 85.43 32.05C83.95 32.5967 82.47 33.1367 80.99 33.67C80.44 33.87 80.99 34.67 81.46 34.49Z" fill="black"/>
<path d="M61.45 40.73C66.6833 39.3234 71.8667 37.7567 77 36.03C77.54 35.85 77 35.03 76.52 35.22C71.3867 36.94 66.2133 38.5134 61 39.94C60.45 40.09 61 40.87 61.47 40.75L61.45 40.73Z" fill="black"/>
<path d="M51.13 43.3C53.07 42.85 55 42.39 57 41.94C57.55 41.8 57 41.02 56.53 41.13C54.59 41.6233 52.6467 42.0866 50.7 42.52C50.46 42.58 50.45 42.86 50.55 43.04C50.6128 43.1474 50.7064 43.2335 50.8188 43.287C50.9312 43.3405 51.057 43.359 51.18 43.34L51.13 43.3Z" fill="black"/>
<path d="M86.28 39.0499C86.09 36.5399 85.86 34.0499 85.57 31.5399C85.57 31.1099 84.62 30.7499 84.65 31.3299C84.7967 34.7299 85.0467 38.1232 85.4 41.5099C85.4 41.9599 86.4 42.2799 86.32 41.7199C85.9733 38.3266 85.7233 34.9332 85.57 31.5399L84.65 31.3299C84.9367 33.8299 85.1733 36.3332 85.36 38.8399C85.36 39.2899 86.36 39.6199 86.28 39.0499Z" fill="black"/>
<path d="M1.49005 32.83C2.11005 32.83 1.71005 31.99 1.23005 31.99C0.750051 31.99 1.02005 32.83 1.49005 32.83Z" fill="black"/>
<path d="M41.11 37.03C44.21 37.58 47.32 38.03 50.43 38.56C51.07 38.65 50.9 37.82 50.43 37.74C47.3233 37.2733 44.2167 36.7666 41.11 36.22C40.47 36.11 40.64 36.94 41.11 37.03Z" fill="black"/>
<path d="M49 28.17L49.55 38.71C49.55 39.17 50.55 39.49 50.47 38.92L49.91 28.39C49.91 27.93 48.97 27.61 49 28.17Z" fill="black"/>
<path d="M41.38 26.5999L50.21 28.5999C50.85 28.7399 50.68 27.8999 50.21 27.7899L41.38 25.7899C40.74 25.6399 40.91 26.4899 41.38 26.5999Z" fill="black"/>
<path d="M2 17.53L8.1 18.94C8.32 18.94 8.54 18.88 8.54 18.64C8.52754 18.5145 8.47518 18.3962 8.39059 18.3026C8.306 18.209 8.19364 18.145 8.07 18.12L2 16.72C1.78 16.67 1.56 16.72 1.56 17.01C1.57245 17.1355 1.62482 17.2538 1.70941 17.3474C1.794 17.4409 1.90636 17.505 2.03 17.53H2Z" fill="black"/>
<path d="M81.41 28.1599L86 26.7299C86.54 26.5599 86 25.7799 85.52 25.9199L80.95 27.3499C80.4 27.5199 80.95 28.3499 81.42 28.1599H81.41Z" fill="black"/>
<path d="M52.5 38.31L56.94 36.62C57.48 36.42 56.94 35.62 56.46 35.81L52 37.5C51.47 37.7 52 38.5 52.48 38.31H52.5Z" fill="black"/>
<path d="M81 19.69C82.6467 19.11 84.29 18.51 85.93 17.89C86.46 17.69 85.93 16.89 85.45 17.08C83.81 17.7 82.1667 18.3 80.52 18.88C79.98 19.07 80.52 19.88 81 19.69Z" fill="black"/>
<path d="M51.13 28.3299C53.07 27.9399 55 27.4199 57 26.9399C57.55 26.7999 57 26.0099 56.52 26.1299C54.59 26.6099 52.65 27.1299 50.7 27.5199C50.46 27.5699 50.45 27.8499 50.55 28.0299C50.6106 28.1394 50.7039 28.2271 50.8169 28.2809C50.9299 28.3347 51.0568 28.3518 51.18 28.3299H51.13Z" fill="black"/>
<path d="M86.28 24.09C86.09 21.58 85.86 19.09 85.57 16.58C85.57 16.14 84.62 15.78 84.65 16.37C84.7967 19.77 85.0467 23.16 85.4 26.54C85.4 27 86.4 27.32 86.32 26.75C85.9733 23.37 85.7233 19.98 85.57 16.58L84.65 16.37C84.94 18.86 85.18 21.37 85.36 23.87C85.36 24.33 86.36 24.65 86.28 24.09Z" fill="black"/>
<path d="M1.49005 17.8699C2.11005 17.8699 1.71005 17.0299 1.23005 17.0299C0.750051 17.0299 1.02005 17.8699 1.49005 17.8699Z" fill="black"/>
<path d="M41.11 21.34C44.21 21.88 47.31 22.39 50.43 22.86C51.07 22.96 50.9 22.13 50.43 22.05C47.31 21.58 44.21 21.05 41.11 20.53C40.47 20.41 40.63 21.25 41.11 21.34Z" fill="black"/>
<path d="M29.91 18.94C32.11 19.41 34.3 19.94 36.48 20.5C36.5289 20.5173 36.5812 20.5229 36.6326 20.5162C36.6841 20.5095 36.7332 20.4908 36.7761 20.4616C36.8189 20.4324 36.8543 20.3935 36.8793 20.348C36.9043 20.3026 36.9183 20.2519 36.92 20.2C36.9027 20.0773 36.8485 19.9628 36.7645 19.8717C36.6806 19.7806 36.5709 19.7172 36.45 19.69C34.27 19.11 32.08 18.6 29.88 18.13C29.8311 18.1127 29.7788 18.1072 29.7274 18.1138C29.6759 18.1205 29.6268 18.1392 29.5839 18.1684C29.5411 18.1977 29.5057 18.2366 29.4807 18.282C29.4557 18.3275 29.4417 18.3782 29.44 18.43C29.4573 18.5527 29.5115 18.6672 29.5955 18.7583C29.6794 18.8494 29.7891 18.9128 29.91 18.94Z" fill="black"/>
<path d="M12.78 15.16C17.78 16.51 22.87 17.47 27.93 18.51C28.57 18.64 28.4 17.8 27.93 17.7C22.87 16.65 17.78 15.7 12.78 14.35C12.15 14.18 12.32 15.03 12.78 15.16Z" fill="black"/>
<path d="M1.12 3.94C0.792121 5.35894 0.768265 6.8312 1.05 8.26C1.15 8.73 2.05 8.87 1.93 8.26C1.67543 6.96313 1.69929 5.62696 2 4.34C2.01375 4.21955 1.98804 4.09789 1.92673 3.99331C1.86542 3.88872 1.77182 3.80685 1.66 3.76C1.48 3.68 1.16 3.68 1.11 3.92L1.12 3.94Z" fill="black"/>
<path d="M49 12.48L49.55 23.02C49.55 23.48 50.55 23.8 50.47 23.23L49.91 12.69C49.91 12.23 48.97 11.91 49 12.48Z" fill="black"/>
<path d="M1.12001 3.47991C1.05511 3.71404 1.03475 3.95827 1.06001 4.19991C1.09063 4.47452 1.16844 4.74178 1.29001 4.98991C1.3547 5.10307 1.45238 5.19378 1.57001 5.24991C1.68233 5.29497 1.8077 5.29497 1.92001 5.24991C1.96858 5.23833 2.01299 5.2135 2.0483 5.1782C2.08361 5.14289 2.10843 5.09848 2.12001 5.04991C2.14406 4.944 2.12613 4.83289 2.07001 4.73991L2.12001 4.84991C2.06549 4.71792 2.02526 4.58047 2.00001 4.43991V4.54991C1.98006 4.3805 1.98006 4.20933 2.00001 4.03991V4.13991C1.99668 4.07329 1.99668 4.00654 2.00001 3.93991C2.01376 3.81946 1.98805 3.6978 1.92674 3.59321C1.86543 3.48862 1.77183 3.40676 1.66001 3.35991C1.47001 3.28991 1.17001 3.26991 1.11001 3.51991L1.12001 3.47991Z" fill="black"/>
<path d="M1.80004 4.23992L1.58004 4.07992L1.53004 3.99992L1.46004 3.78992C1.44708 3.75097 1.44708 3.70887 1.46004 3.66992C1.46004 3.66992 1.46004 3.61992 1.46004 3.66992C1.55097 3.6335 1.6521 3.63171 1.74426 3.66489C1.83641 3.69806 1.91319 3.7639 1.96004 3.84992C1.96004 3.90992 1.96004 3.91992 1.96004 3.84992C1.96004 3.77992 1.96004 3.76992 1.96004 3.72992C1.96004 3.51992 1.96004 3.29992 1.96004 3.07992C1.96004 2.65992 1.96004 2.23992 1.96004 1.80992C1.96004 1.37992 1.06004 1.02992 1.05004 1.59992C1.03088 2.267 1.04757 2.93463 1.10004 3.59992C1.1079 3.77786 1.16313 3.95047 1.26004 4.09992C1.33407 4.2013 1.43012 4.28457 1.54098 4.34346C1.65183 4.40235 1.7746 4.43533 1.90004 4.43992C1.99481 4.43893 2.08716 4.40992 2.16546 4.35653C2.24376 4.30314 2.30451 4.22777 2.34004 4.13992C2.35795 4.01371 2.3345 3.8851 2.27321 3.77334C2.21192 3.66157 2.11609 3.57266 2.00004 3.51992C1.83004 3.41992 1.51004 3.43992 1.45004 3.66992C1.43585 3.79043 1.46267 3.91222 1.52617 4.01563C1.58966 4.11904 1.68614 4.19805 1.80004 4.23992Z" fill="black"/>
<path d="M38 10.13L50.21 12.94C50.85 13.09 50.68 12.25 50.21 12.13L38 9.32C37.36 9.17 37.53 10.01 38 10.13Z" fill="black"/>
<path d="M31.19 8.56002L36 9.66002C36.0489 9.67734 36.1012 9.68289 36.1527 9.67622C36.2041 9.66954 36.2532 9.65083 36.2961 9.62161C36.339 9.59239 36.3743 9.55347 36.3993 9.50802C36.4243 9.46257 36.4383 9.41186 36.44 9.36002C36.4227 9.23734 36.3685 9.12283 36.2845 9.03173C36.2006 8.94062 36.0909 8.87724 35.97 8.85002L31.21 7.75002C31.1611 7.7327 31.1088 7.72715 31.0574 7.73382C31.0059 7.74049 30.9568 7.7592 30.9139 7.78842C30.8711 7.81765 30.8357 7.85656 30.8107 7.90201C30.7857 7.94747 30.7718 7.99817 30.77 8.05002C30.7873 8.1727 30.8415 8.28721 30.9255 8.37831C31.0094 8.46942 31.1192 8.5328 31.24 8.56002H31.19Z" fill="black"/>
<path d="M2.00002 1.83001L28.48 7.94001C29.11 8.08001 28.94 7.24001 28.48 7.12001L2.00002 1.02001C1.36002 0.870011 1.53002 1.72001 2.00002 1.83001Z" fill="black"/>
<path d="M80.77 12.67C82.51 12.12 84.24 11.57 85.99 11.04C86.53 10.87 85.99 10.04 85.51 10.23C83.77 10.76 82.03 11.31 80.3 11.86C79.75 12.04 80.3 12.81 80.77 12.67Z" fill="black"/>
<path d="M67.17 17.22C70.39 16.1 73.6234 15.0067 76.8701 13.94C77.4201 13.77 76.8701 12.99 76.4001 13.13C73.1534 14.2033 69.9167 15.3 66.6901 16.42C66.1501 16.61 66.69 17.42 67.17 17.23V17.22Z" fill="black"/>
<path d="M61.4001 19.2799L64.6001 18.1299C65.1401 17.9399 64.6001 17.1299 64.1201 17.3199L60.9301 18.4699C60.3901 18.6699 60.9301 19.4699 61.4001 19.2799Z" fill="black"/>
<path d="M52.5 22.61L56.31 21.16C56.85 20.96 56.31 20.16 55.83 20.35L52 21.8C51.47 22.01 52 22.8 52.48 22.61H52.5Z" fill="black"/>
<path d="M51.13 12.64C60.3586 10.5532 69.4712 7.98297 78.43 4.93996C80.93 4.07996 83.43 3.17996 85.91 2.24996C86.44 2.04996 85.91 1.24996 85.43 1.43996C76.6061 4.74604 67.6135 7.58333 58.49 9.93996C55.8834 10.6066 53.27 11.2433 50.65 11.85C50.1 11.97 50.65 12.76 51.13 12.66V12.64Z" fill="black"/>
<path d="M86.28 8.38996C86.09 5.88996 85.86 3.38996 85.57 0.889962C85.57 0.449962 84.62 0.0899613 84.65 0.669961C84.7967 4.06996 85.0467 7.46329 85.4 10.85C85.4 11.3 86.4 11.62 86.32 11.06C85.97 7.67996 85.72 4.27996 85.57 0.889962L84.65 0.669961C84.9367 3.16996 85.1733 5.6733 85.36 8.17996C85.36 8.63996 86.36 8.95996 86.28 8.38996Z" fill="black"/>
<path d="M1.49005 2.17997C2.11005 2.17997 1.71005 1.33997 1.23005 1.33997C0.750051 1.33997 1.02005 2.17997 1.49005 2.17997Z" fill="black"/>
<path d="M7.41999 9.22992C7.74666 19.2699 8.20333 29.3032 8.78999 39.3299C8.78999 39.7899 9.72999 40.1099 9.69999 39.5399C9.11999 29.5399 8.66666 19.5099 8.33999 9.44992C8.33999 8.98992 7.39999 8.65992 7.41999 9.22992Z" fill="black"/>
<path d="M12.7 32.72L12.94 41.06L13.5 40.8L9.99999 39.17C9.39999 38.89 9.27999 39.66 9.78999 39.9L13.26 41.53C13.49 41.63 13.83 41.53 13.82 41.27L13.62 32.94C13.62 32.48 12.69 32.16 12.7 32.73V32.72Z" fill="black"/>
<path d="M12.1 11.1799L12.26 16.7399C12.26 17.1999 13.19 17.5199 13.17 16.9499L13 11.3899C13 10.9299 12.07 10.6099 12.08 11.1799H12.1Z" fill="black"/>
<path d="M8.99999 9.71996L11 10.23L12 10.48L12.22 10.54H12.37C12.32 10.54 12.37 10.54 12.37 10.54C12.37 10.54 12.37 10.62 12.37 10.54C12.37 10.46 12.28 10.36 12.37 10.29C11.95 10.6 12.65 11.29 13.03 11.02C13.41 10.75 13.16 10.24 12.85 10.02C12.4762 9.78703 12.0567 9.63699 11.62 9.57996L8.92999 8.93996C8.88109 8.92264 8.8288 8.91709 8.77736 8.92376C8.72591 8.93044 8.67676 8.94914 8.6339 8.97837C8.59104 9.00759 8.55568 9.0465 8.53067 9.09196C8.50567 9.13741 8.49173 9.18811 8.48999 9.23996C8.50445 9.3637 8.55771 9.47969 8.64214 9.57131C8.72657 9.66292 8.83784 9.72546 8.95999 9.74996L8.99999 9.71996Z" fill="black"/>
<path d="M35.31 15.7299C37.31 16.1999 39.31 16.5999 41.4 16.9099C42.05 17.0099 41.88 16.1699 41.4 16.0999C39.36 15.7799 37.33 15.3866 35.31 14.9199C35.2611 14.9026 35.2088 14.8971 35.1574 14.9037C35.1059 14.9104 35.0568 14.9291 35.0139 14.9583C34.971 14.9876 34.9357 15.0265 34.9107 15.0719C34.8857 15.1174 34.8717 15.1681 34.87 15.2199C34.8873 15.3426 34.9415 15.4571 35.0255 15.5482C35.1094 15.6393 35.2191 15.7027 35.34 15.7299H35.31Z" fill="black"/>
<path d="M40.46 17.24L40.55 46.99C40.55 47.45 41.47 47.78 41.47 47.2L41.38 17.45C41.38 16.99 40.46 16.67 40.46 17.24Z" fill="black"/>
<path d="M35.83 38.64V46.23C35.83 46.69 36.74 47.02 36.74 46.45V38.85C36.74 38.39 35.82 38.06 35.82 38.64H35.83Z" fill="black"/>
<path d="M35.74 15.16V22.06C35.74 22.53 36.66 22.85 36.66 22.28V15.37C36.66 14.91 35.74 14.58 35.75 15.16H35.74Z" fill="black"/>
<path d="M36.94 46.84C37.9675 47.401 39.073 47.8055 40.22 48.04C40.43 48.04 40.67 47.98 40.66 47.74C40.6471 47.6157 40.5943 47.4989 40.5096 47.407C40.425 47.3151 40.3128 47.253 40.19 47.23C39.1382 47.0136 38.1263 46.6358 37.19 46.11C37.01 46.01 36.7 46.04 36.64 46.27C36.58 46.5 36.79 46.74 36.98 46.84H36.94Z" fill="black"/>
<path d="M12.37 17.53C20.79 19.49 29.2334 21.2566 37.7 22.83L37.23 22.31L37.1 38.46L37.55 38.16C28.9315 36.8066 20.4535 34.6745 12.22 31.79C11.61 31.58 11.47 32.33 12.01 32.52C20.3213 35.4302 28.8798 37.5791 37.58 38.94C37.79 38.94 38.02 38.94 38.02 38.64L38.14 22.5C38.1247 22.3755 38.0713 22.2588 37.9872 22.1657C37.9031 22.0727 37.7923 22.0078 37.67 21.98C29.2234 20.4333 20.78 18.68 12.34 16.72C11.7 16.57 11.87 17.42 12.34 17.53H12.37Z" fill="black"/>
<path d="M11.86 16.4999C10.54 16.1299 10.53 17.8199 10.47 18.6699C10.36 20.2099 10.3 21.7599 10.29 23.3099C10.2766 26.3613 10.4536 29.4106 10.82 32.4399C10.88 32.8899 11.82 33.2099 11.74 32.6499C11.4267 30.0911 11.2498 27.5175 11.21 24.9399C11.21 23.6799 11.21 22.4199 11.21 21.1599C11.21 20.5099 11.27 19.8599 11.31 19.1599C11.31 18.8499 11.31 17.0599 11.84 17.2199C12.37 17.3799 12.3 16.5399 11.84 16.4099L11.86 16.4999Z" fill="black"/>
<path d="M14.56 24.9399C14.362 25.1912 14.2376 25.4925 14.2005 25.8102C14.1634 26.128 14.2152 26.4498 14.35 26.7399C14.4929 27.0425 14.7298 27.2908 15.0254 27.4476C15.321 27.6044 15.6594 27.6614 15.99 27.6099C16.2475 27.5397 16.4819 27.4029 16.6698 27.2133C16.8576 27.0237 16.9922 26.788 17.06 26.5299C17.1512 26.2646 17.1761 25.981 17.1325 25.7039C17.0889 25.4267 16.9782 25.1645 16.81 24.9399C16.6751 24.7835 16.5052 24.6612 16.314 24.583C16.1228 24.5048 15.9159 24.4729 15.71 24.4899C15.3565 24.5381 15.0164 24.6571 14.71 24.8399C14.5 24.9499 14.59 25.2699 14.71 25.4099C14.7851 25.5022 14.888 25.5677 15.0034 25.5965C15.1188 25.6254 15.2404 25.616 15.35 25.5699L15.51 25.4799H15.59C15.6945 25.4284 15.8056 25.3914 15.92 25.3699H16H16.07C16.07 25.3699 16.18 25.3699 16.07 25.3699C16.14 25.3699 16.07 25.3699 16.07 25.3699H16.13H16.08C16 25.3699 16.02 25.3099 16.08 25.3699C16.14 25.4299 16.03 25.2999 16.08 25.3699V25.4299C16.08 25.4299 16.08 25.5199 16.08 25.5399C16.08 25.4799 16.08 25.5399 16.08 25.5999C16.085 25.6899 16.085 25.78 16.08 25.8699C16.08 25.8699 16.08 25.9699 16.08 25.8699C16.08 25.7699 16.08 25.8699 16.08 25.8699C16.0846 25.9232 16.0846 25.9767 16.08 26.0299C16.059 26.1195 16.0289 26.2066 15.99 26.2899C15.99 26.2899 15.99 26.2099 15.99 26.2899L15.91 26.4199L15.82 26.5299C15.82 26.5299 15.88 26.5299 15.82 26.5299L15.71 26.6099H15.66C15.72 26.6099 15.66 26.6099 15.66 26.6099H15.6H15.54C15.45 26.6099 15.61 26.6099 15.54 26.6099H15.46C15.41 26.6099 15.46 26.6099 15.46 26.6099H15.4H15.29C15.29 26.6099 15.38 26.6699 15.29 26.6099H15.23C15.23 26.6099 15.32 26.6999 15.23 26.6099V26.5599V26.4899C15.23 26.4899 15.23 26.5499 15.23 26.4899V26.4099C15.23 26.4099 15.23 26.3099 15.23 26.4099V26.3499C15.23 26.3499 15.23 26.2799 15.23 26.2499C15.2245 26.2269 15.2245 26.2029 15.23 26.1799C15.23 26.1799 15.23 26.0599 15.23 26.1299C15.2481 26.0126 15.2817 25.8983 15.33 25.7899C15.33 25.7899 15.33 25.6899 15.33 25.7299L15.45 25.5499C15.74 25.1599 14.94 24.5499 14.64 24.9599L14.56 24.9399Z" fill="black"/>
<path d="M16.11 26.4899C16.21 27.2899 16.59 28.2899 17.56 28.2699C18.33 28.2699 18.81 27.3799 19.04 26.7499C19.3205 26.0338 19.3422 25.2422 19.1012 24.5119C18.8602 23.7816 18.3716 23.1583 17.72 22.7499C17.1056 22.3567 16.3653 22.2103 15.6476 22.3401C14.9298 22.4699 14.2877 22.8664 13.85 23.4499C13.3338 24.0952 12.9673 24.847 12.7771 25.6512C12.5868 26.4554 12.5776 27.2917 12.75 28.0999C13.19 29.7899 15.16 31.2399 16.84 30.0999C17.28 29.8099 16.57 29.0999 16.18 29.3699C15.9587 29.5005 15.7102 29.5782 15.454 29.597C15.1977 29.6159 14.9406 29.5754 14.7025 29.4786C14.4645 29.3819 14.252 29.2315 14.0816 29.0392C13.9112 28.8469 13.7874 28.6178 13.72 28.3699C13.408 27.2166 13.5549 25.9872 14.13 24.9399C14.3064 24.4733 14.606 24.0632 14.9969 23.7533C15.3878 23.4434 15.8554 23.2453 16.35 23.1799C16.8522 23.1781 17.3368 23.3653 17.7073 23.7044C18.0779 24.0434 18.3073 24.5095 18.35 25.0099C18.3965 25.5919 18.275 26.1749 18 26.6899C17.8726 26.9765 17.6684 27.2222 17.41 27.3999C17.09 27.5399 17.06 26.9099 17.03 26.7099C17.012 26.5864 16.9577 26.4711 16.874 26.3785C16.7903 26.2859 16.681 26.2203 16.56 26.1899C16.37 26.1899 16.08 26.2499 16.12 26.4899H16.11Z" fill="black"/>
<path d="M22.11 25.9399C21.77 27.4355 21.6088 28.9663 21.63 30.4999C21.63 30.9599 22.55 31.2799 22.55 30.7099C22.5277 29.2373 22.6787 27.7672 23 26.3299C23.0149 26.2106 22.9895 26.0898 22.9279 25.9865C22.8663 25.8833 22.7721 25.8035 22.66 25.7599C22.48 25.6799 22.16 25.6699 22.11 25.9199V25.9399Z" fill="black"/>
<path d="M23.13 26.44C23.1895 26.3942 23.2531 26.3541 23.32 26.32H23.37H23.5H23.6H23.8C23.87 26.32 23.73 26.32 23.8 26.32H23.92H24.03C24.0464 26.3242 24.0636 26.3242 24.08 26.32L24.15 26.38C24.04 26.3 24.15 26.38 24.15 26.38C24.15 26.38 24.23 26.47 24.15 26.38C24.07 26.29 24.15 26.38 24.15 26.38L24.2 26.45C24.2 26.45 24.2 26.56 24.2 26.5C24.2 26.44 24.2 26.5 24.2 26.56V26.65C24.2 26.59 24.2 26.65 24.2 26.65V26.76C24.2 26.76 24.2 26.85 24.2 26.76C24.2046 26.8299 24.2046 26.9001 24.2 26.97C24.2 27.04 24.2 26.97 24.2 26.97C24.1837 27.0054 24.1636 27.039 24.14 27.07L24.08 27.15C24.08 27.15 24.01 27.23 24.08 27.15V27.2L24 27.26L23.8 27.38H23.75C23.66 27.43 23.8 27.38 23.75 27.38H23.62L23.32 27.46L23.01 27.51H22.91H22.74C22.6891 27.5098 22.6387 27.5203 22.5921 27.541C22.5456 27.5617 22.504 27.592 22.47 27.63C22.4455 27.6762 22.4327 27.7277 22.4327 27.78C22.4327 27.8323 22.4455 27.8838 22.47 27.93C22.5099 28.0495 22.5865 28.1535 22.6888 28.2271C22.7911 28.3007 22.914 28.3402 23.04 28.34C23.5178 28.3179 23.9881 28.213 24.43 28.03C24.8042 27.8669 25.1014 27.5662 25.26 27.19C25.2731 26.876 25.1817 26.5665 25 26.31C24.8877 26.1009 24.7341 25.9168 24.5484 25.769C24.3627 25.6211 24.1489 25.5126 23.92 25.45C23.6804 25.3866 23.4296 25.3771 23.1859 25.422C22.9421 25.467 22.7113 25.5653 22.51 25.71C22.4696 25.7457 22.4372 25.7895 22.415 25.8386C22.3928 25.8878 22.3813 25.9411 22.3813 25.995C22.3813 26.0489 22.3928 26.1022 22.415 26.1513C22.4372 26.2005 22.4696 26.2443 22.51 26.28C22.5867 26.3731 22.6913 26.439 22.8085 26.4678C22.9256 26.4966 23.0489 26.4869 23.16 26.44H23.13Z" fill="black"/>
<path d="M23.33 28.7999L23.69 28.6899C23.7962 28.6759 23.9038 28.6759 24.01 28.6899H24.12C24.12 28.6899 24.31 28.7499 24.21 28.6899C24.11 28.6299 24.3 28.6899 24.31 28.7399C24.32 28.7899 24.24 28.6899 24.31 28.7399L24.36 28.7899L24.41 28.8399V28.8999C24.41 28.8999 24.49 29.0599 24.41 28.8999C24.4311 28.9449 24.4479 28.9918 24.46 29.0399V29.1499C24.46 29.0599 24.46 29.2099 24.46 29.2199V29.3699C24.46 29.2999 24.46 29.4499 24.46 29.4599C24.3603 29.8267 24.1242 30.1415 23.8 30.3399C23.6448 30.4535 23.4616 30.5226 23.27 30.5399H23.2C23.15 30.5399 23.15 30.5399 23.2 30.5399H23.13C23.08 30.5399 23.13 30.5399 23.13 30.5399H23.08C23.0206 30.4294 22.9274 30.3408 22.8141 30.2868C22.7008 30.2329 22.5733 30.2165 22.45 30.2399C22.4006 30.2565 22.3557 30.2845 22.3192 30.3218C22.2827 30.359 22.2555 30.4043 22.2399 30.4541C22.2243 30.5039 22.2207 30.5566 22.2294 30.6081C22.2381 30.6595 22.2589 30.7081 22.29 30.7499C22.4404 30.9935 22.6622 31.1848 22.9253 31.2975C23.1884 31.4103 23.4799 31.4391 23.76 31.3799C24.2412 31.2675 24.6666 30.9874 24.96 30.5899C25.2356 30.2386 25.3645 29.7942 25.32 29.3499C25.2916 29.1079 25.2118 28.8747 25.0859 28.666C24.96 28.4573 24.7909 28.278 24.59 28.1399C24.3114 27.9564 23.9835 27.8622 23.65 27.8699C23.3467 27.8902 23.0474 27.9508 22.76 28.0499C22.7114 28.0676 22.6676 28.0964 22.6322 28.1342C22.5967 28.1719 22.5707 28.2174 22.5561 28.267C22.5415 28.3167 22.5387 28.369 22.5481 28.4199C22.5575 28.4708 22.5787 28.5188 22.61 28.5599C22.6728 28.6674 22.7665 28.7535 22.8788 28.807C22.9912 28.8605 23.117 28.8789 23.24 28.8599L23.33 28.7999Z" fill="black"/>
<path d="M26.34 27.4899C25.9453 28.5338 25.9453 29.686 26.34 30.7299C26.5312 31.2818 26.8578 31.777 27.29 32.1699C27.5265 32.3638 27.815 32.4833 28.1193 32.5136C28.4236 32.5438 28.73 32.4834 29 32.3399C29.463 32.055 29.8156 31.6213 30 31.1099C30.2535 30.5739 30.4157 29.9993 30.48 29.4099C30.61 28.4099 30.56 26.8199 29.48 26.2399C29.217 26.1048 28.9241 26.0385 28.6286 26.0473C28.3331 26.056 28.0446 26.1395 27.79 26.2899C27.268 26.6434 26.8502 27.1303 26.58 27.6999C26.33 28.1199 27.14 28.6999 27.39 28.2899C27.73 27.7099 28.24 26.7899 29.04 26.8899C29.38 26.8899 29.45 27.3099 29.51 27.5899C29.5934 28.0348 29.6202 28.4883 29.59 28.9399C29.5542 29.8155 29.2388 30.6567 28.69 31.3399C28.49 31.5699 28.07 31.8399 27.78 31.6199C27.5088 31.3597 27.312 31.0317 27.21 30.6699C26.8797 29.783 26.8797 28.8068 27.21 27.9199C27.38 27.4799 26.51 27.0099 26.32 27.5099L26.34 27.4899Z" fill="black"/>
<path d="M31.2 27.5L34.31 32.75C34.3707 32.8594 34.464 32.9472 34.5769 33.001C34.6899 33.0548 34.8169 33.0719 34.94 33.05C34.9902 33.0342 35.0356 33.0064 35.0725 32.9689C35.1093 32.9314 35.1363 32.8854 35.1511 32.835C35.1659 32.7846 35.1681 32.7313 35.1575 32.6799C35.1468 32.6284 35.1237 32.5804 35.09 32.54L32 27.28C31.9394 27.1705 31.8461 27.0828 31.7331 27.029C31.6202 26.9752 31.4932 26.9581 31.37 26.98C31.3212 26.9989 31.2774 27.0289 31.242 27.0675C31.2066 27.1062 31.1807 27.1525 31.1662 27.2028C31.1516 27.2531 31.1489 27.3062 31.1583 27.3577C31.1676 27.4093 31.1888 27.458 31.22 27.5H31.2Z" fill="black"/>
<path d="M31.65 32.14C32.8633 30.2866 34.12 28.4733 35.42 26.7C35.71 26.3 34.91 25.7 34.62 26.11C33.2867 27.89 32.0267 29.7033 30.84 31.55C30.57 31.96 31.38 32.55 31.65 32.14Z" fill="black"/>
<path d="M51.22 38.44L53.72 37.7L53.25 36.88L50.25 38.02C49.71 38.22 50.25 38.96 50.73 38.83L56.48 37.07C57.03 36.9 56.48 36.07 56 36.26L50.25 38.02L50.73 38.83L53.73 37.7C54.27 37.49 53.73 36.75 53.26 36.88L50.76 37.63C50.21 37.79 50.76 38.63 51.23 38.44H51.22Z" fill="black"/>
<path d="M1.13999 2.64995L0.809986 7.05995L0.649986 9.16995C0.525823 9.82891 0.488839 10.5013 0.539986 11.1699C0.659986 11.7199 1.21999 11.9099 1.67999 12.0999C2.30999 12.3599 2.93999 12.5999 3.57999 12.8199C4.9118 13.2892 6.27522 13.6635 7.65999 13.9399C8.29999 14.0599 8.12999 13.2199 7.65999 13.1299C6.57258 12.9235 5.49757 12.6564 4.43999 12.3299C3.90999 12.1599 3.36999 11.9799 2.84999 11.7799C2.29935 11.6403 1.77561 11.4105 1.29999 11.0999L1.51999 11.3899C1.44998 11.0805 1.44998 10.7594 1.51999 10.4499L1.59999 9.44995L1.75999 7.23995L2.08999 2.92995C2.08999 2.46995 1.21999 2.13995 1.16999 2.71995L1.13999 2.64995Z" fill="black"/>
<path d="M1.25002 18.0799C1.14002 20.2299 0.250019 22.3299 0.440019 24.4999C0.495418 25.4941 0.894912 26.4381 1.57002 27.1699C2.57027 28.1062 3.82729 28.7226 5.18002 28.9399C5.82002 29.0799 5.65002 28.2399 5.18002 28.1299C3.96711 27.9867 2.84233 27.4243 2.00002 26.5399C1.50592 25.8415 1.26915 24.9934 1.33002 24.1399C1.33002 22.1399 2.05002 20.2699 2.15002 18.2899C2.15002 17.8299 1.27002 17.5099 1.24002 18.0799H1.25002Z" fill="black"/>
<path d="M0.890034 32.1C0.940034 33.94 1.00003 35.78 1.09003 37.62C1.09003 38.08 2.03003 38.4 2.00003 37.83C1.92003 35.99 1.85003 34.15 1.81003 32.31C1.81003 31.85 0.880034 31.53 0.890034 32.1Z" fill="black"/>
<path d="M0.830039 16.9399C0.776706 20.3932 0.776706 23.8466 0.830039 27.2999C0.830039 27.7599 1.76004 28.0799 1.75004 27.5099C1.75004 24.0599 1.75004 20.5999 1.75004 17.1499C1.75004 16.6899 0.840039 16.3599 0.840039 16.9399H0.830039Z" fill="black"/>
<path d="M1.15004 1.71995C1.05004 4.93995 0.973377 8.15995 0.920044 11.3799C0.920044 11.8499 1.82004 12.1699 1.84004 11.5999C1.90004 8.36995 1.99004 5.14995 2.07004 1.92995C2.07004 1.46995 1.17004 1.13995 1.15004 1.71995Z" fill="black"/>
<path d="M1.28 27.9399C3.78239 28.2373 6.23798 28.8453 8.59 29.7499C8.63889 29.7673 8.69119 29.7728 8.74263 29.7661C8.79407 29.7595 8.84322 29.7408 8.88608 29.7115C8.92894 29.6823 8.96431 29.6434 8.98932 29.5979C9.01432 29.5525 9.02826 29.5018 9.02999 29.4499C9.02999 29.1899 8.78 28.9999 8.56 28.9399C6.12662 28.0195 3.58636 27.4114 0.999995 27.1299C0.94889 27.129 0.898297 27.1403 0.852451 27.1629C0.806605 27.1855 0.766841 27.2187 0.736487 27.2599C0.706132 27.301 0.686071 27.3488 0.677982 27.3992C0.669894 27.4497 0.674013 27.5014 0.689995 27.5499C0.733138 27.6683 0.810234 27.7712 0.911627 27.8459C1.01302 27.9207 1.1342 27.9638 1.26 27.9699L1.28 27.9399Z" fill="black"/>
<path d="M56 16.86C56.2267 26.4466 56.2267 36.04 56 45.64C56 46.1 56.9 46.43 56.92 45.85C57.1733 36.2633 57.1733 26.67 56.92 17.07C56.92 16.61 55.99 16.28 56.01 16.86H56Z" fill="black"/>
<path d="M57.81 16.8299L60.62 16.3599C60.86 16.3599 60.88 16.0099 60.77 15.8399C60.7069 15.7333 60.6128 15.6485 60.5003 15.5967C60.3877 15.5449 60.2621 15.5285 60.14 15.5499L57.34 16.0099C57.1 16.0099 57.08 16.3599 57.18 16.5299C57.2457 16.6346 57.3398 16.7185 57.4514 16.7716C57.5629 16.8247 57.6874 16.845 57.81 16.8299Z" fill="black"/>
<path d="M60.89 14.45C61.51 14.45 61.11 13.61 60.63 13.61C60.15 13.61 60.42 14.45 60.89 14.45Z" fill="black"/>
<path d="M60.52 38.03C60.52 40.0967 60.4767 42.1667 60.39 44.24C60.39 44.7 61.29 45.03 61.3 44.45C61.36 42.38 61.41 40.31 61.43 38.24C61.43 37.78 60.52 37.46 60.52 38.03Z" fill="black"/>
<path d="M57.69 16.8499L60.74 15.7799L60.04 15.2599C60.14 17.0999 60.22 18.9399 60.29 20.7799C60.29 21.2399 61.23 21.5599 61.21 20.9899C61.14 19.1499 61.05 17.3099 60.96 15.4799C60.949 15.3995 60.9221 15.322 60.8808 15.2521C60.8394 15.1821 60.7846 15.1212 60.7194 15.0727C60.6542 15.0243 60.5799 14.9894 60.5011 14.97C60.4222 14.9506 60.3402 14.9472 60.26 14.9599L57.26 16.0399C56.72 16.2299 57.26 17.0399 57.74 16.8499H57.69Z" fill="black"/>
<path d="M57.13 46.09L61.34 44.19C61.57 44.08 61.45 43.75 61.34 43.61C61.2621 43.5186 61.1569 43.4547 61.0398 43.4277C60.9228 43.4007 60.8001 43.412 60.69 43.46L56.48 45.36C56.26 45.46 56.38 45.8 56.48 45.93C56.554 46.0237 56.657 46.0902 56.7728 46.1191C56.8886 46.1481 57.0107 46.1378 57.12 46.09H57.13Z" fill="black"/>
<path d="M76.49 33.14C76.4367 35.44 76.3567 37.74 76.25 40.04C76.25 40.5 77.14 40.83 77.17 40.25C77.2833 37.95 77.36 35.65 77.4 33.35C77.4 32.89 76.5 32.57 76.49 33.14Z" fill="black"/>
<path d="M76 11.76C76.08 12.91 76.15 14.06 76.21 15.2C76.2268 15.324 76.2806 15.44 76.3645 15.5328C76.4484 15.6256 76.5584 15.6909 76.68 15.72C76.89 15.72 77.14 15.66 77.12 15.42C77.06 14.27 76.99 13.12 76.92 11.97C76.9014 11.8478 76.8468 11.734 76.763 11.6431C76.6793 11.5523 76.5703 11.4885 76.45 11.46C76.24 11.41 75.99 11.51 76 11.76Z" fill="black"/>
<path d="M77.78 11.47L79.91 10.47C80.12 10.38 80.03 10.08 79.91 9.95002C79.8471 9.855 79.7576 9.78061 79.6527 9.73615C79.5478 9.69169 79.4321 9.67912 79.32 9.70002L76.32 10.7C75.77 10.88 76.32 11.7 76.79 11.51L79.79 10.51L79.22 9.74002L77.09 10.74C76.87 10.84 76.98 11.18 77.09 11.31C77.1679 11.4014 77.2732 11.4654 77.3903 11.4924C77.5073 11.5194 77.6299 11.508 77.74 11.46L77.78 11.47Z" fill="black"/>
<path d="M80.81 30.64C80.87 33.64 80.89 36.57 80.9 39.53C80.9 39.99 81.81 40.31 81.81 39.74C81.81 36.78 81.7834 33.8167 81.73 30.85C81.73 30.39 80.8 30.07 80.81 30.64Z" fill="black"/>
<path d="M80 9.46996C80.3667 15.8366 80.62 22.21 80.76 28.59C80.76 29.05 81.69 29.38 81.68 28.8C81.54 22.4333 81.2833 16.06 80.91 9.67996C80.91 9.21996 79.91 8.89996 80 9.46996Z" fill="black"/>
<path d="M78.07 40.19L80.39 39.54L79.91 38.73C78.9583 39.126 77.9407 39.3397 76.91 39.36C76.8582 39.3566 76.8062 39.3662 76.7591 39.3881C76.7119 39.41 76.671 39.4434 76.6402 39.4852C76.6093 39.5271 76.5894 39.576 76.5824 39.6275C76.5754 39.679 76.5815 39.7314 76.6 39.78C76.642 39.8991 76.7188 40.0028 76.8204 40.0776C76.9221 40.1525 77.0439 40.1952 77.17 40.2C78.2653 40.1816 79.3474 39.9577 80.36 39.54C80.89 39.31 80.36 38.6 79.88 38.73L77.57 39.38C77.5206 39.3965 77.4757 39.4246 77.4392 39.4618C77.4027 39.499 77.3755 39.5444 77.3599 39.5942C77.3442 39.6439 77.3407 39.6967 77.3494 39.7481C77.3581 39.7995 77.3789 39.8482 77.41 39.89C77.4738 39.9965 77.5676 40.0818 77.6797 40.1352C77.7918 40.1886 77.9171 40.2076 78.04 40.19H78.07Z" fill="black"/>
<path d="M59.44 21.74C65.5678 19.3651 71.8445 17.3942 78.23 15.84C78.78 15.71 78.23 14.92 77.75 15.03C71.3765 16.5842 65.1128 18.5585 59 20.94C58.46 21.15 59 21.94 59.47 21.75L59.44 21.74Z" fill="black"/>
<path d="M58.77 22.46C58.77 27.92 58.8834 33.3833 59.11 38.85C59.11 39.3099 60.05 39.6299 60.03 39.0599C59.7834 33.5999 59.67 28.1366 59.69 22.67C59.69 22.21 58.77 21.89 58.77 22.46Z" fill="black"/>
<path d="M61.13 39.14C67.1967 36.9466 73.31 34.87 79.47 32.91C80.02 32.74 79.47 31.96 79 32.1C72.84 34.1 66.7233 36.1766 60.65 38.33C60.11 38.53 60.65 39.33 61.13 39.14Z" fill="black"/>
<path d="M78.77 16.5799L78.67 16.0999C78.59 15.7199 77.73 15.4499 77.77 15.9899C78.2034 21.4099 78.49 26.8366 78.63 32.2699C78.63 32.7299 79.56 33.0499 79.55 32.4799C79.4034 27.0466 79.1167 21.6199 78.69 16.1999L77.79 16.0999L77.89 16.5799C77.99 17.0499 78.89 17.1899 78.77 16.5799Z" fill="black"/>
<path d="M62.37 29.74C62.5278 29.9054 62.7267 30.0258 62.9463 30.0891C63.166 30.1524 63.3985 30.1561 63.62 30.1C63.8015 30.0587 63.9679 29.9675 64.1004 29.8368C64.2329 29.7061 64.3263 29.5409 64.37 29.36C64.4018 29.1351 64.3783 28.9059 64.3017 28.6922C64.2251 28.4784 64.0977 28.2864 63.9303 28.1329C63.763 27.9794 63.5609 27.8688 63.3413 27.8108C63.1217 27.7528 62.8914 27.7491 62.67 27.8C62.4465 27.8678 62.247 27.9979 62.0947 28.175C61.9424 28.3521 61.8437 28.5689 61.81 28.8C61.7705 28.8996 61.7705 29.0105 61.81 29.11C61.8784 29.2239 61.9794 29.3145 62.1 29.37C62.21 29.4089 62.33 29.4089 62.44 29.37C62.53 29.37 62.64 29.28 62.65 29.17C62.6614 29.0825 62.6885 28.9978 62.73 28.92L62.68 29.01C62.7352 28.912 62.8024 28.8213 62.88 28.74L62.81 28.81C62.8908 28.7299 62.9858 28.6655 63.09 28.62H62.99L63.18 28.56C63.25 28.56 63.1 28.56 63.18 28.56H63.33C63.19 28.56 63.33 28.56 63.33 28.56C63.38 28.56 63.22 28.48 63.33 28.56C63.3571 28.5708 63.3811 28.5879 63.4 28.61C63.4 28.61 63.32 28.52 63.35 28.56C63.35 28.56 63.43 28.67 63.35 28.56C63.27 28.45 63.35 28.56 63.35 28.56C63.35 28.63 63.35 28.47 63.35 28.56V28.65C63.35 28.72 63.35 28.57 63.35 28.65C63.355 28.7166 63.355 28.7834 63.35 28.85V28.94C63.3394 29.0123 63.3192 29.083 63.29 29.15V29.06C63.2516 29.1346 63.2009 29.2022 63.14 29.26L63.22 29.19C63.1514 29.2514 63.0739 29.3019 62.99 29.34H63.09H62.9H62.75C62.75 29.34 62.87 29.34 62.75 29.34C62.68 29.34 62.85 29.41 62.81 29.34C62.77 29.27 62.67 29.22 62.81 29.34C62.7194 29.2457 62.6056 29.1768 62.48 29.14C62.3772 29.0998 62.2629 29.0998 62.16 29.14C62.1196 29.1757 62.0872 29.2195 62.065 29.2687C62.0429 29.3178 62.0314 29.3711 62.0314 29.425C62.0314 29.4789 62.0429 29.5322 62.065 29.5814C62.0872 29.6305 62.1196 29.6743 62.16 29.71L62.37 29.74Z" fill="black"/>
<path d="M64.67 29.3899C65.0642 29.2452 65.3932 28.9635 65.597 28.5964C65.8008 28.2292 65.8657 27.801 65.78 27.3899C65.6466 26.9245 65.3738 26.5111 64.9983 26.2054C64.6229 25.8997 64.1628 25.7163 63.68 25.6799C63.2053 25.6563 62.7329 25.7608 62.3124 25.9825C61.8919 26.2041 61.5388 26.5348 61.29 26.9399C60.7451 27.8393 60.5763 28.917 60.82 29.9399C60.873 30.2149 60.9916 30.473 61.1657 30.6924C61.3398 30.9118 61.5642 31.0859 61.82 31.1999C62.3775 31.325 62.9492 31.3754 63.52 31.3499C63.5711 31.3509 63.6217 31.3396 63.6676 31.317C63.7134 31.2944 63.7532 31.2611 63.7835 31.22C63.8139 31.1789 63.8339 31.1311 63.842 31.0806C63.8501 31.0301 63.846 30.9785 63.83 30.9299C63.7858 30.8123 63.7084 30.71 63.6072 30.6355C63.5061 30.561 63.3855 30.5173 63.26 30.5099C62.89 30.5099 62.51 30.5099 62.14 30.5099C62.0321 30.4986 61.9309 30.4524 61.8515 30.3785C61.7721 30.3045 61.719 30.2067 61.7 30.0999C61.5168 29.3692 61.5837 28.5982 61.89 27.9099C62.025 27.5908 62.2313 27.3068 62.4931 27.0797C62.7548 26.8527 63.065 26.6885 63.4 26.5999C63.6654 26.5324 63.9458 26.5546 64.1972 26.6632C64.4487 26.7717 64.6571 26.9604 64.79 27.1999C64.8451 27.3371 64.8725 27.4838 64.8706 27.6316C64.8688 27.7794 64.8376 27.9254 64.7791 28.0611C64.7205 28.1968 64.6357 28.3196 64.5294 28.4224C64.4232 28.5252 64.2976 28.6059 64.16 28.6599C63.62 28.8399 64.16 29.6599 64.64 29.4799L64.67 29.3899Z" fill="black"/>
<path d="M67.3 25.38C67.4 26.75 67.46 28.12 67.46 29.48C67.46 29.95 68.38 30.27 68.37 29.7C68.37 28.33 68.32 26.96 68.21 25.6C68.1933 25.476 68.1395 25.36 68.0556 25.2672C67.9717 25.1744 67.8617 25.1091 67.74 25.08C67.54 25.08 67.28 25.14 67.3 25.38Z" fill="black"/>
<path d="M68.57 25.55C68.719 25.4257 68.8881 25.3276 69.07 25.26H69.2H69.28H69.46H69.53L69.62 25.32C69.62 25.32 69.67 25.43 69.62 25.32C69.57 25.21 69.62 25.43 69.62 25.32C69.6445 25.3981 69.6445 25.4819 69.62 25.56C69.464 25.8989 69.2312 26.1968 68.94 26.43C68.636 26.6971 68.3001 26.9255 67.94 27.11C67.73 27.22 67.82 27.55 67.94 27.68C68.0129 27.7751 68.1158 27.8426 68.232 27.8717C68.3483 27.9008 68.4709 27.8896 68.58 27.84C68.9371 27.6663 69.2727 27.4515 69.58 27.2C69.9015 26.9438 70.1785 26.6363 70.4 26.29C70.5148 26.1018 70.5756 25.8855 70.5756 25.665C70.5756 25.4445 70.5148 25.2282 70.4 25.04C70.2753 24.8547 70.111 24.6995 69.9191 24.5853C69.7272 24.4712 69.5123 24.4011 69.29 24.38C68.7966 24.3569 68.3122 24.5172 67.93 24.83C67.51 25.14 68.22 25.83 68.6 25.56L68.57 25.55Z" fill="black"/>
<path d="M68.87 27.9399L69.11 27.8099L69.25 27.7499L69.5 27.6899C69.43 27.6899 69.5 27.6899 69.56 27.6899H69.72H69.83H69.89C69.95 27.6899 69.8 27.6199 69.89 27.6899C69.95 27.6899 69.82 27.6099 69.89 27.6899C69.96 27.7699 69.89 27.6899 69.89 27.6899C69.8848 27.713 69.8848 27.7369 69.89 27.7599C69.89 27.8299 69.89 27.7599 69.89 27.7599C69.89 27.7599 69.89 27.7599 69.89 27.8199C69.89 27.8799 69.89 27.8199 69.89 27.8199V27.9699C69.89 28.0199 69.89 27.9699 69.89 27.9699C69.8943 27.9931 69.8943 28.0168 69.89 28.0399C69.8946 28.1065 69.8946 28.1734 69.89 28.2399C69.89 28.2399 69.89 28.3399 69.89 28.2399L69.83 28.3399L69.7 28.5099L69.64 28.5699C69.71 28.4999 69.64 28.5699 69.64 28.5699C69.5772 28.619 69.5103 28.6625 69.44 28.6999H69.38C69.38 28.6999 69.32 28.6999 69.38 28.6999C69.44 28.6999 69.38 28.6999 69.38 28.6999H69.29L69 28.9399H68.86C68.74 28.9399 68.86 28.9399 68.86 28.9399H68.25C68.1989 28.939 68.1483 28.9503 68.1025 28.9729C68.0566 28.9955 68.0168 29.0287 67.9865 29.0698C67.9561 29.111 67.9361 29.1588 67.928 29.2092C67.9199 29.2597 67.924 29.3114 67.94 29.3599C67.9808 29.4798 68.0572 29.5842 68.1591 29.6593C68.261 29.7344 68.3835 29.7765 68.51 29.7799C68.9338 29.8293 69.3633 29.7739 69.7608 29.6188C70.1583 29.4636 70.5117 29.2134 70.79 28.8899C70.8831 28.6981 70.9301 28.4871 70.9274 28.2739C70.9246 28.0607 70.8721 27.851 70.774 27.6617C70.6759 27.4723 70.535 27.3084 70.3624 27.1832C70.1899 27.0579 69.9904 26.9746 69.78 26.9399C69.2298 26.852 68.6669 26.981 68.21 27.2999C68 27.4199 68.08 27.7199 68.21 27.8699C68.2879 27.9613 68.3932 28.0253 68.5102 28.0523C68.6273 28.0793 68.7499 28.068 68.86 28.0199L68.87 27.9399Z" fill="black"/>
<path d="M71.1 25.62C71.0961 26.4793 71.4176 27.3082 72 27.94C72.2911 28.2516 72.6939 28.435 73.12 28.45C73.3113 28.446 73.4995 28.4011 73.672 28.3183C73.8445 28.2355 73.9973 28.1168 74.12 27.97C74.6127 27.3008 74.8535 26.4793 74.8 25.65C74.8187 25.221 74.69 24.7986 74.4353 24.453C74.1806 24.1073 73.8153 23.8592 73.4 23.75C73.1724 23.7158 72.94 23.737 72.7223 23.8119C72.5047 23.8868 72.3084 24.013 72.15 24.18C71.8398 24.5386 71.6142 24.9624 71.49 25.42C71.34 25.86 72.22 26.34 72.39 25.84C72.56 25.34 72.77 24.69 73.33 24.57C73.3962 24.5588 73.4638 24.5588 73.53 24.57C73.59 24.57 73.53 24.57 73.61 24.62L73.68 24.7C73.7902 24.9026 73.8486 25.1294 73.85 25.36C73.8832 25.9649 73.7482 26.5672 73.46 27.1C73.3562 27.284 73.204 27.4361 73.02 27.54C72.9487 27.5644 72.8713 27.5644 72.8 27.54C72.74 27.54 72.8 27.54 72.72 27.54L72.61 27.46L72.52 27.35C72.4886 27.317 72.4618 27.28 72.44 27.24C72.37 27.1183 72.3098 26.9913 72.26 26.86C72.134 26.517 72.0664 26.1553 72.06 25.79C72.06 25.33 71.14 25.01 71.15 25.58L71.1 25.62Z" fill="black"/>
<path d="M74.61 24.3599C75.5002 25.2589 76.273 26.2669 76.91 27.3599C76.9728 27.4674 77.0665 27.5534 77.1788 27.607C77.2912 27.6605 77.4171 27.6789 77.54 27.6599C77.5897 27.6421 77.6346 27.6129 77.671 27.5747C77.7075 27.5365 77.7345 27.4904 77.7501 27.4399C77.7656 27.3895 77.7692 27.3361 77.7605 27.284C77.7518 27.2319 77.7311 27.1826 77.7 27.1399C77.0155 25.9783 76.1928 24.9038 75.25 23.9399C75.09 23.7799 74.81 23.6399 74.6 23.7799C74.39 23.9199 74.47 24.1999 74.6 24.3499L74.61 24.3599Z" fill="black"/>
<path d="M76 27.59C76.5798 26.1208 77.0706 24.6181 77.47 23.09C77.58 22.63 76.71 22.16 76.57 22.67C76.1786 24.2025 75.691 25.7088 75.11 27.18C74.94 27.61 75.81 28.08 76 27.59Z" fill="black"/>
</svg>
