<svg width="94" height="65" viewBox="0 0 94 65" fill="none" xmlns="http://www.w3.org/2000/svg">
<path d="M5.86004 17.1001C6.04004 22.9001 6.49004 28.6801 7.21004 34.4401C7.55004 37.1501 17.49 36.6601 17.21 34.4401C16.49 28.6801 16.04 22.9001 15.86 17.1001C15.78 14.5501 5.78004 14.6401 5.86004 17.1001Z" fill="white"/>
<path d="M1.10953e-05 14.11C0.940011 26.7767 1.57334 39.4634 1.90001 52.17C1.97001 54.72 11.97 54.64 11.9 52.17C11.58 39.5034 10.9467 26.8167 10 14.11C9.81001 11.48 -0.169989 11.75 1.10953e-05 14.11Z" fill="white"/>
<path d="M8.45999 16.0101C9.27999 28.7834 9.77332 41.5668 9.93999 54.3601C9.93999 56.8701 19.94 56.8501 19.94 54.3601C19.78 41.5601 19.2867 28.7768 18.46 16.0101C18.29 13.3901 8.30999 13.6301 8.45999 16.0101Z" fill="white"/>
<path d="M14 18.6001L15.44 54.6001C15.55 57.1701 25.54 57.0401 25.44 54.6001L24 18.6001C23.9 16.0301 13.91 16.1701 14 18.6001Z" fill="white"/>
<path d="M19.74 18.3301C19.54 31.2501 19.7467 44.1667 20.36 57.0801C20.48 59.6701 30.47 59.5001 30.36 57.0801C29.7534 44.1667 29.5467 31.2501 29.74 18.3301C29.74 15.8701 19.74 15.7701 19.74 18.3301Z" fill="white"/>
<path d="M26.18 20.2401C25.9867 33.2934 26.0167 46.3468 26.27 59.4001C26.32 61.9301 36.32 61.8901 36.27 59.4001C36.0234 46.3468 35.9934 33.2934 36.18 20.2401C36.18 17.7801 26.18 17.6801 26.18 20.2401Z" fill="white"/>
<path d="M31.2 21.47C31.0667 34.31 31.41 47.1334 32.23 59.94C32.39 62.55 42.38 62.32 42.23 59.94C41.41 47.1267 41.0667 34.3034 41.2 21.47C41.2 19 31.2 18.92 31.2 21.47Z" fill="white"/>
<path d="M37.19 23.3801C37.0634 35.7534 37.4034 48.1267 38.21 60.5001C38.38 63.1201 48.37 62.8701 48.21 60.5001C47.4034 48.1267 47.0634 35.7534 47.19 23.3801C47.19 20.9101 37.19 20.8301 37.19 23.3801Z" fill="white"/>
<path d="M43.14 24.6101C43.0467 36.8301 43.4333 49.0668 44.3 61.3201C44.48 63.9401 54.46 63.6901 54.3 61.3201C53.4333 49.1001 53.0467 36.8634 53.14 24.6101C53.14 22.1301 43.14 22.0701 43.14 24.6101Z" fill="white"/>
<path d="M48.36 24.8801C48.64 36.5801 49.1867 48.2668 50 59.9401C50.19 62.5701 60.17 62.3101 60 59.9401C59.16 48.2734 58.6 36.5834 58.32 24.8701C58.26 22.3301 48.26 22.3901 48.32 24.8701L48.36 24.8801Z" fill="white"/>
<path d="M55.44 24.7401C55.76 35.9734 56.6133 47.1668 58 58.3201C58.32 61.0301 68.27 60.5601 68 58.3201C66.6667 47.1668 65.83 35.9734 65.49 24.7401C65.42 22.1901 55.42 22.2801 55.49 24.7401H55.44Z" fill="white"/>
<path d="M60.1 24.5601C63.1667 23.9867 66.2467 23.4801 69.34 23.0401C70.34 22.9001 73.62 22.5601 72.84 20.8801C72.13 19.3701 67.84 19.5101 66.68 19.6601L66.12 19.7301C65.12 19.8601 61.85 20.2201 62.63 21.8901C63.33 23.4001 67.63 23.2601 68.78 23.1101L69.34 23.0401L66.68 19.6601C62.8 20.2134 58.9267 20.8401 55.06 21.5401C53.9 21.7501 51.54 22.7001 53.26 23.9301C54.98 25.1601 58.17 24.9301 60.1 24.5601Z" fill="white"/>
<path d="M61.71 22.1C61.4777 31.6375 62.0127 41.1783 63.31 50.63C63.68 53.36 73.61 52.82 73.31 50.63C72.0127 41.1783 71.4777 31.6375 71.71 22.1C71.77 19.66 61.78 19.52 61.71 22.1Z" fill="white"/>
<path d="M67.26 19.13C67.38 30.51 67.96 41.87 69 53.21C69.25 55.87 79.21 55.52 79 53.21C77.94 41.8767 77.35 30.5167 77.23 19.13C77.23 16.61 67.23 16.62 67.23 19.13H67.26Z" fill="white"/>
<path d="M71.76 17.9401C72.4267 28.7934 73.3767 39.6101 74.61 50.3901C74.92 53.0901 84.87 52.6501 84.61 50.3901C83.3634 39.5835 82.4134 28.7668 81.76 17.9401C81.6 15.3301 71.61 15.5501 71.76 17.9401Z" fill="white"/>
<path d="M77.32 15.61L76.85 50.94C76.85 53.4 86.85 53.5 86.85 50.94L87.32 15.65C87.32 13.19 77.32 13.1 77.32 15.65V15.61Z" fill="white"/>
<path d="M55.15 28.8501C57.3 26.5701 62.4 26.0201 65.35 25.0501L75.53 21.7101C78.11 20.8601 89.73 18.8701 89.64 15.5001C89.58 12.9801 80.17 12.9701 79.64 15.5001C78.5112 21.1202 77.6702 26.7942 77.12 32.5001C76.82 35.3601 76.56 38.2301 76.29 41.0901C76.09 43.0901 76.44 47.4601 75.29 49.0901C74.14 50.7201 70.18 51.4401 68.42 52.0301C66.02 52.8301 63.6 53.5301 61.18 54.2701C56.3334 55.6652 51.6159 57.4752 47.08 59.6801L56.4 60.5701C56.6419 51.5845 56.358 42.5925 55.55 33.6401C55.32 30.9801 45.35 31.3201 45.55 33.6401C46.3582 42.5925 46.642 51.5845 46.4 60.5701C46.33 63.4101 54.4 62.1001 55.72 61.4501C61 58.8801 66.63 57.3401 72.25 55.6001C75.76 54.5101 82.67 53.4001 84.91 50.1001C86 48.4901 85.82 45.7701 86 43.9401C86.3 41.0801 86.56 38.2201 86.83 35.3501C87.4103 28.6746 88.3483 22.0351 89.64 15.4601H79.64C79.64 16.4601 62.64 21.1001 61.06 21.6201C56.24 23.2101 49.06 24.0801 45.51 27.8801C44.25 29.2101 53.15 30.9301 55.15 28.8101V28.8501Z" fill="white"/>
<path d="M1.24999 15.74C0.969827 23.3877 1.26063 31.0456 2.11999 38.65C2.71999 44.58 2.42999 49.65 8.45999 52.28C14.66 55.03 21.72 55.61 28.37 56.49L52.09 59.65C53.24 59.8 57.78 59.97 58.24 58.42C58.75 56.69 55.9 56.42 54.75 56.27L35.75 53.75C29.58 52.93 22.29 52.87 16.57 50.22C11.34 47.8 12.18 39.85 11.74 34.83C11.1302 28.486 10.9598 22.1075 11.23 15.74C11.34 13.36 1.35999 13.11 1.22999 15.74H1.24999Z" fill="white"/>
<path d="M7.82 14.64C25.72 16.16 42.82 21.64 60.09 26.36C62.18 26.92 65.09 27.36 67.16 26.36C68.58 25.65 69.28 24.46 67.16 23.88C48.45 18.81 29.9 12.94 10.48 11.27C9.3 11.17 4.8 10.94 4.33 12.49C3.86 14.04 6.66 14.55 7.82 14.64Z" fill="white"/>
<path d="M14.07 11.94C32.7367 15.8333 51.3534 19.8834 69.92 24.09C71.41 24.43 75.67 24.9 76.76 23.46C77.85 22.02 76.69 21.46 74.96 21.07C56.38 16.8567 37.7634 12.8133 19.11 8.94002C17.6 8.63002 13.37 8.12002 12.27 9.57002C11.17 11.02 12.32 11.57 14.07 11.96V11.94Z" fill="white"/>
<path d="M23 9.87009C38.9067 13.4301 54.7034 17.4301 70.39 21.8701C72.46 22.4601 75.39 22.8701 77.46 21.8701C78.9 21.1601 79.56 20.0001 77.46 19.4001C61.1133 14.7334 44.6434 10.5368 28.05 6.81009C26.55 6.47009 22.29 5.99009 21.2 7.43009C20.11 8.87009 21.27 9.43009 23 9.83009V9.87009Z" fill="white"/>
<path d="M26.94 8.30011C42.7024 11.1212 58.2549 15.0102 73.49 19.9401C75.49 20.5901 78.58 20.9401 80.56 19.9401C82.06 19.1901 82.56 18.1201 80.56 17.4601C64.6677 12.3055 48.4437 8.23609 32 5.28011C30.47 5.01011 26.28 4.43011 25.16 5.91011C24.04 7.39011 25.16 7.99011 26.96 8.30011H26.94Z" fill="white"/>
<path d="M32.1 6.84009C48.0333 10.6934 63.8867 14.9234 79.66 19.5301C81.72 20.1401 84.72 20.5301 86.73 19.5301C88.18 18.8101 88.82 17.6701 86.73 17.0601C70.31 12.2401 53.7833 7.82676 37.15 3.82009C35.67 3.46009 31.38 3.02009 30.31 4.45009C29.24 5.88009 30.39 6.45009 32.1 6.84009Z" fill="white"/>
<path d="M34.25 4.42006C51.34 7.94006 68 12.9401 84.68 18.0001C86.68 18.6301 89.76 19.0001 91.75 18.0001C93.22 17.2701 93.82 16.1601 91.75 15.5301C74.42 10.2501 57.06 5.03006 39.3 1.40006C37.79 1.09006 33.56 0.570058 32.46 2.03006C31.36 3.49006 32.46 4.03006 34.25 4.42006Z" fill="white"/>
<path d="M84 11.1801C69.55 7.42006 54.72 4.09006 39.85 2.34006C37.5014 1.91198 35.0873 2.00759 32.78 2.62006C30.46 3.42006 28.65 5.24006 26.44 6.31006C20.54 9.20006 13.85 10.1001 7.80999 12.6501C4.47999 14.0601 8.20999 15.4101 10.01 15.5801C24.7268 16.9747 39.3031 19.5836 53.59 23.3801C56.34 24.1101 64.82 21.9901 58.59 20.3801C43.5075 16.398 28.1219 13.6687 12.59 12.2201L14.8 15.1501C19.77 13.0601 25 11.9401 30 10.2201C31.9927 9.53198 33.9314 8.69633 35.8 7.72006C39.29 5.86006 38.12 5.82006 41.8 6.41006C54.32 8.41006 66.7166 11.0067 78.99 14.2001C81.73 14.9201 90.23 12.7901 83.99 11.2001L84 11.1801Z" fill="white"/>
<path d="M20.41 57.5101C28.41 59.4034 36.45 61.0367 44.53 62.4101C46.83 62.8001 49.12 63.1701 51.43 63.5201C52.07 63.6201 51.9 62.7901 51.43 62.7101C43.31 61.4767 35.24 59.9901 27.22 58.2501C24.94 57.7501 22.67 57.2501 20.41 56.7001C19.77 56.5501 19.94 57.4001 20.41 57.5101Z" fill="black"/>
<path d="M2.12 44.79C2.38343 46.2681 2.30475 47.787 1.89 49.23C1.72 50.12 1.44 51.31 2.17 52.04C2.54545 52.3591 3.01756 52.5423 3.51 52.56C3.96277 52.6908 4.4042 52.858 4.83 53.06L6.2 53.56C7.94 54.17 9.71 54.73 11.48 55.23C13.58 55.82 15.69 56.35 17.8 56.89C18.44 57.05 18.27 56.2 17.8 56.08C13.4073 55.0511 9.07695 53.7724 4.83 52.25C4.372 52.0265 3.893 51.849 3.4 51.72C3.15 51.72 2.88 51.72 2.71 51.52C2.41 51.12 2.71 50.21 2.71 49.79C3.16347 48.1623 3.24549 46.4536 2.95 44.79C2.83 44.33 1.95 44.19 2.07 44.79H2.12Z" fill="black"/>
<path d="M50 53.14L50.55 63.67C50.55 64.13 51.55 64.46 51.47 63.89L50.91 53.35C50.91 52.89 49.97 52.57 50 53.14Z" fill="black"/>
<path d="M2.12001 44.14C2.05511 44.3741 2.03475 44.6183 2.06001 44.86C2.09197 45.1343 2.16972 45.4014 2.29001 45.65C2.3547 45.7631 2.45238 45.8538 2.57001 45.91C2.68331 45.9496 2.80671 45.9496 2.92001 45.91C2.96858 45.8984 3.01299 45.8736 3.0483 45.8383C3.08361 45.803 3.10843 45.7585 3.12001 45.71C3.14406 45.6041 3.12613 45.493 3.07001 45.4L3.12001 45.51C3.06656 45.3776 3.02637 45.2403 3.00001 45.1V45.2C2.97981 45.0339 2.97981 44.866 3.00001 44.7V44.8C2.9953 44.7167 2.9953 44.6332 3.00001 44.55C3.02341 44.4259 3.00337 44.2975 2.94328 44.1864C2.88319 44.0753 2.78669 43.9883 2.67001 43.94C2.48001 43.86 2.18001 43.85 2.12001 44.1V44.14Z" fill="black"/>
<path d="M2.80003 44.94L2.58003 44.79L2.53003 44.71L2.46003 44.5C2.44544 44.4613 2.44544 44.4187 2.46003 44.38C2.55095 44.3436 2.65208 44.3418 2.74424 44.375C2.83639 44.4082 2.91318 44.474 2.96003 44.56C2.96003 44.62 2.96003 44.63 2.96003 44.56C2.96003 44.49 2.96003 44.63 2.96003 44.56C2.96003 44.49 2.96003 44.49 2.96003 44.45C2.96003 44.23 2.96003 44.02 2.96003 43.8C2.96003 43.38 2.96003 42.96 2.96003 42.53C2.96003 42.1 2.06003 41.74 2.05003 42.32C2.03099 42.9871 2.04768 43.6547 2.10003 44.32C2.10788 44.498 2.16312 44.6706 2.26003 44.82C2.33403 44.9206 2.43031 45.0028 2.54134 45.06C2.65236 45.1173 2.77513 45.1481 2.90003 45.15C2.99575 45.1533 3.09003 45.126 3.16917 45.0721C3.2483 45.0181 3.30816 44.9403 3.34003 44.85C3.37061 44.7148 3.35345 44.5732 3.29147 44.4493C3.22949 44.3253 3.12651 44.2267 3.00003 44.17C2.83003 44.08 2.51003 44.1 2.45003 44.33C2.42589 44.4567 2.44791 44.5879 2.51211 44.6998C2.57631 44.8117 2.67844 44.8969 2.80003 44.94Z" fill="black"/>
<path d="M42.38 51.5701L51.21 53.5701C51.85 53.7201 51.68 52.8701 51.21 52.7601L42.38 50.7601C41.74 50.6101 41.91 51.4501 42.38 51.5701Z" fill="black"/>
<path d="M14.53 45.15L37 50.31C37.63 50.46 37.46 49.62 37 49.5L14.5 44.34C13.87 44.19 14.04 45.04 14.5 45.15H14.53Z" fill="black"/>
<path d="M3 42.4901L9.79 44.0601C9.8389 44.0774 9.89119 44.0829 9.94263 44.0763C9.99408 44.0696 10.0432 44.0509 10.0861 44.0217C10.1289 43.9924 10.1643 43.9535 10.1893 43.9081C10.2143 43.8626 10.2283 43.8119 10.23 43.7601C10.2175 43.6345 10.1652 43.5163 10.0806 43.4227C9.996 43.3291 9.88364 43.2651 9.76 43.2401L3 41.6801C2.9511 41.6628 2.89881 41.6572 2.84736 41.6639C2.79592 41.6705 2.74677 41.6893 2.70391 41.7185C2.66105 41.7477 2.62568 41.7866 2.60068 41.8321C2.57567 41.8775 2.56174 41.9282 2.56 41.9801C2.56 42.2201 2.81 42.4401 3.03 42.4901H3Z" fill="black"/>
<path d="M53.5 63.27C62.06 59.9767 70.7033 56.9134 79.43 54.08C81.9433 53.2734 84.4667 52.4767 87 51.69C87.54 51.53 87 50.75 86.52 50.88C77.72 53.5867 69.0067 56.5234 60.38 59.69C57.92 60.5967 55.46 61.52 53 62.46C52.47 62.67 53 63.46 53.48 63.27H53.5Z" fill="black"/>
<path d="M82.46 44.49C83.95 43.96 85.46 43.41 86.91 42.86C87.44 42.65 86.91 41.86 86.43 42.05C84.95 42.5967 83.47 43.1367 81.99 43.67C81.44 43.87 81.99 44.67 82.46 44.49Z" fill="black"/>
<path d="M62.45 50.73C67.6833 49.3234 72.8667 47.7567 78 46.03C78.54 45.85 78 45.03 77.52 45.22C72.3867 46.94 67.2133 48.5134 62 49.94C61.45 50.09 62 50.87 62.47 50.75L62.45 50.73Z" fill="black"/>
<path d="M52.13 53.3C54.07 52.85 56 52.39 58 51.94C58.55 51.8 58 51.02 57.53 51.13C55.59 51.6233 53.6467 52.0866 51.7 52.52C51.46 52.58 51.45 52.86 51.55 53.04C51.6128 53.1474 51.7064 53.2335 51.8188 53.287C51.9312 53.3405 52.057 53.359 52.18 53.34L52.13 53.3Z" fill="black"/>
<path d="M87.28 49.05C87.09 46.54 86.86 44.05 86.57 41.54C86.57 41.11 85.62 40.75 85.65 41.33C85.7967 44.73 86.0467 48.1234 86.4 51.51C86.4 51.96 87.4 52.28 87.32 51.72C86.9733 48.3267 86.7233 44.9334 86.57 41.54L85.65 41.33C85.9367 43.83 86.1733 46.3334 86.36 48.84C86.36 49.29 87.36 49.62 87.28 49.05Z" fill="black"/>
<path d="M2.48999 42.83C3.10999 42.83 2.70999 41.99 2.22999 41.99C1.74999 41.99 2.01999 42.83 2.48999 42.83Z" fill="black"/>
<path d="M42.11 47.03C45.21 47.58 48.32 48.03 51.43 48.56C52.07 48.65 51.9 47.82 51.43 47.74C48.3233 47.2733 45.2167 46.7666 42.11 46.22C41.47 46.11 41.64 46.94 42.11 47.03Z" fill="black"/>
<path d="M50 38.17L50.55 48.71C50.55 49.17 51.55 49.49 51.47 48.92L50.91 38.39C50.91 37.93 49.97 37.61 50 38.17Z" fill="black"/>
<path d="M42.38 36.6L51.21 38.6C51.85 38.74 51.68 37.9 51.21 37.79L42.38 35.79C41.74 35.64 41.91 36.49 42.38 36.6Z" fill="black"/>
<path d="M3 27.53L9.1 28.94C9.32 28.94 9.54 28.88 9.54 28.64C9.52754 28.5145 9.47518 28.3962 9.39059 28.3026C9.306 28.209 9.19364 28.145 9.07 28.12L3 26.72C2.78 26.67 2.56 26.72 2.56 27.01C2.57245 27.1355 2.62482 27.2538 2.70941 27.3474C2.794 27.4409 2.90636 27.505 3.03 27.53H3Z" fill="black"/>
<path d="M82.41 38.16L87 36.73C87.54 36.56 87 35.78 86.52 35.92L81.95 37.35C81.4 37.52 81.95 38.35 82.42 38.16H82.41Z" fill="black"/>
<path d="M53.5 48.31L57.94 46.62C58.48 46.42 57.94 45.62 57.46 45.81L53 47.5C52.47 47.7 53 48.5 53.48 48.31H53.5Z" fill="black"/>
<path d="M82 29.69C83.6467 29.11 85.29 28.51 86.93 27.89C87.46 27.69 86.93 26.89 86.45 27.08C84.81 27.7 83.1667 28.3 81.52 28.88C80.98 29.07 81.52 29.88 82 29.69Z" fill="black"/>
<path d="M52.13 38.33C54.07 37.94 56 37.42 58 36.94C58.55 36.8 58 36.01 57.52 36.13C55.59 36.61 53.65 37.13 51.7 37.52C51.46 37.57 51.45 37.85 51.55 38.03C51.6106 38.1395 51.7039 38.2272 51.8169 38.281C51.9299 38.3348 52.0568 38.352 52.18 38.33H52.13Z" fill="black"/>
<path d="M87.28 34.09C87.09 31.58 86.86 29.09 86.57 26.58C86.57 26.14 85.62 25.78 85.65 26.37C85.7967 29.77 86.0467 33.16 86.4 36.54C86.4 37 87.4 37.32 87.32 36.75C86.9733 33.37 86.7233 29.98 86.57 26.58L85.65 26.37C85.94 28.86 86.18 31.37 86.36 33.87C86.36 34.33 87.36 34.65 87.28 34.09Z" fill="black"/>
<path d="M2.48999 27.87C3.10999 27.87 2.70999 27.03 2.22999 27.03C1.74999 27.03 2.01999 27.87 2.48999 27.87Z" fill="black"/>
<path d="M42.11 31.34C45.21 31.88 48.31 32.39 51.43 32.86C52.07 32.96 51.9 32.13 51.43 32.05C48.31 31.58 45.21 31.05 42.11 30.53C41.47 30.41 41.63 31.25 42.11 31.34Z" fill="black"/>
<path d="M30.91 28.94C33.11 29.41 35.3 29.94 37.48 30.5C37.5289 30.5173 37.5812 30.5229 37.6326 30.5162C37.6841 30.5095 37.7332 30.4908 37.7761 30.4616C37.8189 30.4324 37.8543 30.3935 37.8793 30.348C37.9043 30.3026 37.9183 30.2519 37.92 30.2C37.9027 30.0773 37.8485 29.9628 37.7645 29.8717C37.6806 29.7806 37.5709 29.7172 37.45 29.69C35.27 29.11 33.08 28.6 30.88 28.13C30.8311 28.1127 30.7788 28.1072 30.7274 28.1138C30.6759 28.1205 30.6268 28.1392 30.5839 28.1684C30.5411 28.1977 30.5057 28.2366 30.4807 28.282C30.4557 28.3275 30.4417 28.3782 30.44 28.43C30.4573 28.5527 30.5115 28.6672 30.5955 28.7583C30.6794 28.8494 30.7891 28.9128 30.91 28.94Z" fill="black"/>
<path d="M13.78 25.16C18.78 26.51 23.87 27.47 28.93 28.51C29.57 28.64 29.4 27.8 28.93 27.7C23.87 26.65 18.78 25.7 13.78 24.35C13.15 24.18 13.32 25.03 13.78 25.16Z" fill="black"/>
<path d="M2.12 13.94C1.79212 15.3589 1.76827 16.8312 2.05 18.26C2.15 18.73 3.05 18.87 2.93 18.26C2.67543 16.9631 2.69929 15.627 3 14.34C3.01375 14.2196 2.98804 14.0979 2.92673 13.9933C2.86542 13.8887 2.77182 13.8068 2.66 13.76C2.48 13.68 2.16 13.68 2.11 13.92L2.12 13.94Z" fill="black"/>
<path d="M50 22.48L50.55 33.02C50.55 33.48 51.55 33.8 51.47 33.23L50.91 22.69C50.91 22.23 49.97 21.91 50 22.48Z" fill="black"/>
<path d="M2.12001 13.48C2.05511 13.7142 2.03475 13.9584 2.06001 14.2C2.09063 14.4746 2.16844 14.7419 2.29001 14.99C2.3547 15.1032 2.45238 15.1939 2.57001 15.25C2.68233 15.2951 2.8077 15.2951 2.92001 15.25C2.96858 15.2385 3.01299 15.2136 3.0483 15.1783C3.08361 15.143 3.10843 15.0986 3.12001 15.05C3.14406 14.9441 3.12613 14.833 3.07001 14.74L3.12001 14.85C3.06549 14.718 3.02526 14.5806 3.00001 14.44V14.55C2.98006 14.3806 2.98006 14.2094 3.00001 14.04V14.14C2.99668 14.0734 2.99668 14.0067 3.00001 13.94C3.01376 13.8196 2.98805 13.6979 2.92674 13.5933C2.86543 13.4887 2.77183 13.4069 2.66001 13.36C2.47001 13.29 2.17001 13.27 2.11001 13.52L2.12001 13.48Z" fill="black"/>
<path d="M2.79998 14.24L2.57998 14.08L2.52998 14L2.45998 13.79C2.44702 13.7511 2.44702 13.709 2.45998 13.67C2.45998 13.67 2.45998 13.62 2.45998 13.67C2.55091 13.6336 2.65204 13.6318 2.74419 13.665C2.83635 13.6982 2.91313 13.764 2.95998 13.85C2.95998 13.91 2.95998 13.92 2.95998 13.85C2.95998 13.78 2.95998 13.77 2.95998 13.73C2.95998 13.52 2.95998 13.3 2.95998 13.08C2.95998 12.66 2.95998 12.24 2.95998 11.81C2.95998 11.38 2.05998 11.03 2.04998 11.6C2.03082 12.2671 2.04751 12.9347 2.09998 13.6C2.10784 13.778 2.16307 13.9506 2.25998 14.1C2.33401 14.2014 2.43006 14.2847 2.54091 14.3436C2.65177 14.4025 2.77454 14.4355 2.89998 14.44C2.99475 14.4391 3.0871 14.41 3.1654 14.3567C3.2437 14.3033 3.30445 14.2279 3.33998 14.14C3.35789 14.0138 3.33444 13.8852 3.27315 13.7735C3.21186 13.6617 3.11602 13.5728 2.99998 13.52C2.82998 13.42 2.50998 13.44 2.44998 13.67C2.43579 13.7906 2.46261 13.9123 2.5261 14.0158C2.5896 14.1192 2.68608 14.1982 2.79998 14.24Z" fill="black"/>
<path d="M39 20.13L51.21 22.94C51.85 23.09 51.68 22.25 51.21 22.13L39 19.32C38.36 19.17 38.53 20.01 39 20.13Z" fill="black"/>
<path d="M32.19 18.56L37 19.66C37.0489 19.6773 37.1012 19.6829 37.1527 19.6762C37.2041 19.6695 37.2532 19.6508 37.2961 19.6216C37.339 19.5924 37.3743 19.5535 37.3993 19.508C37.4243 19.4626 37.4383 19.4119 37.44 19.36C37.4227 19.2373 37.3685 19.1228 37.2845 19.0317C37.2006 18.9406 37.0909 18.8772 36.97 18.85L32.21 17.75C32.1611 17.7327 32.1088 17.7271 32.0574 17.7338C32.0059 17.7405 31.9568 17.7592 31.9139 17.7884C31.8711 17.8176 31.8357 17.8566 31.8107 17.902C31.7857 17.9475 31.7718 17.9982 31.77 18.05C31.7873 18.1727 31.8415 18.2872 31.9255 18.3783C32.0094 18.4694 32.1192 18.5328 32.24 18.56H32.19Z" fill="black"/>
<path d="M3.00002 11.83L29.48 17.94C30.11 18.08 29.94 17.24 29.48 17.12L3.00002 11.02C2.36002 10.87 2.53002 11.72 3.00002 11.83Z" fill="black"/>
<path d="M37.49 0.830011L75 9.47001L85.71 11.94C86.35 12.09 86.18 11.25 85.71 11.13L48.17 2.49001L37.46 0.0200113C36.82 -0.129989 36.99 0.720011 37.46 0.830011H37.49Z" fill="black"/>
<path d="M81.77 22.67C83.51 22.12 85.24 21.57 86.99 21.04C87.53 20.87 86.99 20.04 86.51 20.23C84.77 20.76 83.03 21.31 81.3 21.86C80.75 22.04 81.3 22.81 81.77 22.67Z" fill="black"/>
<path d="M68.17 27.22C71.39 26.1 74.6233 25.0067 77.87 23.94C78.42 23.77 77.87 22.99 77.4 23.13C74.1533 24.2033 70.9167 25.3 67.69 26.42C67.15 26.61 67.69 27.42 68.17 27.23V27.22Z" fill="black"/>
<path d="M62.4 29.28L65.6 28.13C66.14 27.94 65.6 27.13 65.12 27.32L61.93 28.47C61.39 28.67 61.93 29.47 62.4 29.28Z" fill="black"/>
<path d="M53.5 32.61L57.31 31.16C57.85 30.96 57.31 30.16 56.83 30.35L53 31.8C52.47 32.01 53 32.8 53.48 32.61H53.5Z" fill="black"/>
<path d="M52.13 22.64C61.3586 20.5532 70.4712 17.983 79.43 14.94C81.93 14.08 84.43 13.18 86.91 12.25C87.44 12.05 86.91 11.25 86.43 11.44C77.6061 14.746 68.6135 17.5833 59.49 19.94C56.8834 20.6066 54.27 21.2433 51.65 21.85C51.1 21.97 51.65 22.76 52.13 22.66V22.64Z" fill="black"/>
<path d="M3.38002 11.64C12.6086 9.55318 21.7212 6.98297 30.68 3.93996C33.18 3.07996 35.68 2.17996 38.16 1.24996C38.69 1.04996 38.16 0.249957 37.68 0.439957C28.8561 3.74604 19.8635 6.58333 10.74 8.93996C8.13336 9.60662 5.52002 10.2366 2.90002 10.83C2.35002 10.95 2.90002 11.74 3.38002 11.64Z" fill="black"/>
<path d="M87.28 18.39C87.09 15.89 86.86 13.39 86.57 10.89C86.57 10.45 85.62 10.09 85.65 10.67C85.7967 14.07 86.0467 17.4633 86.4 20.85C86.4 21.3 87.4 21.62 87.32 21.06C86.97 17.68 86.72 14.28 86.57 10.89L85.65 10.67C85.9367 13.17 86.1733 15.6733 86.36 18.18C86.36 18.64 87.36 18.96 87.28 18.39Z" fill="black"/>
<path d="M2.48999 12.18C3.10999 12.18 2.70999 11.34 2.22999 11.34C1.74999 11.34 2.01999 12.18 2.48999 12.18Z" fill="black"/>
<path d="M8.41999 19.23C8.74666 29.27 9.20333 39.3034 9.78999 49.33C9.78999 49.79 10.73 50.11 10.7 49.54C10.12 39.54 9.66666 29.51 9.33999 19.45C9.33999 18.99 8.39999 18.66 8.41999 19.23Z" fill="black"/>
<path d="M13.7 42.72L13.94 51.06L14.5 50.8L11 49.17C10.4 48.89 10.28 49.66 10.79 49.9L14.26 51.53C14.49 51.63 14.83 51.53 14.82 51.27L14.62 42.94C14.62 42.48 13.69 42.16 13.7 42.73V42.72Z" fill="black"/>
<path d="M13.1 21.18L13.26 26.74C13.26 27.2 14.19 27.52 14.17 26.95L14 21.39C14 20.93 13.07 20.61 13.08 21.18H13.1Z" fill="black"/>
<path d="M9.99999 19.72L12 20.23L13 20.48L13.22 20.54H13.37C13.32 20.54 13.37 20.54 13.37 20.54C13.37 20.54 13.37 20.62 13.37 20.54C13.37 20.46 13.28 20.36 13.37 20.29C12.95 20.6 13.65 21.29 14.03 21.02C14.41 20.75 14.16 20.24 13.85 20.02C13.4762 19.787 13.0567 19.637 12.62 19.58L9.92999 18.94C9.88109 18.9226 9.8288 18.9171 9.77736 18.9238C9.72591 18.9304 9.67676 18.9491 9.6339 18.9784C9.59104 19.0076 9.55568 19.0465 9.53067 19.092C9.50567 19.1374 9.49173 19.1881 9.48999 19.24C9.50445 19.3637 9.55771 19.4797 9.64214 19.5713C9.72657 19.6629 9.83784 19.7255 9.95999 19.75L9.99999 19.72Z" fill="black"/>
<path d="M36.31 25.7301C38.31 26.2001 40.31 26.6001 42.4 26.9101C43.05 27.0101 42.88 26.1701 42.4 26.1001C40.36 25.7801 38.33 25.3867 36.31 24.9201C36.2611 24.9027 36.2088 24.8972 36.1574 24.9039C36.1059 24.9105 36.0568 24.9292 36.0139 24.9585C35.971 24.9877 35.9357 25.0266 35.9107 25.0721C35.8857 25.1175 35.8717 25.1682 35.87 25.2201C35.8873 25.3427 35.9415 25.4573 36.0255 25.5484C36.1094 25.6395 36.2191 25.7028 36.34 25.7301H36.31Z" fill="black"/>
<path d="M41.46 27.24L41.55 56.99C41.55 57.45 42.47 57.78 42.47 57.2L42.38 27.45C42.38 26.99 41.46 26.67 41.46 27.24Z" fill="black"/>
<path d="M36.83 48.64V56.23C36.83 56.69 37.74 57.02 37.74 56.45V48.85C37.74 48.39 36.82 48.06 36.82 48.64H36.83Z" fill="black"/>
<path d="M36.74 25.16V32.06C36.74 32.53 37.66 32.85 37.66 32.28V25.37C37.66 24.91 36.74 24.58 36.75 25.16H36.74Z" fill="black"/>
<path d="M37.94 56.84C38.9675 57.401 40.073 57.8055 41.22 58.04C41.43 58.04 41.67 57.98 41.66 57.74C41.6471 57.6157 41.5943 57.4989 41.5096 57.407C41.425 57.3151 41.3128 57.253 41.19 57.23C40.1382 57.0136 39.1263 56.6358 38.19 56.11C38.01 56.01 37.7 56.04 37.64 56.27C37.58 56.5 37.79 56.74 37.98 56.84H37.94Z" fill="black"/>
<path d="M13.37 27.53C21.79 29.49 30.2334 31.2566 38.7 32.83L38.23 32.31L38.1 48.46L38.55 48.16C29.9315 46.8066 21.4535 44.6745 13.22 41.79C12.61 41.58 12.47 42.33 13.01 42.52C21.3213 45.4302 29.8798 47.5791 38.58 48.94C38.79 48.94 39.02 48.94 39.02 48.64L39.14 32.5C39.1247 32.3755 39.0713 32.2588 38.9872 32.1657C38.9031 32.0727 38.7923 32.0078 38.67 31.98C30.2234 30.4333 21.78 28.68 13.34 26.72C12.7 26.57 12.87 27.42 13.34 27.53H13.37Z" fill="black"/>
<path d="M12.86 26.5C11.54 26.13 11.53 27.82 11.47 28.67C11.36 30.21 11.3 31.76 11.29 33.31C11.2766 36.3614 11.4536 39.4107 11.82 42.44C11.88 42.89 12.82 43.21 12.74 42.65C12.4267 40.0913 12.2498 37.5176 12.21 34.94C12.21 33.68 12.21 32.42 12.21 31.16C12.21 30.51 12.27 29.86 12.31 29.16C12.31 28.85 12.31 27.06 12.84 27.22C13.37 27.38 13.3 26.54 12.84 26.41L12.86 26.5Z" fill="black"/>
<path d="M15.56 34.9401C15.362 35.1913 15.2375 35.4926 15.2004 35.8104C15.1634 36.1281 15.2151 36.4499 15.35 36.7401C15.4928 37.0427 15.7297 37.2909 16.0253 37.4477C16.3209 37.6046 16.6593 37.6615 16.99 37.6101C17.2474 37.5398 17.4819 37.403 17.6697 37.2134C17.8575 37.0239 17.9921 36.7882 18.06 36.5301C18.1511 36.2647 18.176 35.9811 18.1324 35.704C18.0889 35.4269 17.9782 35.1646 17.81 34.9401C17.6751 34.7836 17.5051 34.6613 17.314 34.5831C17.1228 34.5049 16.9158 34.473 16.71 34.4901C16.3565 34.5382 16.0164 34.6573 15.71 34.8401C15.5 34.9501 15.59 35.2701 15.71 35.4101C15.785 35.5023 15.8879 35.5678 16.0033 35.5967C16.1187 35.6255 16.2403 35.6162 16.35 35.5701L16.51 35.4801H16.59C16.6945 35.4285 16.8055 35.3915 16.92 35.3701H17H17.07C17.07 35.3701 17.18 35.3701 17.07 35.3701C17.14 35.3701 17.07 35.3701 17.07 35.3701H17.13H17.08C17 35.3701 17.02 35.3101 17.08 35.3701C17.14 35.4301 17.03 35.3001 17.08 35.3701V35.4301C17.08 35.4301 17.08 35.5201 17.08 35.5401C17.08 35.4801 17.08 35.5401 17.08 35.6001C17.085 35.69 17.085 35.7801 17.08 35.8701C17.08 35.8701 17.08 35.9701 17.08 35.8701C17.08 35.7701 17.08 35.8701 17.08 35.8701C17.0845 35.9233 17.0845 35.9768 17.08 36.0301C17.059 36.1196 17.0288 36.2067 16.99 36.2901C16.99 36.2901 16.99 36.2101 16.99 36.2901L16.91 36.4201L16.82 36.5301C16.82 36.5301 16.88 36.5301 16.82 36.5301L16.71 36.6101H16.66C16.72 36.6101 16.66 36.6101 16.66 36.6101H16.6H16.54C16.45 36.6101 16.61 36.6101 16.54 36.6101H16.46C16.41 36.6101 16.46 36.6101 16.46 36.6101H16.4H16.29C16.29 36.6101 16.38 36.6701 16.29 36.6101H16.23C16.23 36.6101 16.32 36.7001 16.23 36.6101V36.5601V36.4901C16.23 36.4901 16.23 36.5501 16.23 36.4901V36.4101C16.23 36.4101 16.23 36.3101 16.23 36.4101V36.3501C16.23 36.3501 16.23 36.2801 16.23 36.2501C16.2245 36.227 16.2245 36.2031 16.23 36.1801C16.23 36.1801 16.23 36.0601 16.23 36.1301C16.248 36.0128 16.2816 35.8984 16.33 35.7901C16.33 35.7901 16.33 35.6901 16.33 35.7301L16.45 35.5501C16.74 35.1601 15.94 34.5501 15.64 34.9601L15.56 34.9401Z" fill="black"/>
<path d="M17.11 36.49C17.21 37.29 17.59 38.29 18.56 38.27C19.33 38.27 19.81 37.38 20.04 36.75C20.3205 36.0339 20.3422 35.2424 20.1012 34.512C19.8602 33.7817 19.3716 33.1585 18.72 32.75C18.1056 32.3568 17.3653 32.2104 16.6476 32.3402C15.9298 32.4701 15.2877 32.8665 14.85 33.45C14.3338 34.0953 13.9673 34.8472 13.7771 35.6513C13.5868 36.4555 13.5776 37.2919 13.75 38.1C14.19 39.79 16.16 41.24 17.84 40.1C18.28 39.81 17.57 39.1 17.18 39.37C16.9587 39.5006 16.7102 39.5783 16.454 39.5972C16.1977 39.616 15.9406 39.5755 15.7025 39.4787C15.4645 39.382 15.252 39.2316 15.0816 39.0393C14.9112 38.847 14.7874 38.618 14.72 38.37C14.408 37.2167 14.5549 35.9873 15.13 34.94C15.3064 34.4734 15.606 34.0634 15.9969 33.7535C16.3878 33.4435 16.8554 33.2454 17.35 33.18C17.8522 33.1782 18.3368 33.3654 18.7073 33.7045C19.0779 34.0435 19.3073 34.5096 19.35 35.01C19.3965 35.592 19.275 36.1751 19 36.69C18.8726 36.9766 18.6684 37.2223 18.41 37.4C18.09 37.54 18.06 36.91 18.03 36.71C18.012 36.5865 17.9577 36.4712 17.874 36.3786C17.7903 36.286 17.681 36.2204 17.56 36.19C17.37 36.19 17.08 36.25 17.12 36.49H17.11Z" fill="black"/>
<path d="M23.11 35.94C22.77 37.4357 22.6088 38.9664 22.63 40.5C22.63 40.96 23.55 41.28 23.55 40.71C23.5277 39.2374 23.6787 37.7673 24 36.33C24.0149 36.2107 23.9895 36.0899 23.9279 35.9866C23.8663 35.8834 23.7721 35.8037 23.66 35.76C23.48 35.68 23.16 35.67 23.11 35.92V35.94Z" fill="black"/>
<path d="M24.13 36.44C24.1895 36.3942 24.2531 36.3541 24.32 36.32H24.37H24.5H24.6H24.8C24.87 36.32 24.73 36.32 24.8 36.32H24.92H25.03C25.0464 36.3242 25.0636 36.3242 25.08 36.32L25.15 36.38C25.04 36.3 25.15 36.38 25.15 36.38C25.15 36.38 25.23 36.47 25.15 36.38C25.07 36.29 25.15 36.38 25.15 36.38L25.2 36.45C25.2 36.45 25.2 36.56 25.2 36.5C25.2 36.44 25.2 36.5 25.2 36.56V36.65C25.2 36.59 25.2 36.65 25.2 36.65V36.76C25.2 36.76 25.2 36.85 25.2 36.76C25.2046 36.8299 25.2046 36.9001 25.2 36.97C25.2 37.04 25.2 36.97 25.2 36.97C25.1837 37.0054 25.1636 37.039 25.14 37.07L25.08 37.15C25.08 37.15 25.01 37.23 25.08 37.15V37.2L25 37.26L24.8 37.38H24.75C24.66 37.43 24.8 37.38 24.75 37.38H24.62L24.32 37.46L24.01 37.51H23.91H23.74C23.6891 37.5098 23.6387 37.5203 23.5921 37.541C23.5456 37.5617 23.504 37.592 23.47 37.63C23.4455 37.6762 23.4327 37.7277 23.4327 37.78C23.4327 37.8323 23.4455 37.8838 23.47 37.93C23.5099 38.0495 23.5865 38.1535 23.6888 38.2271C23.7911 38.3007 23.914 38.3402 24.04 38.34C24.5178 38.3179 24.9881 38.213 25.43 38.03C25.8042 37.8669 26.1014 37.5662 26.26 37.19C26.2731 36.876 26.1817 36.5665 26 36.31C25.8877 36.1009 25.7341 35.9168 25.5484 35.769C25.3627 35.6211 25.1489 35.5126 24.92 35.45C24.6804 35.3866 24.4296 35.3771 24.1859 35.422C23.9421 35.467 23.7113 35.5653 23.51 35.71C23.4696 35.7457 23.4372 35.7895 23.415 35.8386C23.3928 35.8878 23.3813 35.9411 23.3813 35.995C23.3813 36.0489 23.3928 36.1022 23.415 36.1513C23.4372 36.2005 23.4696 36.2443 23.51 36.28C23.5867 36.3731 23.6913 36.439 23.8085 36.4678C23.9256 36.4966 24.0489 36.4869 24.16 36.44H24.13Z" fill="black"/>
<path d="M24.33 38.8001L24.69 38.6901C24.7962 38.676 24.9038 38.676 25.01 38.6901H25.12C25.12 38.6901 25.31 38.7501 25.21 38.6901C25.11 38.6301 25.3 38.6901 25.31 38.7401C25.32 38.7901 25.24 38.6901 25.31 38.7401L25.36 38.7901L25.41 38.8401V38.9001C25.41 38.9001 25.49 39.0601 25.41 38.9001C25.4311 38.945 25.4479 38.9919 25.46 39.0401V39.1501C25.46 39.0601 25.46 39.2101 25.46 39.2201V39.3701C25.46 39.3001 25.46 39.4501 25.46 39.4601C25.3603 39.8268 25.1242 40.1417 24.8 40.3401C24.6448 40.4536 24.4616 40.5227 24.27 40.5401H24.2C24.15 40.5401 24.15 40.5401 24.2 40.5401H24.13C24.08 40.5401 24.13 40.5401 24.13 40.5401H24.08C24.0206 40.4296 23.9274 40.3409 23.8141 40.2869C23.7008 40.233 23.5733 40.2166 23.45 40.2401C23.4006 40.2566 23.3557 40.2847 23.3192 40.3219C23.2827 40.3591 23.2555 40.4045 23.2399 40.4542C23.2243 40.504 23.2207 40.5568 23.2294 40.6082C23.2381 40.6596 23.2589 40.7082 23.29 40.7501C23.4404 40.9937 23.6622 41.1849 23.9253 41.2977C24.1884 41.4104 24.4799 41.4392 24.76 41.3801C25.2412 41.2676 25.6666 40.9876 25.96 40.5901C26.2356 40.2387 26.3645 39.7944 26.32 39.3501C26.2916 39.108 26.2118 38.8748 26.0859 38.6661C25.96 38.4574 25.7909 38.2781 25.59 38.1401C25.3114 37.9566 24.9835 37.8624 24.65 37.8701C24.3467 37.8904 24.0474 37.9509 23.76 38.0501C23.7114 38.0677 23.6676 38.0966 23.6322 38.1343C23.5967 38.172 23.5707 38.2175 23.5561 38.2671C23.5415 38.3168 23.5387 38.3691 23.5481 38.42C23.5575 38.4709 23.5787 38.5189 23.61 38.5601C23.6728 38.6675 23.7665 38.7536 23.8788 38.8071C23.9912 38.8606 24.117 38.8791 24.24 38.8601L24.33 38.8001Z" fill="black"/>
<path d="M27.34 37.49C26.9453 38.534 26.9453 39.6861 27.34 40.73C27.5312 41.282 27.8578 41.7771 28.29 42.17C28.5265 42.3639 28.815 42.4834 29.1193 42.5137C29.4236 42.5439 29.73 42.4835 30 42.34C30.463 42.0551 30.8156 41.6215 31 41.11C31.2535 40.574 31.4157 39.9995 31.48 39.41C31.61 38.41 31.56 36.82 30.48 36.24C30.217 36.1049 29.9241 36.0387 29.6286 36.0474C29.3331 36.0561 29.0446 36.1396 28.79 36.29C28.268 36.6435 27.8502 37.1304 27.58 37.7C27.33 38.12 28.14 38.7 28.39 38.29C28.73 37.71 29.24 36.79 30.04 36.89C30.38 36.89 30.45 37.31 30.51 37.59C30.5934 38.0349 30.6202 38.4885 30.59 38.94C30.5542 39.8157 30.2388 40.6568 29.69 41.34C29.49 41.57 29.07 41.84 28.78 41.62C28.5088 41.3598 28.312 41.0318 28.21 40.67C27.8797 39.7831 27.8797 38.8069 28.21 37.92C28.38 37.48 27.51 37.01 27.32 37.51L27.34 37.49Z" fill="black"/>
<path d="M32.2 37.5L35.31 42.75C35.3706 42.8594 35.4639 42.9472 35.5769 43.001C35.6898 43.0548 35.8168 43.0719 35.94 43.05C35.9901 43.0342 36.0356 43.0064 36.0724 42.9689C36.1092 42.9314 36.1362 42.8854 36.151 42.835C36.1659 42.7846 36.168 42.7313 36.1574 42.6799C36.1468 42.6284 36.1236 42.5804 36.09 42.54L33 37.28C32.9394 37.1705 32.846 37.0828 32.7331 37.029C32.6201 36.9752 32.4932 36.9581 32.37 36.98C32.3211 36.9989 32.2773 37.0289 32.2419 37.0675C32.2066 37.1062 32.1806 37.1525 32.1661 37.2028C32.1516 37.2531 32.1489 37.3062 32.1582 37.3577C32.1676 37.4093 32.1887 37.458 32.22 37.5H32.2Z" fill="black"/>
<path d="M32.65 42.14C33.8633 40.2866 35.12 38.4733 36.42 36.7C36.71 36.3 35.91 35.7 35.62 36.11C34.2867 37.89 33.0267 39.7033 31.84 41.55C31.57 41.96 32.38 42.55 32.65 42.14Z" fill="black"/>
<path d="M52.22 48.44L54.72 47.7L54.25 46.88L51.25 48.02C50.71 48.22 51.25 48.96 51.73 48.83L57.48 47.07C58.03 46.9 57.48 46.07 57 46.26L51.25 48.02L51.73 48.83L54.73 47.7C55.27 47.49 54.73 46.75 54.26 46.88L51.76 47.63C51.21 47.79 51.76 48.63 52.23 48.44H52.22Z" fill="black"/>
<path d="M2.13999 12.6501L1.80999 17.0601L1.64999 19.1701C1.52582 19.829 1.48884 20.5015 1.53999 21.1701C1.65999 21.7201 2.21999 21.9101 2.67999 22.1001C3.30999 22.3601 3.93999 22.6001 4.57999 22.8201C5.9118 23.2894 7.27522 23.6636 8.65999 23.9401C9.29999 24.0601 9.12999 23.2201 8.65999 23.1301C7.57258 22.9236 6.49757 22.6565 5.43999 22.3301C4.90999 22.1601 4.36999 21.9801 3.84999 21.7801C3.29935 21.6404 2.77561 21.4107 2.29999 21.1001L2.51999 21.3901C2.44998 21.0806 2.44998 20.7595 2.51999 20.4501L2.59999 19.4501L2.75999 17.2401L3.08999 12.9301C3.08999 12.4701 2.21999 12.1401 2.16999 12.7201L2.13999 12.6501Z" fill="black"/>
<path d="M2.25002 28.0801C2.14002 30.2301 1.25002 32.3301 1.44002 34.5001C1.49542 35.4942 1.89491 36.4382 2.57002 37.1701C3.57027 38.1064 4.82729 38.7227 6.18002 38.9401C6.82002 39.0801 6.65002 38.2401 6.18002 38.1301C4.96711 37.9869 3.84233 37.4245 3.00002 36.5401C2.50592 35.8416 2.26915 34.9935 2.33002 34.1401C2.33002 32.1401 3.05002 30.2701 3.15002 28.2901C3.15002 27.8301 2.27002 27.5101 2.24002 28.0801H2.25002Z" fill="black"/>
<path d="M1.89003 42.1C1.94003 43.94 2.00003 45.78 2.09003 47.62C2.09003 48.08 3.03003 48.4 3.00003 47.83C2.92003 45.99 2.85003 44.15 2.81003 42.31C2.81003 41.85 1.88003 41.53 1.89003 42.1Z" fill="black"/>
<path d="M1.83004 26.94C1.77671 30.3934 1.77671 33.8467 1.83004 37.3C1.83004 37.76 2.76004 38.08 2.75004 37.51C2.75004 34.06 2.75004 30.6 2.75004 27.15C2.75004 26.69 1.84004 26.36 1.84004 26.94H1.83004Z" fill="black"/>
<path d="M2.14998 11.7201C2.04998 14.9401 1.97332 18.1601 1.91998 21.3801C1.91998 21.8501 2.81998 22.1701 2.83998 21.6001C2.89998 18.3701 2.98998 15.1501 3.06998 11.9301C3.06998 11.4701 2.16998 11.1401 2.14998 11.7201Z" fill="black"/>
<path d="M2.28 37.9401C4.78239 38.2374 7.23798 38.8454 9.59 39.7501C9.63889 39.7674 9.69119 39.7729 9.74263 39.7663C9.79407 39.7596 9.84322 39.7409 9.88608 39.7117C9.92894 39.6824 9.96431 39.6435 9.98932 39.5981C10.0143 39.5526 10.0283 39.5019 10.03 39.4501C10.03 39.1901 9.78 39.0001 9.56 38.9401C7.12662 38.0197 4.58636 37.4115 2 37.1301C1.94889 37.1291 1.8983 37.1404 1.85245 37.163C1.80661 37.1856 1.76684 37.2188 1.73649 37.26C1.70613 37.3011 1.68607 37.3489 1.67798 37.3994C1.66989 37.4498 1.67401 37.5015 1.69 37.5501C1.73314 37.6684 1.81023 37.7714 1.91163 37.8461C2.01302 37.9208 2.1342 37.9639 2.26 37.9701L2.28 37.9401Z" fill="black"/>
<path d="M57 26.86C57.2267 36.4466 57.2267 46.04 57 55.64C57 56.1 57.9 56.43 57.92 55.85C58.1733 46.2633 58.1733 36.67 57.92 27.07C57.92 26.61 56.99 26.28 57.01 26.86H57Z" fill="black"/>
<path d="M58.81 26.83L61.62 26.36C61.86 26.36 61.88 26.01 61.77 25.84C61.7069 25.7334 61.6128 25.6486 61.5003 25.5968C61.3877 25.545 61.2621 25.5287 61.14 25.55L58.34 26.01C58.1 26.01 58.08 26.36 58.18 26.53C58.2457 26.6348 58.3398 26.7186 58.4514 26.7717C58.5629 26.8249 58.6874 26.8451 58.81 26.83Z" fill="black"/>
<path d="M61.89 24.45C62.51 24.45 62.11 23.61 61.63 23.61C61.15 23.61 61.42 24.45 61.89 24.45Z" fill="black"/>
<path d="M61.52 48.03C61.52 50.0967 61.4767 52.1667 61.39 54.24C61.39 54.7 62.29 55.03 62.3 54.45C62.36 52.38 62.41 50.31 62.43 48.24C62.43 47.78 61.52 47.46 61.52 48.03Z" fill="black"/>
<path d="M58.69 26.8501L61.74 25.7801L61.04 25.2601C61.14 27.1001 61.22 28.9401 61.29 30.7801C61.29 31.2401 62.23 31.5601 62.21 30.9901C62.14 29.1501 62.05 27.3101 61.96 25.4801C61.949 25.3996 61.9221 25.3221 61.8808 25.2522C61.8394 25.1822 61.7846 25.1213 61.7194 25.0728C61.6542 25.0244 61.5799 24.9895 61.5011 24.9701C61.4222 24.9507 61.3402 24.9473 61.26 24.9601L58.26 26.0401C57.72 26.2301 58.26 27.0401 58.74 26.8501H58.69Z" fill="black"/>
<path d="M58.13 56.09L62.34 54.19C62.57 54.08 62.45 53.75 62.34 53.61C62.2621 53.5186 62.1569 53.4547 62.0398 53.4277C61.9228 53.4007 61.8001 53.412 61.69 53.46L57.48 55.36C57.26 55.46 57.38 55.8 57.48 55.93C57.554 56.0237 57.657 56.0902 57.7728 56.1191C57.8886 56.1481 58.0107 56.1378 58.12 56.09H58.13Z" fill="black"/>
<path d="M77.49 43.14C77.4367 45.44 77.3567 47.74 77.25 50.04C77.25 50.5 78.14 50.83 78.17 50.25C78.2833 47.95 78.36 45.65 78.4 43.35C78.4 42.89 77.5 42.57 77.49 43.14Z" fill="black"/>
<path d="M77 21.76C77.08 22.91 77.15 24.06 77.21 25.2C77.2267 25.324 77.2806 25.44 77.3644 25.5328C77.4483 25.6256 77.5583 25.6909 77.68 25.72C77.89 25.72 78.14 25.66 78.12 25.42C78.06 24.27 77.99 23.12 77.92 21.97C77.9014 21.8478 77.8467 21.734 77.763 21.6431C77.6792 21.5523 77.5702 21.4885 77.45 21.46C77.24 21.41 76.99 21.51 77 21.76Z" fill="black"/>
<path d="M78.78 21.47L80.91 20.47C81.12 20.38 81.03 20.08 80.91 19.95C80.8471 19.855 80.7576 19.7806 80.6527 19.7361C80.5478 19.6917 80.4321 19.6791 80.32 19.7L77.32 20.7C76.77 20.88 77.32 21.7 77.79 21.51L80.79 20.51L80.22 19.74L78.09 20.74C77.87 20.84 77.98 21.18 78.09 21.31C78.1679 21.4014 78.2732 21.4654 78.3903 21.4924C78.5073 21.5194 78.6299 21.508 78.74 21.46L78.78 21.47Z" fill="black"/>
<path d="M81.81 40.64C81.87 43.64 81.89 46.57 81.9 49.53C81.9 49.99 82.81 50.31 82.81 49.74C82.81 46.78 82.7834 43.8167 82.73 40.85C82.73 40.39 81.8 40.07 81.81 40.64Z" fill="black"/>
<path d="M81 19.47C81.3667 25.8366 81.62 32.21 81.76 38.59C81.76 39.05 82.69 39.38 82.68 38.8C82.54 32.4333 82.2833 26.06 81.91 19.68C81.91 19.22 80.91 18.9 81 19.47Z" fill="black"/>
<path d="M79.07 50.19L81.39 49.54L80.91 48.73C79.9583 49.126 78.9407 49.3397 77.91 49.36C77.8582 49.3566 77.8062 49.3662 77.7591 49.3881C77.7119 49.41 77.671 49.4434 77.6402 49.4852C77.6093 49.5271 77.5894 49.576 77.5824 49.6275C77.5754 49.679 77.5815 49.7314 77.6 49.78C77.642 49.8991 77.7188 50.0028 77.8204 50.0776C77.9221 50.1525 78.0439 50.1952 78.17 50.2C79.2653 50.1816 80.3474 49.9577 81.36 49.54C81.89 49.31 81.36 48.6 80.88 48.73L78.57 49.38C78.5206 49.3965 78.4757 49.4246 78.4392 49.4618C78.4027 49.499 78.3755 49.5444 78.3599 49.5942C78.3442 49.6439 78.3407 49.6967 78.3494 49.7481C78.3581 49.7995 78.3789 49.8482 78.41 49.89C78.4738 49.9965 78.5676 50.0818 78.6797 50.1352C78.7918 50.1886 78.9171 50.2076 79.04 50.19H79.07Z" fill="black"/>
<path d="M60.44 31.74C66.5678 29.3651 72.8445 27.3942 79.23 25.84C79.78 25.71 79.23 24.92 78.75 25.03C72.3765 26.5842 66.1128 28.5585 60 30.94C59.46 31.15 60 31.94 60.47 31.75L60.44 31.74Z" fill="black"/>
<path d="M59.77 32.46C59.77 37.92 59.8834 43.3833 60.11 48.85C60.11 49.3099 61.05 49.6299 61.03 49.0599C60.7834 43.5999 60.67 38.1366 60.69 32.67C60.69 32.21 59.77 31.89 59.77 32.46Z" fill="black"/>
<path d="M62.13 49.14C68.1967 46.9466 74.31 44.87 80.47 42.91C81.02 42.74 80.47 41.96 80 42.1C73.84 44.1 67.7233 46.1766 61.65 48.33C61.11 48.53 61.65 49.33 62.13 49.14Z" fill="black"/>
<path d="M79.77 26.5801L79.67 26.1001C79.59 25.7201 78.73 25.4501 78.77 25.9901C79.2034 31.4101 79.49 36.8367 79.63 42.2701C79.63 42.7301 80.56 43.0501 80.55 42.4801C80.4034 37.0467 80.1167 31.6201 79.69 26.2001L78.79 26.1001L78.89 26.5801C78.99 27.0501 79.89 27.1901 79.77 26.5801Z" fill="black"/>
<path d="M63.37 39.74C63.5278 39.9054 63.7267 40.0258 63.9463 40.0891C64.166 40.1524 64.3985 40.1561 64.62 40.1C64.8015 40.0587 64.9679 39.9675 65.1004 39.8368C65.2329 39.7061 65.3263 39.5409 65.37 39.36C65.4018 39.1351 65.3783 38.9059 65.3017 38.6922C65.2251 38.4784 65.0977 38.2864 64.9303 38.1329C64.763 37.9794 64.5609 37.8688 64.3413 37.8108C64.1217 37.7528 63.8914 37.7491 63.67 37.8C63.4465 37.8678 63.247 37.9979 63.0947 38.175C62.9424 38.3521 62.8437 38.5689 62.81 38.8C62.7705 38.8996 62.7705 39.0105 62.81 39.11C62.8784 39.2239 62.9794 39.3145 63.1 39.37C63.21 39.4089 63.33 39.4089 63.44 39.37C63.53 39.37 63.64 39.28 63.65 39.17C63.6614 39.0825 63.6885 38.9978 63.73 38.92L63.68 39.01C63.7352 38.912 63.8024 38.8213 63.88 38.74L63.81 38.81C63.8908 38.7299 63.9858 38.6655 64.09 38.62H63.99L64.18 38.56C64.25 38.56 64.1 38.56 64.18 38.56H64.33C64.19 38.56 64.33 38.56 64.33 38.56C64.38 38.56 64.22 38.48 64.33 38.56C64.3571 38.5708 64.3811 38.5879 64.4 38.61C64.4 38.61 64.32 38.52 64.35 38.56C64.35 38.56 64.43 38.67 64.35 38.56C64.27 38.45 64.35 38.56 64.35 38.56C64.35 38.63 64.35 38.47 64.35 38.56V38.65C64.35 38.72 64.35 38.57 64.35 38.65C64.355 38.7166 64.355 38.7834 64.35 38.85V38.94C64.3394 39.0123 64.3192 39.083 64.29 39.15V39.06C64.2516 39.1346 64.2009 39.2022 64.14 39.26L64.22 39.19C64.1514 39.2514 64.0739 39.3019 63.99 39.34H64.09H63.9H63.75C63.75 39.34 63.87 39.34 63.75 39.34C63.68 39.34 63.85 39.41 63.81 39.34C63.77 39.27 63.67 39.22 63.81 39.34C63.7194 39.2457 63.6056 39.1768 63.48 39.14C63.3772 39.0998 63.2629 39.0998 63.16 39.14C63.1196 39.1757 63.0872 39.2195 63.065 39.2687C63.0429 39.3178 63.0314 39.3711 63.0314 39.425C63.0314 39.4789 63.0429 39.5322 63.065 39.5814C63.0872 39.6305 63.1196 39.6743 63.16 39.71L63.37 39.74Z" fill="black"/>
<path d="M65.67 39.39C66.0642 39.2453 66.3932 38.9637 66.597 38.5965C66.8008 38.2293 66.8657 37.8011 66.78 37.39C66.6466 36.9246 66.3738 36.5113 65.9983 36.2055C65.6229 35.8998 65.1628 35.7164 64.68 35.68C64.2053 35.6564 63.7329 35.7609 63.3124 35.9826C62.8919 36.2043 62.5388 36.535 62.29 36.94C61.7451 37.8394 61.5763 38.9171 61.82 39.94C61.873 40.215 61.9916 40.4732 62.1657 40.6925C62.3398 40.9119 62.5642 41.086 62.82 41.2C63.3775 41.3251 63.9492 41.3756 64.52 41.35C64.5711 41.351 64.6217 41.3397 64.6676 41.3171C64.7134 41.2945 64.7532 41.2613 64.7835 41.2201C64.8139 41.179 64.8339 41.1312 64.842 41.0807C64.8501 41.0303 64.846 40.9786 64.83 40.93C64.7858 40.8124 64.7084 40.7102 64.6072 40.6356C64.5061 40.5611 64.3855 40.5175 64.26 40.51C63.89 40.51 63.51 40.51 63.14 40.51C63.0321 40.4987 62.9309 40.4525 62.8515 40.3786C62.7721 40.3046 62.719 40.2069 62.7 40.1C62.5168 39.3693 62.5837 38.5983 62.89 37.91C63.025 37.5909 63.2313 37.3069 63.4931 37.0799C63.7548 36.8528 64.065 36.6887 64.4 36.6C64.6654 36.5325 64.9458 36.5547 65.1972 36.6633C65.4487 36.7718 65.6571 36.9606 65.79 37.2C65.8451 37.3372 65.8725 37.4839 65.8706 37.6317C65.8688 37.7795 65.8376 37.9255 65.7791 38.0612C65.7205 38.197 65.6357 38.3198 65.5294 38.4225C65.4232 38.5253 65.2976 38.606 65.16 38.66C64.62 38.84 65.16 39.66 65.64 39.48L65.67 39.39Z" fill="black"/>
<path d="M68.3 35.38C68.4 36.75 68.46 38.12 68.46 39.48C68.46 39.95 69.38 40.27 69.37 39.7C69.37 38.33 69.32 36.96 69.21 35.6C69.1933 35.476 69.1395 35.36 69.0556 35.2672C68.9717 35.1744 68.8617 35.1091 68.74 35.08C68.54 35.08 68.28 35.14 68.3 35.38Z" fill="black"/>
<path d="M69.57 35.55C69.719 35.4257 69.8881 35.3276 70.07 35.26H70.2H70.28H70.46H70.53L70.62 35.32C70.62 35.32 70.67 35.43 70.62 35.32C70.57 35.21 70.62 35.43 70.62 35.32C70.6445 35.3981 70.6445 35.4819 70.62 35.56C70.464 35.8989 70.2312 36.1968 69.94 36.43C69.636 36.6971 69.3001 36.9255 68.94 37.11C68.73 37.22 68.82 37.55 68.94 37.68C69.0129 37.7751 69.1158 37.8426 69.232 37.8717C69.3483 37.9008 69.4709 37.8896 69.58 37.84C69.9371 37.6663 70.2727 37.4515 70.58 37.2C70.9015 36.9438 71.1785 36.6363 71.4 36.29C71.5148 36.1018 71.5756 35.8855 71.5756 35.665C71.5756 35.4445 71.5148 35.2282 71.4 35.04C71.2753 34.8547 71.111 34.6995 70.9191 34.5853C70.7272 34.4712 70.5123 34.4011 70.29 34.38C69.7966 34.3569 69.3122 34.5172 68.93 34.83C68.51 35.14 69.22 35.83 69.6 35.56L69.57 35.55Z" fill="black"/>
<path d="M69.87 37.9401L70.11 37.8101L70.25 37.7501L70.5 37.6901C70.43 37.6901 70.5 37.6901 70.56 37.6901H70.72H70.83H70.89C70.95 37.6901 70.8 37.6201 70.89 37.6901C70.95 37.6901 70.82 37.6101 70.89 37.6901C70.96 37.7701 70.89 37.6901 70.89 37.6901C70.8848 37.7131 70.8848 37.737 70.89 37.7601C70.89 37.8301 70.89 37.7601 70.89 37.7601C70.89 37.7601 70.89 37.7601 70.89 37.8201C70.89 37.8801 70.89 37.8201 70.89 37.8201V37.9701C70.89 38.0201 70.89 37.9701 70.89 37.9701C70.8943 37.9932 70.8943 38.0169 70.89 38.0401C70.8946 38.1066 70.8946 38.1735 70.89 38.2401C70.89 38.2401 70.89 38.3401 70.89 38.2401L70.83 38.3401L70.7 38.5101L70.64 38.5701C70.71 38.5001 70.64 38.5701 70.64 38.5701C70.5772 38.6191 70.5103 38.6626 70.44 38.7001H70.38C70.38 38.7001 70.32 38.7001 70.38 38.7001C70.44 38.7001 70.38 38.7001 70.38 38.7001H70.29L70 38.9401H69.86C69.74 38.9401 69.86 38.9401 69.86 38.9401H69.25C69.1989 38.9391 69.1483 38.9504 69.1025 38.973C69.0566 38.9956 69.0168 39.0288 68.9865 39.07C68.9561 39.1111 68.9361 39.1589 68.928 39.2094C68.9199 39.2598 68.924 39.3115 68.94 39.3601C68.9808 39.4799 69.0572 39.5843 69.1591 39.6594C69.261 39.7345 69.3835 39.7766 69.51 39.7801C69.9338 39.8294 70.3633 39.7741 70.7608 39.6189C71.1583 39.4637 71.5117 39.2135 71.79 38.8901C71.8831 38.6982 71.9301 38.4873 71.9274 38.274C71.9246 38.0608 71.8721 37.8511 71.774 37.6618C71.6759 37.4724 71.535 37.3086 71.3624 37.1833C71.1899 37.058 70.9904 36.9747 70.78 36.9401C70.2298 36.8521 69.6669 36.9812 69.21 37.3001C69 37.4201 69.08 37.7201 69.21 37.8701C69.2879 37.9615 69.3932 38.0254 69.5102 38.0524C69.6273 38.0794 69.7499 38.0681 69.86 38.0201L69.87 37.9401Z" fill="black"/>
<path d="M72.1 35.62C72.0961 36.4793 72.4176 37.3082 73 37.94C73.2911 38.2516 73.6939 38.435 74.12 38.45C74.3113 38.446 74.4995 38.4011 74.672 38.3183C74.8445 38.2355 74.9973 38.1168 75.12 37.97C75.6127 37.3008 75.8535 36.4793 75.8 35.65C75.8187 35.221 75.69 34.7986 75.4353 34.453C75.1806 34.1073 74.8153 33.8592 74.4 33.75C74.1724 33.7158 73.94 33.737 73.7223 33.8119C73.5047 33.8868 73.3084 34.013 73.15 34.18C72.8398 34.5386 72.6142 34.9624 72.49 35.42C72.34 35.86 73.22 36.34 73.39 35.84C73.56 35.34 73.77 34.69 74.33 34.57C74.3962 34.5588 74.4638 34.5588 74.53 34.57C74.59 34.57 74.53 34.57 74.61 34.62L74.68 34.7C74.7902 34.9026 74.8486 35.1294 74.85 35.36C74.8832 35.9649 74.7482 36.5672 74.46 37.1C74.3562 37.284 74.204 37.4361 74.02 37.54C73.9487 37.5644 73.8713 37.5644 73.8 37.54C73.74 37.54 73.8 37.54 73.72 37.54L73.61 37.46L73.52 37.35C73.4886 37.317 73.4618 37.28 73.44 37.24C73.37 37.1183 73.3098 36.9913 73.26 36.86C73.134 36.517 73.0664 36.1553 73.06 35.79C73.06 35.33 72.14 35.01 72.15 35.58L72.1 35.62Z" fill="black"/>
<path d="M75.61 34.36C76.5001 35.259 77.2729 36.267 77.91 37.36C77.9728 37.4675 78.0664 37.5536 78.1788 37.6071C78.2911 37.6606 78.417 37.679 78.54 37.66C78.5897 37.6422 78.6345 37.613 78.671 37.5748C78.7074 37.5366 78.7345 37.4905 78.75 37.44C78.7655 37.3896 78.7691 37.3362 78.7604 37.2841C78.7517 37.2321 78.731 37.1827 78.7 37.14C78.0154 35.9784 77.1928 34.9039 76.25 33.94C76.09 33.78 75.81 33.64 75.6 33.78C75.39 33.92 75.47 34.2 75.6 34.35L75.61 34.36Z" fill="black"/>
<path d="M77 37.59C77.5798 36.1208 78.0706 34.6181 78.47 33.09C78.58 32.63 77.71 32.16 77.57 32.67C77.1786 34.2025 76.691 35.7088 76.11 37.18C75.94 37.61 76.81 38.08 77 37.59Z" fill="black"/>
<path d="M26.58 12.75L26.87 12.46L26.07 11.87L23.62 14.31L24.42 14.9C25.5762 13.5238 26.8547 12.2553 28.24 11.11C28.2807 11.0735 28.3132 11.0287 28.3355 10.9788C28.3577 10.9288 28.3692 10.8747 28.3692 10.82C28.3692 10.7653 28.3577 10.7112 28.3355 10.6613C28.3132 10.6113 28.2807 10.5666 28.24 10.53C28.11 10.39 27.78 10.22 27.59 10.38C26.1417 11.5676 24.803 12.8829 23.59 14.31C23.43 14.49 23.59 14.78 23.77 14.9C23.8558 14.9753 23.9659 15.0168 24.08 15.0168C24.1941 15.0168 24.3043 14.9753 24.39 14.9L26.84 12.46C27.02 12.29 26.84 11.98 26.66 11.87C26.5753 11.7927 26.4647 11.7499 26.35 11.7499C26.2353 11.7499 26.1248 11.7927 26.04 11.87L25.75 12.16C25.57 12.33 25.75 12.64 25.93 12.75C26.0148 12.8273 26.1253 12.8702 26.24 12.8702C26.3547 12.8702 26.4653 12.8273 26.55 12.75H26.58Z" fill="black"/>
<path d="M29 10.94C35.46 10.0267 41.9033 9.02666 48.33 7.93999C48.88 7.85 48.33 7.06 47.85 7.13C41.4166 8.19666 34.9767 9.19666 28.53 10.13C27.98 10.21 28.53 11.01 29 10.95V10.94Z" fill="black"/>
<path d="M47.57 8.28C45.0705 11.8603 42.3203 15.2588 39.34 18.45C39.02 18.8 39.81 19.45 40.15 19.04C43.1241 15.8461 45.8709 12.4478 48.37 8.87C48.66 8.47 47.85 7.87 47.57 8.28Z" fill="black"/>
<path d="M47 8.13997L37.38 12.66L35 13.77C34.49 14.01 34.13 14.26 33.59 13.99C33.2402 13.7811 32.906 13.5471 32.59 13.29L28.21 10.23C27.71 9.87997 27.27 10.47 27.78 10.83L32.55 14.16C33.08 14.53 33.72 15.16 34.44 15.04C34.823 14.9161 35.1917 14.7518 35.54 14.55L36.91 13.94L47.65 8.86997C48.11 8.64997 47.42 7.93997 46.99 8.13997H47Z" fill="black"/>
<path d="M48.17 10.52C52.57 11.5533 56.9034 12.7933 61.17 14.24C61.2189 14.2573 61.2712 14.2628 61.3227 14.2561C61.3741 14.2495 61.4233 14.2308 61.4661 14.2015C61.509 14.1723 61.5443 14.1334 61.5693 14.088C61.5944 14.0425 61.6083 13.9918 61.61 13.94C61.61 13.68 61.35 13.5 61.14 13.43C56.86 11.9766 52.5267 10.7366 48.14 9.70995C47.51 9.55995 47.68 10.41 48.14 10.52H48.17Z" fill="black"/>
<path d="M60.4 14.06C58.62 16.58 56.7633 19.0367 54.83 21.43C54.53 21.81 55.33 22.43 55.64 22.03C57.5667 19.63 59.42 17.1733 61.2 14.66C61.49 14.26 60.68 13.66 60.4 14.06Z" fill="black"/>
<path d="M59.84 13.84C56.2267 15.5 52.59 17.1 48.93 18.64L49.56 18.94C48.4 16.5866 47.2834 14.2166 46.21 11.83C46 11.36 45.16 11.45 45.43 12.04C46.5 14.43 47.62 16.8 48.77 19.15C48.87 19.34 49.19 19.54 49.4 19.45C53.1334 17.89 56.8367 16.2633 60.51 14.57C60.97 14.36 60.27 13.65 59.84 13.84Z" fill="black"/>
<path d="M61.05 16.76C63.1315 17.309 65.2684 17.6209 67.42 17.69C67.4719 17.6934 67.5238 17.6837 67.5709 17.6618C67.6181 17.6399 67.659 17.6066 67.6898 17.5647C67.7207 17.5229 67.7406 17.474 67.7476 17.4225C67.7546 17.371 67.7486 17.3185 67.73 17.27C67.688 17.1509 67.6112 17.0472 67.5096 16.9723C67.4079 16.8974 67.2862 16.8548 67.16 16.85C65.079 16.7786 63.0127 16.4734 61 15.94C60.9511 15.9226 60.8988 15.9171 60.8474 15.9238C60.7959 15.9304 60.7468 15.9491 60.7039 15.9784C60.6611 16.0076 60.6257 16.0465 60.6007 16.092C60.5757 16.1374 60.5617 16.1881 60.56 16.24C60.5759 16.3632 60.6297 16.4784 60.7138 16.5697C60.798 16.6611 60.9085 16.7241 61.03 16.75L61.05 16.76Z" fill="black"/>
<path d="M38 1.32996V2.64996L38.9 2.74996C38.8334 2.50329 38.7734 2.25329 38.72 1.99996C38.72 1.86996 38.66 1.73996 38.64 1.60996C38.62 1.47996 38.64 1.49996 38.64 1.60996C38.64 1.71996 38.64 1.54996 38.64 1.51996V1.31996C38.6229 1.20265 38.5746 1.09212 38.5 0.999957C38.3926 0.890731 38.2519 0.820367 38.1 0.799957C38.0497 0.777326 37.9952 0.765625 37.94 0.765625C37.8849 0.765625 37.8303 0.777326 37.78 0.799957C37.7374 0.828021 37.7029 0.86684 37.6801 0.912492C37.6573 0.958144 37.6469 1.00901 37.65 1.05996C37.7355 1.62931 37.8523 2.1935 38 2.74996C38.0373 2.85968 38.1051 2.95652 38.1954 3.02913C38.2857 3.10174 38.3948 3.14712 38.51 3.15996C38.5555 3.17256 38.6032 3.17428 38.6495 3.16496C38.6957 3.15565 38.7391 3.13556 38.7761 3.10634C38.8131 3.07712 38.8427 3.03958 38.8625 2.99677C38.8823 2.95396 38.8917 2.90709 38.89 2.85996V1.53996C38.875 1.41483 38.8203 1.29781 38.7339 1.20603C38.6475 1.11426 38.534 1.05255 38.41 1.02996C38.2 1.02996 37.97 1.02996 37.97 1.32996H38Z" fill="black"/>
<path d="M15.09 12.94L15.89 11.24L16.3 10.39C16.37 10.23 16.56 9.61997 16.72 9.54997C16.88 9.47997 17.51 9.79997 17.72 9.84997L18.66 10.16L20.43 10.73L27.87 13.12C27.9194 13.1393 27.9728 13.1464 28.0256 13.1407C28.0784 13.135 28.129 13.1166 28.1731 13.0872C28.2173 13.0577 28.2537 13.0181 28.2793 12.9716C28.3048 12.925 28.3188 12.873 28.32 12.82C28.32 12.57 28.06 12.38 27.85 12.31L19.29 9.59997L17.29 8.95997C16.89 8.82997 16.29 8.52997 15.97 8.95997C15.6272 9.46399 15.3547 10.0124 15.16 10.59L14.16 12.59C13.97 13.01 14.83 13.49 15.06 13.01L15.09 12.94Z" fill="black"/>
<path d="M16.62 10.51C17.1289 12.0434 17.7993 13.5184 18.62 14.91C18.6806 15.0195 18.7739 15.1072 18.8869 15.161C18.9999 15.2148 19.1268 15.232 19.25 15.21C19.2986 15.1924 19.3424 15.1635 19.3779 15.1258C19.4133 15.0881 19.4394 15.0426 19.454 14.993C19.4686 14.9433 19.4713 14.8909 19.4619 14.8401C19.4525 14.7892 19.4313 14.7412 19.4 14.7C18.6324 13.3737 18.0088 11.969 17.54 10.51C17.5018 10.3886 17.426 10.2825 17.3235 10.207C17.2211 10.1315 17.0973 10.0905 16.97 10.09C16.9181 10.0866 16.8662 10.0963 16.8191 10.1182C16.7719 10.14 16.731 10.1734 16.7001 10.2153C16.6693 10.2571 16.6494 10.306 16.6424 10.3575C16.6354 10.409 16.6414 10.4615 16.66 10.51H16.62Z" fill="black"/>
<path d="M30.09 7.3L30.36 9.11L31.28 9.32L30.94 7.25C30.88 6.92 30.73 6.47 30.94 6.18C31.1292 6.03254 31.3602 5.94855 31.6 5.94C32.95 5.63 34.36 5.52 35.72 5.32L44.2 4.02L43.52 3.61L44.36 8.25C44.45 8.72 45.36 8.86 45.24 8.25L44.4 3.61C44.3524 3.4736 44.2579 3.35852 44.1334 3.28527C44.0088 3.21202 43.8623 3.18534 43.72 3.21L34.27 4.6L31.93 4.94C31.3892 4.95492 30.8603 5.10259 30.39 5.37C30.2057 5.52533 30.0706 5.73102 30.0013 5.9619C29.9321 6.19278 29.9316 6.43885 30 6.67C30.1 7.49 30.27 8.3 30.4 9.11C30.47 9.55 31.4 9.88 31.32 9.32L31 7.51C30.93 7.06 30 6.74 30.08 7.3H30.09Z" fill="black"/>
<path d="M42.44 4.14004C40.87 5.73004 39.22 7.25004 37.5 8.68004C37.09 9.02004 37.8 9.68004 38.16 9.41004C39.93 7.94004 41.63 6.41004 43.25 4.73004C43.42 4.56004 43.25 4.25004 43.06 4.14004C42.9753 4.06275 42.8647 4.0199 42.75 4.0199C42.6353 4.0199 42.5248 4.06275 42.44 4.14004Z" fill="black"/>
<path d="M31.35 6.66999C32.355 7.41096 33.4223 8.06341 34.54 8.61999C34.72 8.70999 35.02 8.68999 35.09 8.45999C35.16 8.22999 34.94 7.93999 34.75 7.93999C34.24 7.67999 33.75 7.37999 33.26 7.11999C32.77 6.85999 32.26 6.47999 31.79 6.11999C31.62 5.98999 31.31 5.91999 31.16 6.11999C31.01 6.31999 31.16 6.58999 31.35 6.70999V6.66999Z" fill="black"/>
<path d="M56 9.94001L57.33 6.94001L56.5 6.84001C57.31 8.06001 58.96 8.40001 60.26 8.84001C61.9 9.44668 63.5667 10.0367 65.26 10.61C66.95 11.2 68.66 11.77 70.36 12.32L71.53 12.69L72.23 12.91C72.39 12.91 72.7 12.99 72.81 13.1C72.92 13.21 72.97 13.15 72.9 13.26L72.83 13.46C72.7672 13.6703 72.6938 13.8772 72.61 14.08C72.4361 14.5233 72.2392 14.9572 72.02 15.38C71.8 15.81 72.61 16.38 72.83 15.97C73.34 14.97 74.6 12.97 73.1 12.39C72.29 12.05 71.4 11.85 70.57 11.58L67.78 10.67C65.9267 10.0767 64.1067 9.45335 62.32 8.80001L59.57 7.80001C58.85 7.53001 57.75 7.30001 57.3 6.62001C57.12 6.35001 56.63 6.13001 56.46 6.52001L55.13 9.52001C54.94 9.95001 55.81 10.42 56.02 9.94001H56Z" fill="black"/>
<path d="M68.94 13.57L61.05 15.17C60.49 15.28 61.05 16.07 61.52 15.98L69.42 14.38C69.97 14.27 69.42 13.48 68.94 13.57Z" fill="black"/>
</svg>
