<svg width="46" height="46" viewBox="0 0 46 46" fill="none" xmlns="http://www.w3.org/2000/svg">
<g clip-path="url(#clip0_21_20869)">
<path d="M11.5429 20.4111C12.796 20.3432 14.0314 20.0749 15.201 19.6164C15.327 19.5716 15.1432 19.4538 15.0947 19.471C13.9467 19.8505 12.8365 20.3356 11.7785 20.9201C11.6816 20.9546 11.8398 21.0924 11.9139 21.0552L14.326 19.9493C14.4423 19.9079 14.2648 19.777 14.2197 19.8038L11.8367 20.8994L11.972 21.0345C13.0157 20.4603 14.1138 19.9902 15.25 19.6313L15.1437 19.4859C13.987 19.938 12.7663 20.2049 11.5277 20.2764C11.4114 20.3177 11.4847 20.4318 11.5821 20.4295L11.5429 20.4111Z" fill="black"/>
<path d="M17.8944 8.59061L20.603 7.33607C20.7193 7.2947 20.6038 7.18487 20.5485 7.18297C19.1743 7.28126 17.8676 7.82566 16.8311 8.7317C16.7342 8.76617 16.8924 8.90393 16.9568 8.87024L20.0674 7.36489C20.1837 7.32353 20.0096 7.20223 19.9548 7.23248L16.8505 8.72481L16.9728 8.85378C17.9864 7.97048 19.2613 7.43747 20.603 7.33607L20.5485 7.18297L17.8268 8.43139C17.7106 8.47276 17.8881 8.60363 17.9429 8.57337L17.8944 8.59061Z" fill="black"/>
<path d="M18.0446 9.44262C18.1609 9.40125 17.9868 9.27995 17.9383 9.29719C17.8899 9.31442 17.9477 9.47709 18.0446 9.44262Z" fill="black"/>
<path d="M18.9119 10.8372L18.5235 10.3286C18.4997 10.2616 18.3146 10.2628 18.3491 10.3907C19.4531 13.6227 20.7464 16.787 22.2224 19.8675C22.253 19.9536 22.461 19.9551 22.3968 19.8055C20.9181 16.7225 19.6269 13.5536 18.5298 10.3156L18.3554 10.3776L18.7341 10.8897C18.7647 10.9758 18.9784 10.9321 18.9085 10.8277L18.9119 10.8372Z" fill="black"/>
<path d="M9.43752 18.39C8.89798 18.776 9.07049 19.5985 9.28492 20.2013L14.4873 34.5195C14.5943 34.7299 14.6145 34.9737 14.5439 35.2C14.4426 35.3568 14.2963 35.4801 14.124 35.5542L10.0137 37.7169C9.76832 37.811 9.56786 37.9941 9.45343 38.2288C9.40109 38.4316 9.41943 38.6454 9.50549 38.8355C9.99939 40.4402 10.6795 41.9815 11.5324 43.4286C11.6118 43.6082 11.7489 43.7564 11.9225 43.8504C12.1073 43.8966 12.3018 43.8909 12.4843 43.8338C19.9558 41.9036 27.3169 39.5658 34.5336 36.8312L44.5825 33.2566C44.7576 33.2078 44.921 33.124 45.0626 33.0103C45.4112 32.6708 45.2981 32.1074 45.1478 31.6542C44.587 29.9242 43.9293 28.2287 43.2232 26.5504C43.142 26.301 42.9664 26.0931 42.733 25.9702C42.532 25.9332 42.3239 25.9618 42.1398 26.0519L38.5617 27.3786L31.7467 8.77265C31.7178 8.62482 31.656 8.48547 31.5659 8.36467C31.4757 8.24387 31.3594 8.14466 31.2253 8.07421C31.0731 8.04394 30.9158 8.04831 30.765 8.08699C30.6143 8.12568 30.4741 8.19768 30.355 8.29756C28.8485 9.14954 27.1892 9.69951 25.4724 9.91583C25.4775 10.6067 25.6165 11.2891 25.8818 11.926L31.7638 29.2901C31.8192 29.4038 31.8306 29.5339 31.7957 29.656C31.6202 30.0526 30.8432 29.6176 30.6188 29.9992C27.7574 21.9554 24.7507 13.9632 21.5986 6.02279C21.5439 5.798 21.4374 5.58916 21.2875 5.41253C21.1376 5.2359 20.9482 5.09624 20.7342 5.00444C20.4134 4.94815 20.0819 4.99433 19.7877 5.13632C18.0021 5.81594 16.2681 6.62369 14.5997 7.55311L23.6889 32.1841L21.7993 32.8563L15.0115 16.5366C14.9931 16.4689 14.961 16.4058 14.9171 16.351C14.8732 16.2962 14.8185 16.2509 14.7562 16.2178C14.6886 16.1994 14.6176 16.1959 14.5482 16.2076C14.4788 16.2192 14.4127 16.2457 14.3545 16.2852L9.19734 18.6048C9.24311 19.0403 9.37117 19.4628 9.57487 19.8502L9.01455 18.5512" fill="white"/>
<path d="M10.7453 38.7607C12.3768 38.0294 14.0449 37.3821 15.7429 36.8213C15.8591 36.7799 15.685 36.6586 15.685 36.6586C13.9633 37.2118 12.2712 37.8533 10.6156 38.5805C10.4994 38.6219 10.6735 38.7432 10.7316 38.7225L10.7453 38.7607Z" fill="black"/>
<path d="M9.6526 20.4368C11.3958 25.7668 13.2564 31.0587 15.2344 36.3123C15.2684 36.408 15.4729 36.3999 15.4185 36.2468C13.4275 30.9978 11.5464 25.7096 9.77517 20.3824C9.74454 20.2963 9.54969 20.3009 9.60074 20.4444L9.6526 20.4368Z" fill="black"/>
<path d="M10.0706 19.3718C11.9215 18.7134 13.7933 18.1446 15.6815 17.5915C15.7978 17.5501 15.6237 17.4288 15.6237 17.4288C13.7354 17.982 11.8738 18.5795 10.0127 19.2092C9.89646 19.2505 10.0706 19.3718 10.0706 19.3718Z" fill="black"/>
<path d="M16.034 18.0913C17.9151 23.3795 19.9836 28.601 22.2394 33.7558C22.27 33.8419 22.4745 33.8339 22.4138 33.6938C20.1667 28.543 18.0983 23.3215 16.2085 18.0293C16.1778 17.9431 15.983 17.9478 16.034 18.0913Z" fill="black"/>
<path d="M22.7333 33.7634C23.0731 33.5885 23.435 33.4598 23.8089 33.3808C23.8195 33.3802 23.8299 33.3774 23.8393 33.3724C23.8487 33.3674 23.8569 33.3605 23.8633 33.352C23.8697 33.3435 23.8741 33.3338 23.8762 33.3235C23.8784 33.3132 23.8782 33.3025 23.8757 33.2923C23.8635 33.2716 23.8457 33.2546 23.8243 33.2432C23.8029 33.2318 23.7788 33.2264 23.7545 33.2277C23.3596 33.2908 22.9753 33.4093 22.6134 33.5797C22.4971 33.621 22.6712 33.7423 22.6678 33.7328L22.7333 33.7634Z" fill="black"/>
<path d="M14.6304 8.25335C17.9735 16.4852 21.1174 24.7914 24.0622 33.1721C24.0962 33.2678 24.3008 33.2597 24.2463 33.1066C21.2692 24.7374 18.1253 16.4312 14.8146 8.18786C14.7805 8.09218 14.576 8.10026 14.6134 8.20551L14.6304 8.25335Z" fill="black"/>
<path d="M15.1037 7.98799C17.0278 7.44365 18.9447 6.84802 20.828 6.18886C20.9443 6.1475 20.7702 6.0262 20.7217 6.04344C18.8289 6.71676 16.9207 7.31647 14.9974 7.84256C14.8811 7.88392 15.0518 7.99565 15.0552 8.00522L15.1037 7.98799Z" fill="black"/>
<path d="M22.0437 6.62955L31.0656 30.918C31.0963 31.0041 31.3008 30.996 31.2497 30.8525L22.2317 6.60578C22.2011 6.51966 21.9965 6.52775 22.0573 6.66783L22.0437 6.62955Z" fill="black"/>
<path d="M31.6706 30.9615L32.6396 30.6168C32.6494 30.6139 32.6583 30.6087 32.6656 30.6016C32.6729 30.5945 32.6783 30.5858 32.6814 30.5761C32.6844 30.5665 32.685 30.5563 32.6831 30.5464C32.6812 30.5366 32.6769 30.5273 32.6705 30.5195C32.655 30.4991 32.6337 30.4837 32.6093 30.4752C32.5849 30.4666 32.5585 30.4653 32.5333 30.4713L31.5643 30.816C31.5529 30.8184 31.5424 30.8239 31.534 30.8318C31.5255 30.8398 31.5195 30.85 31.5167 30.8611C31.5138 30.8723 31.5141 30.884 31.5177 30.8949C31.5213 30.9058 31.5279 30.9155 31.5368 30.9228C31.5524 30.942 31.5735 30.9559 31.5974 30.9628C31.6213 30.9697 31.6468 30.9692 31.6706 30.9615Z" fill="black"/>
<path d="M24.996 9.5892L32.1686 30.213C32.1992 30.2991 32.4072 30.3006 32.3527 30.1475L25.1802 9.52371C25.1495 9.43759 24.9416 9.43611 24.996 9.5892Z" fill="black"/>
<path d="M26.1751 11.1855L30.4679 9.65844C30.9843 9.44783 31.5205 9.28958 32.0684 9.18613C32.1944 9.14132 32.1176 9.0177 32.0139 9.03304C31.005 9.24753 30.0197 9.56193 29.0728 9.97147L26.0688 11.0401C25.9428 11.0849 26.1267 11.2027 26.1751 11.1855Z" fill="black"/>
<path d="M32.2918 9.53784C34.5269 15.8211 36.6715 22.1365 38.7257 28.4842C38.7598 28.5798 38.9449 28.5786 38.9172 28.47C36.8953 22.1109 34.7495 15.7922 32.4798 9.51407C32.4492 9.42795 32.2544 9.43259 32.3054 9.57612L32.2918 9.53784Z" fill="black"/>
<path d="M39.4208 28.0752L43.3514 26.8495C43.4677 26.8081 43.2969 26.6964 43.2485 26.7136L39.3145 27.9298C39.1885 27.9746 39.3205 28.1001 39.4208 28.0752Z" fill="black"/>
<path d="M43.6916 27.192C44.1377 28.6609 44.6158 30.097 45.153 31.5766C45.1836 31.6628 45.3882 31.6547 45.3274 31.5146C44.8101 30.0602 44.3063 28.6441 43.8757 27.1265C43.845 27.0404 43.6468 27.0354 43.6916 27.192Z" fill="black"/>
<path d="M10.4705 38.8477C10.8899 40.2723 11.1475 41.7328 11.6638 43.1229C11.6945 43.2091 11.8927 43.214 11.8383 43.0609C11.3413 41.6639 11.0741 40.2068 10.645 38.7856C10.6143 38.6995 10.4195 38.7042 10.4705 38.8477Z" fill="black"/>
<path d="M11.6271 43.2653C20.4543 40.8744 29.1527 38.0284 37.6867 34.7392C40.1059 33.8067 42.5084 32.8372 44.894 31.8305C45.0199 31.7857 44.8845 31.6506 44.8361 31.6678C36.3897 35.2302 27.76 38.3431 18.9844 40.9931C16.5016 41.747 14.0084 42.4614 11.5048 43.1364C11.3788 43.1812 11.5592 43.2895 11.6111 43.2818L11.6271 43.2653Z" fill="black"/>
<path d="M13.4928 41.513C13.1533 40.6679 12.7524 39.8486 12.2933 39.0616C12.083 38.716 11.2227 38.7526 11.3871 39.2762C11.6662 40.0608 11.9487 40.855 12.2278 41.6396C12.2852 41.752 12.3765 41.8437 12.4891 41.9021C12.6018 41.9605 12.7303 41.9827 12.8568 41.9656C13.0603 41.8932 13.2856 41.7592 13.1811 41.5268C12.902 40.7422 12.6195 39.948 12.3404 39.1634L11.4405 39.365C11.859 40.0923 12.2262 40.8477 12.5395 41.6257C12.5943 41.7402 12.6852 41.8338 12.7985 41.8925C12.9119 41.9512 13.0416 41.972 13.1685 41.9517C13.372 41.8793 13.6046 41.7966 13.4962 41.5226L13.4928 41.513Z" fill="black"/>
<path d="M12.8759 39.9323L42.0904 29.2275C42.6912 29.0138 42.0143 28.3384 41.5525 28.5134L12.3647 39.2626C11.7639 39.4763 12.4471 40.1387 12.8992 39.9671L12.8759 39.9323Z" fill="black"/>
<path d="M14.0312 25.0126L12.3636 20.5395C12.207 20.0994 11.2129 20.0973 11.3972 20.6462C13.0991 25.4304 14.8978 30.1801 16.8568 34.7974L17.7664 34.5924L16.9468 33.3317C16.6802 32.9199 15.7702 33.0928 16.0941 33.6351L16.9137 34.8957C17.1268 35.2187 18.0361 35.1971 17.8198 34.6812C15.8428 30.0236 14.0241 25.3097 12.3636 20.5395L11.3972 20.6462L13.0779 25.1253C13.2345 25.5655 14.2349 25.5545 14.0312 25.0126Z" fill="black"/>
<path d="M15.0362 21.2704C16.8878 26.4053 19.0388 31.4275 21.4783 36.3117C21.6799 36.7251 22.7128 36.7134 22.4413 36.1955C19.9978 30.82 17.7347 25.3479 15.652 19.7794C15.4954 19.3392 14.4916 19.3406 14.6987 19.8921C16.7552 25.4484 19.0022 30.9262 21.4395 36.3255L22.4025 36.2093C19.963 31.3251 17.812 26.3029 15.9604 21.168C15.8038 20.7278 14.8228 20.7319 15.0071 21.2807L15.0362 21.2704Z" fill="black"/>
<path d="M11.8618 21.6451L18.1771 37.2812C18.3337 37.7214 19.3569 37.7131 19.1435 37.1746L12.8282 21.5384C12.6716 21.0983 11.6484 21.1066 11.8618 21.6451Z" fill="black"/>
<path d="M19.0281 36.6659L19.8964 37.3272C20.1958 37.5548 21.0705 37.4054 20.6633 36.9358L18.6865 34.6316L17.9162 35.0134C19.0144 35.7962 20.0513 36.6596 21.0184 37.5964C21.3187 37.8884 22.1337 37.6631 21.7886 37.2146L17.974 32.9663L17.2038 33.3481C18.6201 34.3283 19.9515 35.4229 21.1845 36.6211C21.4848 36.913 22.3033 36.6974 21.9547 36.2393L17.8461 31.2872L17.0696 31.682C18.0955 32.4472 19.0693 33.2782 19.985 34.1697C20.2854 34.4617 21.1004 34.2364 20.7553 33.7879C19.4653 32.3712 18.2202 30.917 17.02 29.4252L16.2532 29.8166L18.8732 32.1183C19.173 32.3781 19.9954 32.2042 19.6401 31.727L15.263 26.45L14.4962 26.8413L17.6769 29.461C17.9733 29.7113 18.8059 29.566 18.4437 29.0697L14.3407 23.4581L13.5704 23.8399L16.1346 26.1076C16.3685 26.3046 17.2225 26.2811 16.9583 25.8146C16.1795 24.4152 15.2763 23.088 14.2594 21.8485L13.4891 22.2303L15.9098 24.4629C16.1374 24.673 16.9749 24.6337 16.7335 24.1699C16.1602 23.0704 15.4762 22.0317 14.6918 21.0695C14.4035 20.7194 13.5118 20.821 13.8391 21.3729C13.9997 21.6089 14.1959 21.819 14.421 21.9959C14.6577 22.1704 15.4541 22.1997 15.2446 21.7029C15.138 21.4345 14.9869 21.1859 14.7974 20.9673C14.4994 20.6206 13.5529 20.7525 13.9446 21.2706C14.3549 21.8116 14.8178 22.3112 15.3268 22.7624C15.7125 23.1102 16.5152 22.7276 16.0111 22.2926C15.5562 21.8807 15.1449 21.4238 14.7838 20.929L13.931 21.2324C14.0712 21.3932 14.1869 21.5735 14.2743 21.7678L15.098 21.4748C14.9307 21.3549 14.7882 21.2044 14.6782 21.0312L13.8255 21.3346C14.5728 22.2339 15.2203 23.2105 15.7569 24.2478L16.5806 23.9548L14.1832 21.7571C13.8799 21.4877 13.0644 21.6808 13.4163 22.1484C14.3815 23.3194 15.2431 24.5708 15.9914 25.889L16.786 25.6064L14.2548 23.37C13.9515 23.1006 13.1292 23.2746 13.4879 23.7614L17.591 29.373L18.3612 28.9912L15.1805 26.3715C14.8841 26.1212 14.0549 26.2761 14.4103 26.7533L18.7548 32.0311L19.5217 31.6397L16.9114 29.3345C16.6081 29.0651 15.7858 29.2391 16.1411 29.7163C17.3478 31.2058 18.6058 32.6554 19.8763 34.079L20.6432 33.6877C19.7302 32.8086 18.7633 31.9862 17.7477 31.2252C17.4484 30.9975 16.6187 31.1202 16.9774 31.607L21.086 36.5591L21.8529 36.1677C20.6203 34.9719 19.2924 33.8763 17.8819 32.8913C17.5831 32.6958 16.685 32.8105 17.1053 33.2861L20.9165 37.5248L21.6833 37.1335C20.7163 36.1967 19.6794 35.3333 18.5812 34.5505C18.2887 34.3419 17.4038 34.4627 17.8144 34.9418L19.8163 37.194L20.5929 36.7992L19.7245 36.1379C19.3199 35.8291 18.5075 36.2152 19.0338 36.6208L19.0281 36.6659Z" fill="black"/>
<path d="M16.1478 8.86698C19.3215 16.8069 22.5866 24.7071 25.9432 32.5677C26.0963 32.9982 27.1292 32.9865 26.8964 32.4549C23.5399 24.5944 20.278 16.693 17.1108 8.75079C16.9542 8.31064 15.9344 8.32847 16.1478 8.86698Z" fill="black"/>
<path d="M19.8873 7.07326C22.7879 15.7199 26.2232 24.1778 30.1735 32.3995C30.3786 32.8224 31.4081 32.8011 31.1302 32.2963C27.1785 24.0753 23.7464 15.6159 20.8537 6.96664C20.6937 6.51693 19.703 6.52442 19.8873 7.07326Z" fill="black"/>
<path d="M27.3304 32.1712L27.9919 32.8952L28.3926 32.3646C27.8783 32.2699 27.3878 32.0785 26.9476 31.8008C26.4427 31.5169 25.8897 32.08 26.4703 32.4233C27.1382 32.8162 27.8685 33.0956 28.6311 33.2499C29.0418 33.3302 29.4723 33.0369 29.0861 32.6569L26.7526 30.3934L26.1735 30.9443C27.0895 31.3189 27.9645 31.7841 28.7852 32.3328C29.1859 32.5999 29.9999 32.3103 29.4696 31.863C28.261 30.8741 27.1422 29.7826 26.1258 28.6006L25.4608 29.0635L28.8605 31.1634C29.2606 31.3983 29.8976 31.0101 29.4396 30.6125C27.9278 29.3214 26.4912 27.9467 25.1366 26.4949L24.4813 26.9543L27.4614 28.8262C27.8684 29.0802 28.5019 28.6824 28.0439 28.2848C26.6586 26.96 25.3587 25.5504 24.1518 24.0641L23.4868 24.527C24.5093 25.0977 25.4759 25.7605 26.3745 26.5072C26.7728 26.829 27.531 26.5054 27.0652 26.0244C25.5528 24.4967 24.1327 22.8819 22.8122 21.1883L22.0163 21.59C23.1206 22.5769 24.2695 23.5049 25.4662 24.3834C25.7621 24.6016 26.5952 24.4885 26.2331 23.9921L21.9254 18.7874L21.1552 19.1692L23.8344 21.1157C24.1303 21.3339 25.0278 21.1871 24.6013 20.7244C23.0683 19.0815 21.682 17.3098 20.4579 15.429L19.691 15.8203L23.7552 19.236C24.0745 19.4889 24.8842 19.341 24.5318 18.8412L19.6191 11.3833L18.8489 11.7651L22.3304 15.1078C22.6274 15.3902 23.4458 15.1745 23.0973 14.7164C21.7546 13.183 20.5232 11.5571 19.4124 9.85074L18.7474 10.3136C19.4788 10.7634 20.1299 11.3292 20.675 11.9886C20.8905 12.2569 21.8721 12.285 21.5715 11.7775L19.9064 8.66175L19.0828 8.95475L20.1069 9.80848C20.4199 10.0744 21.1875 9.93072 20.8772 9.42669L20.2299 8.37422L19.3772 8.67756L20.8905 10.446C21.1919 10.8023 22.1407 10.6157 21.7432 10.1427L20.2299 8.37422C19.9319 8.0275 19.0464 8.11612 19.3772 8.67756L20.0244 9.73003L20.8204 9.32833L19.8025 8.46159C19.572 8.27408 18.7243 8.2846 18.9788 8.75459L20.6376 11.8833L21.5375 11.6818C20.8814 10.8964 20.0938 10.2287 19.2087 9.70763C18.874 9.5033 18.2572 9.73348 18.5403 10.161C19.6624 11.8714 20.9058 13.5003 22.261 15.0355L23.0279 14.6441L19.5333 11.2953C19.2329 11.0033 18.4077 11.1998 18.7664 11.6866L23.6688 19.1158L24.4357 18.7245L20.3714 15.3088C20.0522 15.0558 19.2424 15.2038 19.6046 15.7001C20.8202 17.5778 22.2011 19.3445 23.7315 20.9799L24.5018 20.5981L21.8225 18.6516C21.5266 18.4334 20.6935 18.5465 21.0557 19.0429L25.3633 24.2476L26.1336 23.8658C24.9465 22.9838 23.7943 22.0463 22.6837 21.0724C22.3804 20.803 21.5581 20.9769 21.9134 21.4542C23.2958 23.2214 24.7754 24.9117 26.3454 26.5176L27.0361 26.0347C26.075 25.2357 25.0461 24.5198 23.9606 23.895C23.6493 23.7255 22.951 23.9415 23.2957 24.3579C24.5658 25.9118 25.9352 27.3832 27.3954 28.7634L27.9779 28.222L24.9847 26.3441C24.6893 26.1581 23.9237 26.4304 24.3197 26.807C25.7217 28.3021 27.2088 29.7164 28.7741 31.0432L29.3532 30.4923L25.9535 28.3924C25.6484 28.2099 24.9473 28.4485 25.2885 28.8554C26.349 30.1137 27.519 31.2773 28.7852 32.3328L29.4696 31.863C28.5851 31.2661 27.6408 30.7605 26.6512 30.354C26.2521 30.1833 25.5971 30.4595 26.0687 30.8953L28.4119 33.1554L28.8669 32.5624C28.1945 32.4373 27.5505 32.1957 26.9646 31.8486L26.4873 32.4711C27.0909 32.8071 27.7515 33.0322 28.4376 33.1355C28.7372 33.1799 29.1062 32.8977 28.8446 32.5919L28.1832 31.8679C27.8721 31.515 26.9135 31.7051 27.3304 32.1712Z" fill="black"/>
<path d="M28.8173 15.0531C28.3474 15.3281 28.7708 16.3955 28.874 16.7469C29.1782 17.8783 29.5827 18.9847 29.9775 20.0947C30.808 22.4294 31.716 24.7365 32.5175 27.0815C32.834 27.9714 33.1472 28.8517 33.4603 29.732C33.6169 30.1721 33.7742 30.8599 34.277 31.0152C34.387 31.0625 34.5113 31.0664 34.6247 31.026C34.7381 30.9857 34.8321 30.9042 34.8875 30.7981C34.9121 30.724 34.9142 30.6445 34.8935 30.5696C34.8567 30.0976 33.8439 29.9512 33.8916 30.484C33.9188 30.5606 33.9188 30.5606 33.8916 30.484L34.4924 30.2703C34.711 30.3327 34.7113 30.5482 34.7343 30.3675C34.7574 30.1868 34.6526 30.1378 34.6288 30.0709C34.5437 29.8317 34.4552 29.5829 34.3667 29.3341C34.1081 28.6069 33.8494 27.8797 33.5907 27.1525C33.1686 25.966 32.7432 24.77 32.3211 23.5835C31.6029 21.5645 30.7845 19.5705 30.1632 17.5171C30.0032 17.0674 29.8398 16.6081 29.7705 16.1369C29.716 15.9838 29.7134 15.8231 29.688 15.6596C29.6626 15.4962 29.7509 15.5295 29.6642 15.5926C30.1631 15.3074 29.3613 14.7411 28.9234 14.9831L28.8173 15.0531Z" fill="black"/>
<path d="M27.9426 14.0061L28.7391 16.2451L29.6924 16.1324L28.1863 13.0032C27.9847 12.5898 28.0913 12.5519 28.4807 12.3272C28.7436 12.1831 29.0162 12.0573 29.2965 11.9507L31.0411 11.1469L30.2924 10.8527L38.0129 30.8073C38.1694 31.2475 39.1829 31.2427 38.9792 30.7007L31.2428 10.7626C31.1753 10.6312 31.0624 10.5284 30.9245 10.4727C30.7866 10.417 30.6327 10.4121 30.4906 10.4588L28.2752 11.4732C27.8585 11.6215 27.0663 11.8494 26.9772 12.3661C26.8881 12.8829 27.4401 13.6675 27.6844 14.1087L28.7391 16.2451C28.8854 16.6565 29.9029 16.6934 29.6924 16.1324L28.8959 13.8933C28.7393 13.4532 27.7355 13.4546 27.9426 14.0061Z" fill="black"/>
<path d="M34.8029 30.9898L36.4703 31.8411C36.7981 32.0263 37.4189 31.8379 37.129 31.3912C36.4967 30.4114 35.7446 29.5133 34.8895 28.717L34.307 29.2583C35.2941 29.8328 36.2202 30.5036 37.0716 31.2607C37.4671 31.6051 38.2282 31.2589 37.7623 30.7779C36.6477 29.6397 35.6142 28.4263 34.6692 27.1461L33.9023 27.5375L36.7177 29.4679C36.8087 29.5434 36.9192 29.5924 37.037 29.6095C37.1548 29.6265 37.2753 29.611 37.3853 29.5646C37.4286 29.5428 37.4664 29.5116 37.4958 29.4733C37.5252 29.435 37.5454 29.3907 37.555 29.3436C37.5646 29.2966 37.5632 29.2481 37.551 29.2018C37.5388 29.1555 37.5161 29.1127 37.4846 29.0766L33.8512 25.1842L33.0844 25.5756L35.9395 27.9554C36.3412 28.2868 37.1057 27.9502 36.6239 27.4856C35.259 26.1243 33.9594 24.711 32.725 23.2458L31.945 23.631L34.4878 25.777C34.7939 26.0238 35.6647 25.8326 35.2547 25.3857C34.1288 24.1291 33.0708 22.8144 32.0851 21.4469L31.3182 21.8383L34.1179 24.0007C34.4207 24.2379 35.2503 24.1153 34.8848 23.6093L31.5335 19.2825L30.7666 19.6738L33.6085 22.2309C33.9117 22.5003 34.7273 22.3072 34.3787 21.8491C32.9971 20.2933 31.7223 18.6474 30.5629 16.9222L29.796 17.3135L33.0343 20.2793C33.3376 20.5487 34.1565 20.3651 33.8012 19.8879C32.3127 17.9811 30.9231 16.0002 29.6377 13.9529L28.8611 14.3477L31.8886 17.3345C32.1792 17.6299 33.0039 17.4012 32.6554 16.9431C31.56 15.6482 30.5443 14.289 29.6137 12.8727L28.8468 13.2641C29.7258 14.0167 30.5509 14.8289 31.3162 15.6949C31.6239 16.0381 32.5699 15.8741 32.169 15.3915C31.419 14.5029 30.7482 13.5515 30.1639 12.5476L29.3971 12.939L32.9459 16.6242C33.3094 17.0016 34.0927 16.6259 33.6268 16.1449L30.1019 12.5266C29.801 12.2024 29.0475 12.4166 29.3316 12.9084C29.92 13.9096 30.5906 14.8607 31.3366 15.7523L32.1894 15.4489C31.3713 14.5243 30.49 13.6565 29.5516 12.8517C29.2484 12.5823 28.4226 12.7467 28.7813 13.2335C29.716 14.647 30.7315 16.006 31.8231 17.3039L32.5899 16.9125L29.5722 13.9223C29.2684 13.6207 28.45 13.8364 28.8053 14.3136C30.0899 16.3627 31.4829 18.3426 32.9785 20.2452L33.7488 19.8634L30.5071 16.8881C30.2102 16.6057 29.3815 16.7927 29.7403 17.2795C30.8997 19.0047 32.1745 20.6506 33.5561 22.2064L34.3229 21.815L31.4777 19.2484C31.1842 18.9756 30.3555 19.1626 30.7109 19.6398L34.0621 23.9666L34.829 23.5753L32.039 21.4094C31.7266 21.1756 30.9066 21.2948 31.2722 21.8008C32.2503 23.17 33.3074 24.4818 34.4383 25.7299L35.2337 25.2961L32.614 23.2098C32.3078 22.963 31.4884 23.1144 31.8471 23.6012C33.1194 25.132 34.4752 26.6007 35.9144 28.0075L36.5988 27.5377L33.7402 25.1483C33.434 24.9015 32.5666 25.1022 32.9733 25.5396L36.6067 29.432L37.377 29.0502L34.5576 27.078C34.2554 26.8729 33.4184 26.9443 33.7873 27.4598C34.7866 28.8 35.874 30.0731 37.0426 31.2711L37.7332 30.7882C36.8187 29.9706 35.8279 29.2403 34.774 28.6071C34.3642 28.3756 33.7335 28.7509 34.195 29.1581C34.9832 29.9052 35.6773 30.744 36.2626 31.6563L36.9276 31.1934L35.2893 30.3318C34.7781 30.0609 34.2286 30.6336 34.8183 30.9412L34.8029 30.9898Z" fill="black"/>
<path d="M16.0312 39.78C15.0495 39.9689 14.0496 40.0424 13.0524 39.9989C12.7305 39.984 12.4516 40.2126 12.6516 40.5295L12.9483 40.9952C13.0277 41.097 13.1373 41.1715 13.2619 41.2083C13.3865 41.2451 13.52 41.2424 13.6436 41.2006C13.6965 41.1864 13.7449 41.1589 13.7842 41.1208C13.8234 41.0827 13.8522 41.0353 13.8677 40.9832C13.8831 40.9311 13.8848 40.8761 13.8726 40.8234C13.8603 40.7707 13.8345 40.7221 13.7977 40.6823L13.501 40.2166L13.094 40.7602C14.1642 40.8124 15.238 40.7415 16.2938 40.5489C16.4973 40.4766 16.7128 40.346 16.618 40.1102C16.5607 39.9978 16.4694 39.9061 16.3567 39.8477C16.244 39.7893 16.1156 39.7671 15.989 39.7842L16.0312 39.78Z" fill="black"/>
<path d="M35.4503 32.6567L34.1429 32.9708L34.6808 33.6849C37.0725 32.6545 39.498 31.7091 41.9575 30.8486C42.3935 30.6934 42.1162 30.2208 41.7996 30.1286C41.306 30.0141 40.7946 29.9914 40.2911 30.0616C40.0706 30.0861 39.8658 30.2776 39.9669 30.5003C40.1091 30.8417 40.2807 31.1701 40.4798 31.482C40.7464 31.8938 41.6565 31.721 41.3326 31.1786C41.1739 30.9304 41.037 30.6689 40.9236 30.3971L40.5993 30.8359C40.9237 30.7758 41.2566 30.7821 41.5775 30.8544L41.4196 30.1344C38.9647 31.0077 36.5392 31.9532 34.1429 32.9708C34.0931 32.9875 34.0479 33.0158 34.0112 33.0532C33.9744 33.0906 33.9472 33.1361 33.9318 33.186C33.9164 33.2358 33.9132 33.2884 33.9226 33.3395C33.9319 33.3906 33.9535 33.4386 33.9855 33.4796C34.0658 33.5801 34.1755 33.6537 34.2997 33.6905C34.424 33.7272 34.557 33.7253 34.6808 33.6849L35.9882 33.3708C36.0396 33.3562 36.0866 33.329 36.1249 33.2918C36.1631 33.2547 36.1914 33.2086 36.2071 33.1579C36.2227 33.1073 36.2253 33.0536 36.2146 33.0019C36.2039 32.9502 36.1801 32.9021 36.1456 32.8621C36.0653 32.7615 35.9557 32.6879 35.8314 32.6512C35.7071 32.6144 35.5741 32.6164 35.4503 32.6567Z" fill="black"/>
<path d="M20.8924 37.6412L17.5351 38.76C17.4837 38.7746 17.4367 38.8018 17.3984 38.8389C17.3602 38.8761 17.3319 38.9222 17.3162 38.9728C17.3005 39.0235 17.2979 39.0772 17.3087 39.1289C17.3194 39.1806 17.3431 39.2287 17.3776 39.2687C17.4605 39.366 17.5703 39.4372 17.6937 39.4737C17.8172 39.5101 17.9489 39.5103 18.0729 39.4741L20.0587 38.9187C20.106 38.8991 20.148 38.8686 20.1811 38.8297C20.2141 38.7907 20.2373 38.7446 20.2486 38.6951C20.2599 38.6456 20.259 38.5942 20.246 38.5453C20.2331 38.4964 20.2083 38.4514 20.1739 38.4142C20.0927 38.3147 19.983 38.242 19.859 38.2053C19.7351 38.1687 19.6025 38.1699 19.4786 38.2088L17.4929 38.7642L18.0308 39.4783L21.3881 38.3595C21.4395 38.3449 21.4865 38.3178 21.5248 38.2806C21.563 38.2434 21.5913 38.1974 21.6069 38.1467C21.6226 38.096 21.6252 38.0424 21.6145 37.9907C21.6038 37.939 21.58 37.8909 21.5455 37.8508C21.4652 37.7502 21.3556 37.6766 21.2313 37.6399C21.107 37.6032 20.974 37.6051 20.8502 37.6454L20.8924 37.6412Z" fill="black"/>
<path d="M27.8441 36.0091C31.4231 34.736 34.9637 33.3651 38.4658 31.8966C39.0957 31.6725 38.3679 31.0691 37.928 31.1825L33.5092 32.3555L34.0471 33.0696L40.8303 30.6567C41.4214 30.4464 40.7887 29.8953 40.4058 29.9238L37.7838 30.1019L38.0595 30.877C38.9505 30.7759 39.8511 30.8196 40.7255 31.0065C41.3417 31.143 41.606 30.413 40.9477 30.2808C39.8969 30.0433 38.8138 29.9703 37.7377 30.0644C37.063 30.132 37.5331 30.8702 38.0134 30.8395L40.6354 30.6613L40.211 29.9284L33.4762 32.3241C32.856 32.5447 33.5644 33.1551 34.0141 33.0382L38.4328 31.8652L37.895 31.1511C34.3883 32.6069 30.8477 33.9777 27.2733 35.2636C26.6725 35.4773 27.3557 36.1397 27.8111 35.9777L27.8441 36.0091Z" fill="black"/>
<path d="M24.0712 37.3404L25.3653 36.8046C25.9758 36.5875 25.2737 35.9641 24.8274 36.0905C21.4307 37.137 18.09 38.3578 14.8189 39.7478C14.2084 39.9649 14.9013 40.6239 15.3567 40.4619L27.1693 36.2599C27.7701 36.0462 27.084 35.4064 26.6348 35.5554L14.9653 39.3615L15.4998 40.0661L39.5134 31.9874C40.1433 31.7634 39.419 31.1695 38.9756 31.2733C34.7221 32.2798 30.5737 33.6905 26.5882 35.4857C26.0044 35.7473 26.6842 36.4001 27.1261 36.1998C31.1116 34.4046 35.26 32.9939 39.5134 31.9874L38.9756 31.2733L14.9653 39.3615C14.3645 39.5752 15.0409 40.2185 15.4998 40.0661L27.1135 36.2259L26.579 35.5213L14.7665 39.7233L15.3044 40.4374C18.5755 39.0475 21.9162 37.8267 25.3129 36.7801L24.8759 36.0733L23.5755 36.6221C22.9747 36.8358 23.6648 37.5173 24.1197 37.3232L24.0712 37.3404Z" fill="black"/>
<path d="M16.4285 39.6387L15.1106 40.1075L15.6485 40.8216L18.2366 39.7501C18.28 39.73 18.3185 39.7009 18.3495 39.6647C18.3805 39.6285 18.4032 39.5862 18.4161 39.5406C18.4289 39.495 18.4316 39.4472 18.424 39.4006C18.4163 39.354 18.3985 39.3097 18.3718 39.2708C18.2915 39.1702 18.1818 39.0966 18.0575 39.0599C17.9332 39.0232 17.8003 39.0251 17.6765 39.0654L15.0884 40.137C15.0369 40.1516 14.9899 40.1787 14.9517 40.2159C14.9134 40.2531 14.8852 40.2992 14.8695 40.3498C14.8538 40.4005 14.8512 40.4541 14.862 40.5058C14.8727 40.5575 14.8964 40.6056 14.9309 40.6457C15.0112 40.7463 15.1209 40.8199 15.2452 40.8566C15.3695 40.8933 15.5024 40.8914 15.6262 40.8511L16.9441 40.3823C16.9955 40.3677 17.0425 40.3405 17.0808 40.3034C17.119 40.2662 17.1473 40.2201 17.163 40.1695C17.1787 40.1188 17.1812 40.0651 17.1705 40.0134C17.1598 39.9617 17.1361 39.9136 17.1016 39.8736C17.0194 39.7765 16.9098 39.706 16.7866 39.6711C16.6633 39.6362 16.5321 39.6385 16.4097 39.6777L16.4285 39.6387Z" fill="black"/>
</g>
<defs>
<clipPath id="clip0_21_20869">
<rect width="36.3272" height="34.8445" fill="white" transform="translate(0 12.175) rotate(-19.5815)"/>
</clipPath>
</defs>
</svg>
