<svg width="60" height="11" viewBox="0 0 60 11" fill="none" xmlns="http://www.w3.org/2000/svg">
<path d="M8.792 9.968H6.398L2.394 3.906L2.394 9.968H0L0 0.14L2.394 0.14L6.398 6.23V0.14L8.792 0.14V9.968Z" fill="#EC1940"/>
<path d="M15.1753 10.066C14.2513 10.066 13.402 9.85133 12.6273 9.422C11.862 8.99267 11.2507 8.39533 10.7933 7.63C10.3453 6.85533 10.1213 5.98733 10.1213 5.026C10.1213 4.06467 10.3453 3.20133 10.7933 2.436C11.2507 1.67067 11.862 1.07333 12.6273 0.644C13.402 0.214667 14.2513 0 15.1753 0C16.0993 0 16.944 0.214667 17.7093 0.644C18.484 1.07333 19.0907 1.67067 19.5293 2.436C19.9773 3.20133 20.2013 4.06467 20.2013 5.026C20.2013 5.98733 19.9773 6.85533 19.5293 7.63C19.0813 8.39533 18.4747 8.99267 17.7093 9.422C16.944 9.85133 16.0993 10.066 15.1753 10.066ZM15.1753 7.882C15.9593 7.882 16.5847 7.62067 17.0513 7.098C17.5273 6.57533 17.7653 5.88467 17.7653 5.026C17.7653 4.158 17.5273 3.46733 17.0513 2.954C16.5847 2.43133 15.9593 2.17 15.1753 2.17C14.382 2.17 13.7473 2.42667 13.2713 2.94C12.8047 3.45333 12.5713 4.14867 12.5713 5.026C12.5713 5.894 12.8047 6.58933 13.2713 7.112C13.7473 7.62533 14.382 7.882 15.1753 7.882Z" fill="#EC1940"/>
<path d="M28.182 0.14C29.218 0.14 30.1233 0.345333 30.898 0.756C31.6727 1.16667 32.27 1.74533 32.69 2.492C33.1193 3.22933 33.334 4.08333 33.334 5.054C33.334 6.01533 33.1193 6.86933 32.69 7.616C32.27 8.36267 31.668 8.94133 30.884 9.352C30.1093 9.76267 29.2087 9.968 28.182 9.968H24.5V0.14L28.182 0.14ZM28.028 7.896C28.9333 7.896 29.638 7.64867 30.142 7.154C30.646 6.65933 30.898 5.95933 30.898 5.054C30.898 4.14867 30.646 3.444 30.142 2.94C29.638 2.436 28.9333 2.184 28.028 2.184L26.894 2.184V7.896H28.028Z" fill="#EC1940"/>
<path d="M40.3699 9.968L37.0659 5.628V9.968H34.6719V0.14L37.0659 0.14V4.452L40.3419 0.14L43.1559 0.14L39.3479 4.956L43.2959 9.968H40.3699Z" fill="#EC1940"/>
<path d="M46.8276 0.14V9.968H44.4336V0.14L46.8276 0.14Z" fill="#EC1940"/>
<path d="M59.6925 0.14V9.968H57.2985V4.074L55.1005 9.968H53.1685L50.9565 4.06V9.968H48.5625V0.14L51.3905 0.14L54.1485 6.944L56.8785 0.14L59.6925 0.14Z" fill="#EC1940"/>
</svg>
