<svg width="40" height="13" viewBox="0 0 40 13" fill="none" xmlns="http://www.w3.org/2000/svg">
<path d="M3.262 8.12H6.398V9.968H0.868L0.868 0.14L3.262 0.14L3.262 8.12Z" fill="#EC1940"/>
<path d="M9.93388 0.14V9.968H7.53988L7.53988 0.14L9.93388 0.14Z" fill="#EC1940"/>
<path d="M20.4608 9.968H18.0668L14.0628 3.906V9.968H11.6688V0.14L14.0628 0.14L18.0668 6.23V0.14L20.4608 0.14V9.968Z" fill="#EC1940"/>
<path d="M27.8941 9.968L24.5901 5.628V9.968H22.1961V0.14L24.5901 0.14V4.452L27.8661 0.14L30.6801 0.14L26.8721 4.956L30.8201 9.968H27.8941Z" fill="#EC1940"/>
<path d="M35.5138 10.066C34.7952 10.066 34.1512 9.94933 33.5818 9.716C33.0125 9.48267 32.5552 9.13733 32.2098 8.68C31.8738 8.22267 31.6965 7.672 31.6778 7.028H34.2258C34.2632 7.392 34.3892 7.672 34.6038 7.868C34.8185 8.05467 35.0985 8.148 35.4438 8.148C35.7985 8.148 36.0785 8.06867 36.2838 7.91C36.4892 7.742 36.5918 7.51333 36.5918 7.224C36.5918 6.98133 36.5078 6.78067 36.3398 6.622C36.1812 6.46333 35.9805 6.33267 35.7378 6.23C35.5045 6.12733 35.1685 6.01067 34.7298 5.88C34.0952 5.684 33.5772 5.488 33.1758 5.292C32.7745 5.096 32.4292 4.80667 32.1398 4.424C31.8505 4.04133 31.7058 3.542 31.7058 2.926C31.7058 2.01133 32.0372 1.29733 32.6998 0.784C33.3625 0.261334 34.2258 0 35.2898 0C36.3725 0 37.2452 0.261334 37.9078 0.784C38.5705 1.29733 38.9252 2.016 38.9718 2.94H36.3818C36.3632 2.62267 36.2465 2.37533 36.0318 2.198C35.8172 2.01133 35.5418 1.918 35.2058 1.918C34.9165 1.918 34.6832 1.99733 34.5058 2.156C34.3285 2.30533 34.2398 2.52467 34.2398 2.814C34.2398 3.13133 34.3892 3.37867 34.6878 3.556C34.9865 3.73333 35.4532 3.92467 36.0878 4.13C36.7225 4.34467 37.2358 4.55 37.6278 4.746C38.0292 4.942 38.3745 5.22667 38.6638 5.6C38.9532 5.97333 39.0978 6.454 39.0978 7.042C39.0978 7.602 38.9532 8.11067 38.6638 8.568C38.3838 9.02533 37.9732 9.38933 37.4318 9.66C36.8905 9.93067 36.2512 10.066 35.5138 10.066Z" fill="#EC1940"/>
<path d="M0 11.368L39.6998 11.368V12.068L0 12.068L0 11.368Z" fill="#EC1940"/>
</svg>
