<svg width="99" height="37" viewBox="0 0 99 37" fill="none" xmlns="http://www.w3.org/2000/svg">
<path d="M17.35 27.2011C19.1221 28.1112 20.9531 28.9015 22.8306 29.5668C22.8306 29.5668 20.9185 24.893 18.4305 19.5022C19.3059 14.6324 17.2625 12.5849 15.4356 10.7979C13.2332 8.61438 12.9015 6.61298 12.9015 6.61298C12.3962 7.10185 11.9723 7.66856 11.646 8.29157C8.84233 6.79513 6.96248 4.02361 6.88416 0.232941C5.5523 0.905466 4.42854 1.92827 3.63346 3.1916C2.83839 4.45493 2.40201 5.9111 2.37115 7.40385C2.3495 7.98209 2.39512 8.56087 2.50707 9.12856L2.06705 9.71422C1.21237 10.8487 1.08566 12.3243 1.31373 13.5464L1.19855 14.1274C1.14922 14.4112 1.1581 14.7021 1.22463 14.9824C1.29117 15.2626 1.41397 15.5264 1.58557 15.7576C0.24941 17.8766 -0.0915434 20.466 0.627221 23.1176C1.31834 25.6332 3.17515 28.1903 4.95824 29.493C6.86803 30.8903 8.43227 31.5682 10.7383 32.2922C12.7955 32.9448 16.1705 33.1961 16.3663 35.767C16.6679 35.7476 16.9611 35.6592 17.2233 35.5088C18.1632 34.9623 18.4996 33.927 18.6055 33.1154C18.7918 33.3212 18.9261 33.5687 18.9972 33.8371C19.5915 32.532 19.0202 31.054 19.0202 31.054L19.3589 31.2408C18.9949 29.297 18.2024 28.0727 17.35 27.2011Z" fill="white"/>
<path opacity="0.98" d="M15.3481 19.3423C15.3481 19.3423 14.3299 19.407 14.369 18.489C14.4082 17.5711 14.8021 15.342 12.1644 13.328C12.1856 13.696 12.1168 14.0635 11.9639 14.3986C11.6231 13.6757 11.0636 13.0793 10.3651 12.6945C9.51976 12.2301 8.56328 12.0085 7.60066 12.054C7.33818 12.0555 7.07596 12.071 6.81509 12.1002C6.72985 12.1002 6.62618 12.1233 6.53173 12.1418C6.41727 12.1665 6.30542 12.2022 6.19769 12.2482C6.0959 12.285 6.00033 12.3372 5.91433 12.4031C5.91433 12.4031 7.95314 12.2366 8.73871 13.0136C8.23099 13.0141 7.72783 13.1097 7.2551 13.2956H7.35877C7.87711 13.2587 10.1716 13.2032 10.2177 15.083C10.3951 14.8631 10.5133 14.6012 10.561 14.3223C10.7396 14.7121 10.8188 15.1404 10.7913 15.5686C10.9 15.493 10.9921 15.396 11.0622 15.2835C11.1323 15.171 11.1789 15.0454 11.1991 14.9142C11.5585 15.3605 11.3488 16.1629 11.3488 16.1629C11.5273 16.2926 11.6945 16.4373 11.8487 16.5953C11.9281 16.4478 12.0459 16.3247 12.1895 16.2391C12.3331 16.1536 12.4973 16.1089 12.6643 16.1097C12.8152 16.1108 12.9637 16.1481 13.0974 16.2184C12.7576 15.8617 12.3197 15.6146 11.8395 15.5085C13.1388 15.2773 14.3736 16.3779 13.5097 17.4739C13.4514 17.5474 13.3866 17.6155 13.3162 17.6774L13.3024 17.689C13.234 17.7528 13.1563 17.8058 13.072 17.8462C13.299 18.1155 13.4696 18.4279 13.5737 18.7648C13.6778 19.1016 13.7133 19.4561 13.6779 19.807C13.4475 18.9839 12.321 17.8763 12.321 17.8763C12.1923 17.8254 12.077 17.7452 11.9843 17.6421C11.8916 17.539 11.8239 17.4158 11.7865 17.282C11.5239 17.0508 11.2106 16.7687 10.9342 16.5606C6.09633 14.3778 3.33185 17.0046 3.2443 17.2242C3.47123 17.0898 3.73202 17.0239 3.99532 17.0346C3.93542 17.0624 3.12451 17.615 2.84346 18.2832C2.99304 18.1567 3.18019 18.0835 3.37562 18.0751C2.75822 18.8983 2.50711 20.695 2.50711 20.695C2.34858 20.9375 2.24552 21.2123 2.20532 21.4996C2.29416 21.3495 2.4204 21.2252 2.57161 21.1389C2.438 24.9241 5.26698 28.7694 5.36144 28.9452C5.38678 28.9776 6.89342 30.2886 8.35629 30.8667C7.71976 30.3464 7.12651 29.7749 6.58241 29.1579C2.39884 24.42 3.15676 18.9191 6.21382 17.5433C8.8585 16.3132 12.4846 18.5145 13.0605 20.0706C13.068 20.0855 13.0742 20.1009 13.0789 20.1169C13.7447 20.8846 14.4197 20.5978 14.6224 19.992C14.6867 19.8361 14.7848 19.6965 14.9095 19.5833C15.0342 19.4701 15.1825 19.3862 15.3435 19.3376L15.3481 19.3423Z" fill="#D0D2D3"/>
<path d="M19.133 24.0461L17.1587 20.2474C17.1587 20.2474 16.827 19.6127 15.2858 19.8235L18.9971 24.9796L16.6427 20.4003L19.133 24.0461ZM15.3457 21.0187C15.2881 20.8728 14.8342 20.7361 14.6845 20.977C14.5071 21.255 15.1245 21.7762 15.7189 21.9476C14.9471 21.4519 14.7697 20.94 15.3457 21.0187ZM7.12595 15.0913C6.87726 15.0511 6.65405 14.9148 6.50394 14.7115C6.51191 14.9465 6.54748 15.1797 6.60992 15.4063C5.84052 15.3232 5.13299 14.9438 4.63562 14.3478C4.67545 14.646 4.75286 14.9379 4.86599 15.2164C2.08078 15.4828 -0.778153 22.0147 5.3659 28.9567C5.27145 28.7992 2.44707 24.931 2.58069 21.1392C2.42947 21.2256 2.30323 21.3501 2.2144 21.5005C2.25146 21.2127 2.35137 20.9366 2.50697 20.6921C2.50697 20.6921 2.73734 18.8901 3.35474 18.0608C3.15931 18.0692 2.97217 18.1425 2.82258 18.2693C3.11055 17.5999 3.92146 17.0463 3.97445 17.0185C3.71114 17.0078 3.45036 17.0737 3.22343 17.2084C3.31328 16.9884 6.08697 14.3571 10.9133 16.5436H10.9271C9.86218 15.5462 8.54193 14.8669 7.11443 14.5817C7.08371 14.7506 7.08763 14.924 7.12595 15.0913Z" fill="#555658"/>
<path d="M12.6227 9.97087C12.5455 10.1336 12.5046 10.3114 12.5029 10.4917C12.5029 10.4917 6.74354 8.40832 5.75754 3.58179C5.1747 4.79942 5.70456 6.2578 5.70456 6.2578C5.70456 6.2578 4.87061 5.29249 4.8061 4.63738C2.29503 9.73012 6.37494 12.1492 6.52469 12.207C6.62605 12.1885 6.7205 12.1746 6.81495 12.1654C10.8949 11.7279 11.9638 14.4664 11.9638 14.4664C12.1167 14.1309 12.1855 13.7629 12.1642 13.3946C14.802 15.4108 14.4081 17.6447 14.3689 18.5614C14.3297 19.4781 15.348 19.4156 15.348 19.4156C15.4516 19.3901 16.3017 19.2026 16.7924 19.441C17.9259 13.2811 14.0855 12.6492 12.6227 9.97087Z" fill="#EC1940"/>
<path d="M17.7486 30.2996C17.9751 30.2859 18.2003 30.3423 18.3936 30.4611C17.7025 27.1332 11.6829 23.2426 11.6829 23.2426C11.9351 23.3246 12.2084 23.3123 12.4523 23.208C15.3086 25.2777 18.3795 27.0329 21.6119 28.4431C21.6119 28.4431 20.2689 25.1498 17.6956 19.5895C19.1009 12.348 13.7793 11.8198 12.6136 8.03761C12.3411 8.40826 12.1424 8.82794 12.0284 9.27375C11.3926 8.94857 6.81046 7.1428 6.26909 1.48792C2.50709 4.18852 1.98875 9.68887 5.08497 12.2626C3.78566 12.3341 2.7605 10.8351 2.63149 10.1224C1.29994 11.8913 2.09012 14.5043 2.74438 15.1039C2.36505 14.9326 2.06059 14.6294 1.88739 14.2506C1.84419 14.518 1.87778 14.7922 1.98423 15.0413C2.09068 15.2903 2.26561 15.504 2.48866 15.6574C-0.759602 20.0946 1.61094 26.1922 5.37063 28.9297C-0.773424 22.0111 2.08551 15.5144 4.87072 15.2492C4.75759 14.9719 4.68018 14.6812 4.64035 14.3844C5.13772 14.9778 5.84525 15.3555 6.61465 15.4383C6.55221 15.2127 6.51664 14.9804 6.50868 14.7464C6.65878 14.9489 6.88199 15.0847 7.13068 15.1247C7.0893 14.9587 7.08224 14.7861 7.10995 14.6173C8.54744 14.8993 9.87712 15.5793 10.948 16.5799H10.9341C11.2106 16.7874 11.5239 17.0619 11.7865 17.2994C11.7612 17.218 11.7472 17.1334 11.7451 17.048C11.746 16.8975 11.7857 16.7498 11.8602 16.6191C11.706 16.4615 11.5388 16.3172 11.3603 16.1878C11.3603 16.1878 11.57 15.3876 11.2106 14.9425C11.1904 15.0732 11.1438 15.1986 11.0737 15.3108C11.0036 15.423 10.9115 15.5197 10.8028 15.5951C10.8303 15.1681 10.7511 14.7409 10.5725 14.3521C10.5248 14.6302 10.4066 14.8915 10.2292 15.1108C10.1716 13.2059 7.80568 13.2935 7.34493 13.3281H7.29425H7.2666C7.73656 13.1404 8.23732 13.0418 8.7433 13.0375C7.95772 12.2626 5.92122 12.4264 5.92122 12.4264C6.05391 12.3316 6.20201 12.2606 6.35893 12.2165L6.53632 12.1681C6.38658 12.1104 2.30667 9.7004 4.81774 4.6267C4.88224 5.28397 5.71619 6.24106 5.71619 6.24106C5.71619 6.24106 5.18633 4.78814 5.76918 3.57506C6.75287 8.38355 12.5145 10.4592 12.5145 10.4592C12.5162 10.2795 12.5571 10.1024 12.6343 9.94025C14.0972 12.6086 17.9329 13.2382 16.8156 19.3681C16.3249 19.1375 15.4748 19.3174 15.3711 19.3427C15.2101 19.3912 15.0619 19.4749 14.9372 19.5878C14.8124 19.7006 14.7144 19.8399 14.6501 19.9954C14.4473 20.5973 13.777 20.8833 13.1135 20.1269C13.1025 20.1366 13.0925 20.1475 13.0835 20.1591C13.0784 20.1673 13.0738 20.1758 13.0697 20.1845C12.9154 20.4751 12.3463 21.7481 13.6364 22.583C13.3679 22.5992 13.1027 22.5172 12.89 22.3524C12.9713 22.6922 13.1415 23.0042 13.383 23.2564C12.7933 22.7952 12.2864 22.3685 12.2864 22.3685H12.2565C12.0468 22.3824 10.8466 22.4354 9.98962 21.7758C9.92741 23.5032 12.063 23.8284 13.8553 25.8071C4.20264 23.321 6.19306 18.5679 6.2138 18.4871C3.09454 20.6919 5.92813 25.6364 6.47182 26.3145C10.8097 31.8171 16.5253 30.9523 16.9077 34.8821C18.1149 34.1257 17.949 32.0455 17.949 32.0455C18.212 32.1743 18.4379 32.3679 18.6056 32.6082C18.6324 32.1847 18.57 31.7604 18.4223 31.3627C18.2747 30.965 18.0451 30.6028 17.7486 30.2996ZM17.1588 20.2652L19.1331 24.0475L16.6428 20.4174L18.9972 24.9769L15.2859 19.8432C16.8271 19.6333 17.1588 20.2652 17.1588 20.2652ZM14.6846 20.9917C14.8344 20.7611 15.2882 20.8879 15.3458 21.0332C14.7699 20.9548 14.9565 21.4645 15.719 21.9557C15.1246 21.7873 14.5072 21.2684 14.6846 20.9917ZM11.8464 15.5352C12.3266 15.6409 12.7645 15.8874 13.1043 16.2432C13.1748 16.3309 13.2344 16.427 13.2816 16.5291V16.5522C13.3052 16.613 13.3048 16.6804 13.2804 16.7408C13.256 16.8013 13.2095 16.8501 13.1503 16.8774C13.0879 16.908 13.016 16.9128 12.9501 16.8908C12.8841 16.8688 12.8295 16.8217 12.7979 16.7598C12.7789 16.7243 12.769 16.6847 12.769 16.6445C12.769 16.6042 12.7789 16.5646 12.7979 16.5291C12.719 16.5709 12.6529 16.6332 12.6067 16.7096C12.5604 16.7859 12.5357 16.8734 12.5352 16.9627C12.5358 17.0287 12.5494 17.094 12.5752 17.1548C12.601 17.2155 12.6385 17.2706 12.6856 17.3169C12.7326 17.3631 12.7884 17.3997 12.8495 17.4244C12.9107 17.4491 12.9761 17.4615 13.0421 17.4609C13.1578 17.4605 13.2699 17.4206 13.36 17.3479C13.3447 17.4631 13.3216 17.5771 13.2909 17.6892C13.3659 17.6227 13.4345 17.5493 13.4959 17.4701C14.3644 16.3885 13.1388 15.3092 11.8464 15.5352ZM12.6712 17.9613C12.5521 17.9605 12.4342 17.9379 12.3233 17.8944L12.4247 17.9959C12.708 18.2888 13.5028 19.149 13.6871 19.8247C13.7224 19.4747 13.687 19.1212 13.5829 18.7852C13.4788 18.4492 13.3082 18.1376 13.0812 17.8691C12.9535 17.931 12.8131 17.9626 12.6712 17.9613Z" fill="#0B0204"/>
<path d="M89.563 17.7521C88.5893 17.7521 87.8344 18.0615 87.2984 18.6802C86.7624 19.299 86.4952 20.1497 86.4967 21.2325C86.4967 22.3153 86.7547 23.1661 87.2708 23.7848C87.7868 24.4035 88.6499 24.7129 89.8602 24.7129C90.4174 24.7417 90.9749 24.6629 91.5027 24.4809C91.8543 24.3231 92.1643 24.0848 92.4081 23.7848C92.5855 23.5713 92.5509 23.388 92.2998 23.2349L91.6663 22.8451C91.6264 22.8134 91.5803 22.7904 91.531 22.7778C91.4818 22.7651 91.4304 22.7629 91.3803 22.7714C91.3301 22.78 91.2823 22.799 91.2399 22.8273C91.1975 22.8555 91.1615 22.8924 91.1341 22.9356C91.0105 23.0959 90.8532 23.2267 90.6734 23.3184C90.4187 23.4264 90.143 23.4748 89.8671 23.46C89.5249 23.466 89.1885 23.3708 88.8995 23.1862C88.6215 23.0021 88.448 22.5574 88.3788 21.852H92.5578C92.7882 21.852 92.9126 21.7244 92.9126 21.4692C92.9126 20.1683 92.6385 19.2239 92.0902 18.6361C91.5419 18.0468 90.7148 17.7521 89.563 17.7521ZM88.3719 20.5736C88.3657 20.1545 88.5005 19.7456 88.7544 19.4134C88.8692 19.2751 89.0141 19.1652 89.1779 19.0924C89.3417 19.0195 89.52 18.9857 89.6989 18.9935C89.9023 18.9753 90.1071 19.0056 90.2967 19.0817C90.4864 19.1579 90.6556 19.2779 90.7909 19.432C91.0312 19.7584 91.1525 20.1583 91.1341 20.5643L88.3719 20.5736ZM37.1807 15.4295H36.0081C35.81 15.4295 35.6764 15.5711 35.6096 15.8518L34.4047 20.8659C34.3172 21.2325 34.2596 21.4831 34.2319 21.6154C34.1944 21.8294 34.1698 22.0456 34.1582 22.2627H34.126C34.106 21.9657 34.0853 21.7406 34.0638 21.5875C34.0182 21.3309 33.9567 21.0775 33.8795 20.8288L32.4028 15.9029C32.3106 15.5873 32.1309 15.4388 31.866 15.4388H30.7003C30.4331 15.4388 30.2534 15.5935 30.1612 15.9029L28.6846 20.8288C28.6085 21.0779 28.5469 21.3312 28.5003 21.5875C28.4803 21.7422 28.4596 21.9673 28.4381 22.2627H28.4058C28.3942 22.0456 28.3696 21.8294 28.3321 21.6154C28.3044 21.4831 28.2469 21.2325 28.1593 20.8659L26.9545 15.8518C26.8876 15.5711 26.754 15.4295 26.5559 15.4295H25.3833C25.0976 15.4295 25.0009 15.6012 25.093 15.94L27.247 23.9611C27.3576 24.3741 27.5557 24.5806 27.8414 24.5806H28.9518C29.196 24.5806 29.378 24.3765 29.4955 23.9681L31.0804 18.6199C31.1634 18.3322 31.2118 18.1442 31.2256 18.0561C31.2256 17.9679 31.2555 17.8055 31.2763 17.5665C31.2993 17.7985 31.3154 17.9679 31.3269 18.0561C31.3663 18.2465 31.4156 18.4347 31.4744 18.6199L33.057 23.9681C33.1738 24.3765 33.3558 24.5806 33.603 24.5806H34.7342C35.0229 24.5806 35.221 24.3741 35.3285 23.9611L37.4825 15.94C37.5654 15.6012 37.4687 15.4295 37.1807 15.4295ZM97.7689 17.8426C97.5762 17.7766 97.3733 17.7459 97.1699 17.7521C96.8357 17.7442 96.5094 17.8551 96.2484 18.0654C96.004 18.253 95.8126 18.5018 95.6932 18.787V18.2626C95.7006 18.2104 95.6958 18.1571 95.6791 18.1071C95.6625 18.0571 95.6345 18.0117 95.5973 17.9746C95.5602 17.9374 95.5149 17.9094 95.4652 17.893C95.4155 17.8765 95.3626 17.872 95.3108 17.8797H94.3018C94.25 17.8725 94.1974 17.8774 94.1479 17.894C94.0983 17.9106 94.0533 17.9386 94.0163 17.9756C93.9793 18.0127 93.9512 18.0579 93.9344 18.1077C93.9176 18.1574 93.9124 18.2105 93.9193 18.2626V24.1978C93.912 24.2498 93.9168 24.3028 93.9334 24.3526C93.9499 24.4024 93.9777 24.4476 94.0145 24.4848C94.0514 24.5219 94.0963 24.5499 94.1458 24.5665C94.1952 24.5832 94.2478 24.588 94.2994 24.5806H95.3223C95.3739 24.588 95.4265 24.5832 95.476 24.5665C95.5254 24.5499 95.5704 24.5219 95.6072 24.4848C95.6441 24.4476 95.6719 24.4024 95.6884 24.3526C95.7049 24.3028 95.7097 24.2498 95.7024 24.1978V21.8775C95.7024 20.9402 95.836 20.2271 96.1033 19.7383C96.3682 19.251 96.7045 19.0051 97.11 19.0051C97.2185 19.006 97.326 19.0256 97.4279 19.0631C97.6168 19.1304 97.7297 19.0793 97.7689 18.9099L97.9463 18.1512C97.9579 18.1193 97.9624 18.0851 97.9595 18.0512C97.9566 18.0173 97.9463 17.9845 97.9293 17.9551C97.9124 17.9256 97.8893 17.9003 97.8615 17.8808C97.8338 17.8614 97.8022 17.8484 97.7689 17.8426ZM48.0589 17.7521C46.9624 17.7521 46.1361 18.0615 45.5801 18.6802C45.0242 19.299 44.7462 20.1497 44.7462 21.2325C44.7462 22.3153 45.0242 23.1661 45.5801 23.7848C46.1361 24.4035 46.9624 24.7129 48.0589 24.7129C49.1586 24.7129 49.9856 24.4035 50.5401 23.7848C51.0945 23.1661 51.3725 22.3153 51.374 21.2325C51.374 20.1497 51.096 19.299 50.5401 18.6802C49.9841 18.0615 49.1571 17.7521 48.0589 17.7521ZM49.1279 22.9495C48.9982 23.1084 48.8352 23.2363 48.6506 23.3242C48.4659 23.4121 48.2643 23.4576 48.0601 23.4576C47.8559 23.4576 47.6542 23.4121 47.4696 23.3242C47.285 23.2363 47.122 23.1084 46.9923 22.9495C46.7466 22.6107 46.623 22.0376 46.6214 21.2302C46.6199 20.4227 46.7435 19.8496 46.9923 19.5109C47.122 19.352 47.285 19.224 47.4696 19.1362C47.6542 19.0483 47.8559 19.0028 48.0601 19.0028C48.2643 19.0028 48.4659 19.0483 48.6506 19.1362C48.8352 19.224 48.9982 19.352 49.1279 19.5109C49.3751 19.8496 49.4988 20.4227 49.4988 21.2302C49.4988 22.0376 49.3751 22.6107 49.1279 22.9495ZM40.6294 17.7521C39.5305 17.7521 38.7058 18.0607 38.1483 18.6802C37.5908 19.2997 37.3166 20.1489 37.3166 21.2325C37.3166 22.3161 37.5931 23.1676 38.1483 23.7848C38.7035 24.402 39.5305 24.7129 40.6294 24.7129C41.7283 24.7129 42.5553 24.4043 43.1105 23.7848C43.6657 23.1653 43.9422 22.3161 43.9422 21.2325C43.9422 20.1489 43.6657 19.2974 43.1105 18.6802C42.5553 18.063 41.7283 17.7521 40.6294 17.7521ZM41.6983 22.9495C41.5687 23.1084 41.4057 23.2363 41.221 23.3242C41.0364 23.4121 40.8348 23.4576 40.6306 23.4576C40.4264 23.4576 40.2247 23.4121 40.0401 23.3242C39.8555 23.2363 39.6924 23.1084 39.5628 22.9495C39.3155 22.6107 39.1919 22.0376 39.1919 21.2302C39.1919 20.4227 39.3155 19.8496 39.5628 19.5109C39.6924 19.352 39.8555 19.224 40.0401 19.1362C40.2247 19.0483 40.4264 19.0028 40.6306 19.0028C40.8348 19.0028 41.0364 19.0483 41.221 19.1362C41.4057 19.224 41.5687 19.352 41.6983 19.5109C41.9456 19.8496 42.0685 20.4227 42.0669 21.2302C42.0654 22.0376 41.9425 22.6107 41.6983 22.9495ZM84.0179 20.6292L85.907 18.3345C86.1634 18.0251 86.0966 17.8705 85.7065 17.8705H84.6675C84.5702 17.8712 84.4745 17.8954 84.3883 17.941C84.3021 17.9866 84.2281 18.0523 84.1722 18.1326L82.1634 20.736H82.1404C82.1565 20.5666 82.1634 20.3972 82.1634 20.2255V15.5456C82.1706 15.4938 82.1658 15.441 82.1494 15.3914C82.133 15.3418 82.1055 15.2967 82.0689 15.2597C82.0323 15.2226 81.9877 15.1945 81.9385 15.1777C81.8894 15.1609 81.837 15.1558 81.7856 15.1627H80.7696C80.718 15.1554 80.6654 15.1602 80.616 15.1768C80.5665 15.1935 80.5216 15.2215 80.4847 15.2586C80.4479 15.2957 80.4201 15.341 80.4035 15.3908C80.387 15.4406 80.3822 15.4936 80.3895 15.5456V24.1978C80.3822 24.2498 80.387 24.3028 80.4035 24.3526C80.4201 24.4024 80.4479 24.4476 80.4847 24.4848C80.5216 24.5219 80.5665 24.5499 80.616 24.5665C80.6654 24.5832 80.718 24.588 80.7696 24.5806H81.7856C81.837 24.5876 81.8894 24.5825 81.9385 24.5656C81.9877 24.5488 82.0323 24.5208 82.0689 24.4837C82.1055 24.4466 82.133 24.4015 82.1494 24.3519C82.1658 24.3023 82.1706 24.2496 82.1634 24.1978V22.8961L83.0849 22.0214L84.4187 24.2604C84.4656 24.3558 84.5377 24.4362 84.6272 24.4927C84.7167 24.5492 84.82 24.5797 84.9256 24.5806H86.0083C86.3424 24.5806 86.4092 24.4205 86.2064 24.1027L84.0179 20.6292ZM58.0226 15.1627H57.0527C56.8108 15.1627 56.6887 15.2903 56.6887 15.5456V18.1234C56.6887 18.2927 56.6887 18.4621 56.7141 18.6338H56.6887C56.5231 18.3207 56.2612 18.07 55.9423 17.9192C55.6249 17.8005 55.2879 17.7438 54.9494 17.7521C53.9404 17.7521 53.2301 18.0978 52.8185 18.7893C52.4164 19.5375 52.2059 20.3748 52.2059 21.2255C52.2059 22.0763 52.4164 22.9136 52.8185 23.6618C53.2285 24.3533 53.9388 24.699 54.9494 24.699C55.2879 24.7073 55.6249 24.6506 55.9423 24.5319C56.2612 24.3811 56.5231 24.1304 56.6887 23.8173V24.1885C56.6887 24.4437 56.7947 24.5714 57.0066 24.5714H58.0019C58.0535 24.5787 58.1061 24.5739 58.1555 24.5572C58.205 24.5406 58.2499 24.5126 58.2868 24.4755C58.3236 24.4384 58.3514 24.3931 58.3679 24.3433C58.3845 24.2935 58.3893 24.2405 58.382 24.1885V15.5456C58.3866 15.2903 58.2645 15.1627 58.0226 15.1627ZM56.6887 21.5179C56.7083 22.006 56.5875 22.4894 56.3409 22.9101C56.2595 23.0654 56.1394 23.1967 55.9924 23.2911C55.8453 23.3854 55.6764 23.4397 55.5023 23.4484C54.9156 23.4484 54.5317 23.2473 54.3504 22.8451C53.9879 21.7931 53.9879 20.6487 54.3504 19.5967C54.5301 19.1961 54.9141 18.995 55.5023 18.9935C55.6767 19.0022 55.8459 19.0566 55.993 19.1515C56.14 19.2463 56.26 19.3782 56.3409 19.5341C56.5883 19.9544 56.7091 20.438 56.6887 20.9262V21.5179ZM63.1069 17.7521C62.7684 17.7436 62.4314 17.8003 62.114 17.9192C61.7935 18.0684 61.5305 18.3195 61.3653 18.6338V18.2626C61.3653 18.0074 61.2593 17.8797 61.0497 17.8797H60.0476C59.9959 17.8724 59.9433 17.8772 59.8939 17.8939C59.8444 17.9105 59.7995 17.9385 59.7626 17.9756C59.7258 18.0127 59.698 18.058 59.6815 18.1078C59.665 18.1576 59.6602 18.2106 59.6674 18.2626V26.7501C59.6674 27.0053 59.7895 27.1329 60.0314 27.1329H60.9967C61.2409 27.1329 61.3607 27.0053 61.3607 26.7501V24.337C61.3614 24.1665 61.3529 23.9961 61.3354 23.8266H61.3607C61.5258 24.1409 61.7889 24.392 62.1094 24.5412C62.4268 24.6601 62.7638 24.7168 63.1023 24.7083C64.1114 24.7083 64.8209 24.3625 65.231 23.6711C65.633 22.9229 65.8436 22.0856 65.8436 21.2348C65.8436 20.3841 65.633 19.5468 65.231 18.7986C64.824 18.1009 64.116 17.7521 63.1069 17.7521ZM63.7059 22.8567C63.5239 23.2581 63.1415 23.46 62.554 23.46C62.3798 23.4515 62.2108 23.3974 62.0638 23.303C61.9167 23.2085 61.7966 23.0771 61.7155 22.9217C61.468 22.5013 61.3464 22.0178 61.3653 21.5295V20.9541C61.3456 20.4657 61.4673 19.982 61.7155 19.5619C61.7962 19.4059 61.916 19.2739 62.0632 19.179C62.2103 19.0842 62.3795 19.0298 62.554 19.0213C63.1415 19.0213 63.5239 19.2232 63.7059 19.6246C64.0652 20.6771 64.0652 21.8204 63.7059 22.8729V22.8567ZM69.6656 17.7521C68.6889 17.7521 67.934 18.0615 67.4011 18.6802C66.8681 19.299 66.6009 20.1497 66.5994 21.2325C66.5994 22.3153 66.8566 23.1661 67.3711 23.7848C67.8856 24.4035 68.7495 24.7129 69.9628 24.7129C70.5193 24.742 71.0761 24.6632 71.6031 24.4809C71.9553 24.3232 72.2662 24.0849 72.5108 23.7848C72.6881 23.5713 72.6513 23.388 72.4025 23.2349L71.769 22.8451C71.729 22.8134 71.683 22.7904 71.6337 22.7778C71.5844 22.7651 71.5331 22.7629 71.4829 22.7714C71.4328 22.78 71.385 22.799 71.3426 22.8273C71.3002 22.8555 71.2642 22.8924 71.2368 22.9356C71.1135 23.0962 70.9561 23.2271 70.776 23.3184C70.5222 23.4265 70.2472 23.4749 69.972 23.46C69.6291 23.4661 69.292 23.3709 69.0022 23.1862C68.7242 23.0021 68.5514 22.5574 68.4838 21.852H72.6651C72.8955 21.852 73.0199 21.7244 73.0199 21.4692C73.0199 20.1683 72.745 19.2239 72.1951 18.6361C71.6453 18.0483 70.8022 17.7537 69.6656 17.7521ZM68.4746 20.5736C68.4688 20.1549 68.6026 19.7464 68.8547 19.4134C68.9699 19.2749 69.1153 19.1649 69.2795 19.0921C69.4437 19.0193 69.6223 18.9855 69.8016 18.9935C70.005 18.9753 70.2097 19.0056 70.3994 19.0817C70.5891 19.1579 70.7583 19.2779 70.8935 19.432C71.1329 19.7589 71.254 20.1585 71.2368 20.5643L68.4746 20.5736ZM79.5648 23.0609L78.975 22.5968C78.9385 22.5632 78.895 22.5384 78.8476 22.5242C78.8002 22.51 78.7503 22.5068 78.7015 22.5149C78.6527 22.5229 78.6064 22.542 78.566 22.5706C78.5256 22.5993 78.4922 22.6368 78.4682 22.6804C78.2976 22.8958 78.0966 23.085 77.8715 23.2419C77.6237 23.3982 77.3343 23.4743 77.0422 23.46C76.8353 23.4733 76.6285 23.4334 76.4411 23.3441C76.2537 23.2548 76.0919 23.119 75.971 22.9495C75.7406 22.6107 75.6162 22.0376 75.6162 21.2302C75.6162 20.4227 75.736 19.8496 75.971 19.5109C76.0922 19.3418 76.2541 19.2064 76.4415 19.1176C76.6288 19.0287 76.8355 18.9892 77.0422 19.0027C77.3063 18.9938 77.5676 19.0606 77.7955 19.1953C77.956 19.2845 78.0964 19.4061 78.2079 19.5526C78.353 19.7847 78.5189 19.8264 78.7101 19.6988L79.3805 19.251C79.5533 19.1373 79.574 18.9795 79.4427 18.787C79.2286 18.4544 78.9261 18.1891 78.5696 18.0213C78.085 17.8244 77.5641 17.735 77.0422 17.7591C75.9226 17.7591 75.0925 18.0684 74.5519 18.6872C74.0112 19.3059 73.7409 20.1567 73.7409 21.2395C73.7409 22.3223 74.0112 23.173 74.5519 23.7918C75.0925 24.4105 75.9226 24.7199 77.0422 24.7199C77.7909 24.7199 78.3622 24.5992 78.7562 24.3625C79.0845 24.1833 79.3705 23.9348 79.5947 23.634C79.7514 23.388 79.7422 23.2024 79.5648 23.0609Z" fill="#0B0204"/>
<path d="M97.3355 24.5889C97.335 24.4743 97.357 24.361 97.4 24.2561C97.4393 24.1565 97.4965 24.0661 97.5681 23.9899C97.6793 23.875 97.8193 23.7972 97.9711 23.7661C98.1229 23.735 98.2799 23.752 98.4228 23.8149C98.5163 23.8552 98.6016 23.9147 98.6739 23.9899C98.7455 24.0643 98.8027 24.1531 98.8421 24.2512C98.8859 24.354 98.9079 24.466 98.9066 24.579C98.9082 24.6936 98.8861 24.8072 98.8421 24.9118C98.781 25.062 98.6802 25.1899 98.5521 25.2797C98.424 25.3694 98.2742 25.4172 98.121 25.4171C97.9136 25.4157 97.7151 25.3272 97.5681 25.1706C97.4953 25.0935 97.4375 25.0018 97.3979 24.9006C97.3584 24.7995 97.3379 24.6911 97.3378 24.5815L97.3355 24.5889ZM97.4622 24.5889C97.4612 24.6844 97.4784 24.7792 97.5128 24.8674C97.5457 24.9518 97.5943 25.0281 97.6557 25.0917C97.7154 25.1553 97.7857 25.2063 97.863 25.2421C97.9843 25.2975 98.1184 25.3126 98.2479 25.2854C98.3773 25.2581 98.4961 25.1898 98.5887 25.0892C98.6492 25.0244 98.6969 24.9473 98.7292 24.8625C98.7639 24.7726 98.7811 24.6762 98.7799 24.579C98.7809 24.4834 98.7636 24.3886 98.7292 24.3005C98.6964 24.2159 98.6487 24.139 98.5887 24.0737C98.528 24.0108 98.4569 23.9607 98.379 23.9258C98.2948 23.8868 98.2036 23.8674 98.1118 23.8691C98.0234 23.8693 97.9358 23.8878 97.8538 23.9233C97.777 23.96 97.7068 24.0109 97.6465 24.0737C97.585 24.1382 97.5365 24.2153 97.5036 24.3005C97.4715 24.3926 97.4574 24.4907 97.4622 24.5889ZM97.8308 24.1082H98.1602C98.2452 24.1003 98.3303 24.1228 98.4021 24.1723C98.429 24.1991 98.4498 24.2321 98.463 24.2689C98.4761 24.3056 98.4813 24.3451 98.4781 24.3843C98.481 24.4195 98.4763 24.4549 98.4643 24.4878C98.4523 24.5208 98.4334 24.5503 98.409 24.5741C98.3612 24.616 98.3025 24.641 98.2408 24.6455L98.5011 25.072H98.3629L98.1118 24.6579H97.9505V25.072H97.8261L97.8308 24.1082ZM97.9552 24.5371H98.2017C98.2285 24.5346 98.2549 24.528 98.28 24.5174C98.3018 24.5082 98.3204 24.4918 98.333 24.4705C98.3482 24.443 98.3554 24.4113 98.3537 24.3793C98.3544 24.3517 98.3481 24.3244 98.3353 24.3005C98.3241 24.2814 98.3081 24.266 98.2892 24.2561C98.2683 24.2447 98.2457 24.2372 98.2224 24.2339H97.9552V24.5371Z" fill="#0B0204"/>
</svg>
