<svg width="45" height="38" viewBox="0 0 45 38" fill="none" xmlns="http://www.w3.org/2000/svg">
<g clip-path="url(#clip0_21_20921)">
<path d="M40.3356 9.06705C40.7682 9.0404 41.1968 9.16386 41.549 9.41658C41.9012 9.66931 42.1554 10.0358 42.2686 10.4542C42.3978 11.2613 42.3212 12.0878 42.0462 12.8574C40.4756 18.7187 40.4863 24.872 38.4791 30.6427C38.3681 31.0711 38.1538 31.4659 37.8549 31.7924C37.0764 32.3364 36.1149 32.5519 35.1787 32.3923C25.1735 31.8411 15.2187 30.5951 5.38625 28.6634C4.95851 28.6161 4.54664 28.4743 4.18051 28.2481C3.80426 27.957 3.53806 27.5467 3.42555 27.0844C3.09882 25.9108 2.98046 24.6889 3.07587 23.4743C3.2456 20.8626 3.57682 18.2639 4.06769 15.6932C4.5992 12.5299 5.13644 9.3945 5.79741 6.23958C5.86444 5.55006 6.18146 4.90889 6.68867 4.43703C7.52356 3.99076 8.49451 3.87072 9.41294 4.10022C15.6217 5.01314 21.6146 6.82967 27.8299 7.71802C32.5066 8.35214 37.3191 8.42999 41.8141 9.5949" fill="white"/>
<path d="M40.3685 8.94429C40.6657 8.93789 40.9609 8.99469 41.2345 9.11096C41.5082 9.22722 41.754 9.40029 41.9557 9.61869C42.1574 9.8371 42.3104 10.0959 42.4046 10.3779C42.4988 10.6599 42.532 10.9586 42.502 11.2544C42.4114 12.1011 42.2402 12.9373 41.991 13.7515C41.7012 14.8328 41.5254 15.9315 41.3373 17.0269C40.8247 21.2319 40.0465 25.4002 39.0073 29.5068C38.6254 30.9322 38.2216 32.1937 36.5734 32.3974C35.7013 32.4547 34.8257 32.4317 33.9578 32.3287C32.8172 32.2602 31.6676 32.176 30.518 32.0919C26.2179 31.7562 21.9508 31.2977 17.7165 30.7163C13.5233 30.1458 9.24639 29.5925 5.09944 28.6525C3.47745 28.2179 3.1144 26.8695 2.97036 25.3427C2.86679 23.3698 2.98599 21.3916 3.32569 19.4455C3.9126 15.1908 4.68467 10.933 5.54849 6.72615C5.81148 5.40059 6.11134 4.0849 7.63992 3.83598C8.35129 3.75527 9.0711 3.79242 9.77038 3.94589C10.9125 4.10705 12.0415 4.31736 13.1671 4.53996C17.9746 5.47251 22.7177 6.74343 27.582 7.41464C32.4462 8.08586 37.2096 8.15056 41.9078 9.34358C41.9404 9.35231 41.9681 9.37362 41.985 9.40284C42.0019 9.43206 42.0065 9.46678 41.9977 9.49937C41.989 9.53196 41.9677 9.55976 41.9384 9.57663C41.9092 9.5935 41.8745 9.59806 41.8419 9.58933C38.0412 8.78143 34.1868 8.25044 30.3092 8.00054C26.5757 7.56896 22.8694 6.92762 19.2079 6.07957C17.3294 5.66841 15.4788 5.25155 13.5535 4.86737C11.7691 4.37887 9.93304 4.10354 8.08382 4.04712C7.59326 4.03874 7.11563 4.20457 6.73581 4.51514C6.35599 4.82571 6.09863 5.2609 6.00942 5.74336C5.77236 6.62808 5.61473 7.56044 5.45139 8.46492C5.08039 10.341 4.75851 12.2303 4.43996 14.1073C4.1214 15.9843 3.79146 17.8055 3.54422 19.6621C3.21831 21.5361 3.10551 23.4411 3.20799 25.3405C3.297 26.2863 3.47727 27.6779 4.43789 28.1724C5.39037 28.5217 6.38476 28.7438 7.39533 28.8331C9.28621 29.1817 11.1878 29.5069 13.1 29.8085C16.9982 30.4316 20.9168 30.946 24.8557 31.3517C26.7254 31.5498 28.5895 31.72 30.4757 31.8566C32.3294 32.0787 34.1945 32.1915 36.0615 32.1944C36.5465 32.2073 37.0272 32.1009 37.4615 31.8847C37.9674 31.5043 38.3135 30.949 38.4319 30.3272C38.7789 29.3271 39.0522 28.3072 39.2551 27.2553C39.7885 25.2646 40.0515 23.2016 40.3481 21.1607C40.6448 19.1198 40.9587 16.965 41.3923 14.8554C41.5844 13.8928 41.9026 12.9508 42.0578 11.9783C42.3011 10.7265 41.9278 9.07236 40.288 9.1466C40.2696 9.15002 40.2506 9.14934 40.2325 9.14459C40.2144 9.13985 40.1975 9.13119 40.1832 9.11919C40.1688 9.10719 40.1572 9.09215 40.1493 9.07518C40.1415 9.0582 40.1374 9.03968 40.1375 9.02096C40.1376 9.00224 40.1418 8.98377 40.1498 8.96687C40.1579 8.94996 40.1696 8.93504 40.184 8.92316C40.1985 8.91129 40.2154 8.90275 40.2336 8.89818C40.2517 8.8936 40.2707 8.89309 40.2891 8.89668L40.3685 8.94429Z" fill="black"/>
<path d="M40.9454 11.7063L37.4066 29.8283C37.1959 30.6147 35.9671 30.2855 36.1779 29.4991L39.7166 11.377C39.9274 10.5906 41.1561 10.9199 40.9454 11.7063Z" fill="black"/>
<path d="M39.1274 11.3642C28.6979 10.2177 18.3331 8.54376 8.07291 6.34883C7.28649 6.13811 7.61574 4.90933 8.40216 5.12005C18.5524 7.29593 28.8061 8.95767 39.124 10.0989C39.9311 10.1835 39.9435 11.4643 39.1142 11.4133L39.1274 11.3642Z" fill="black"/>
<path d="M35.4468 30.9494C25.7182 30.0987 16.0318 28.8773 6.38764 27.2853C5.58146 27.1483 5.923 25.9228 6.71689 26.0565C16.248 27.6445 25.8235 28.8538 35.4434 29.6842C36.2538 29.7565 36.2694 31.025 35.4336 30.9986L35.4468 30.9494Z" fill="black"/>
<path d="M7.70791 7.31772L8.33168 5.82543C8.57903 5.24637 9.58005 5.54094 9.56046 6.15468C8.96718 12.7839 8.03537 19.3784 6.7687 25.9124C6.55798 26.6988 5.32919 26.3696 5.53991 25.5832C6.76268 19.1499 7.64955 12.6573 8.19691 6.13173L9.4257 6.46099L8.80193 7.95327C8.48062 8.71006 7.45461 8.06639 7.66204 7.29226L7.70791 7.31772Z" fill="black"/>
<path d="M40.2153 11.6294C34.9017 14.7909 29.4039 17.6321 23.7513 20.1377C23.0019 20.4769 22.3633 19.3707 23.1094 19.0438C28.7564 16.5468 34.2534 13.7234 39.5724 10.5879C40.2801 10.1585 40.9065 11.2614 40.2021 11.6785L40.2153 11.6294Z" fill="black"/>
<path d="M22.3767 19.8614C17.2384 15.8911 12.507 11.4205 8.25218 6.51524C7.71945 5.89837 8.65715 5.00384 9.15302 5.61083C13.3264 10.449 17.9734 14.8576 23.0245 18.7706C23.6582 19.2565 23.0316 20.3661 22.3635 19.9105L22.3767 19.8614Z" fill="black"/>
<path d="M39.2319 10.2859C39.3612 10.1763 39.511 10.0936 39.6727 10.0426C39.8344 9.9917 40.0046 9.97357 40.1734 9.98934C40.3421 10.0051 40.506 10.0545 40.6555 10.1345C40.8049 10.2145 40.9368 10.3236 41.0435 10.4553C41.5958 11.1959 41.146 12.4319 41.0213 13.2414C40.5963 15.7615 40.1467 18.2751 39.6438 20.8402C39.1408 23.4053 38.6339 25.8376 38.1025 28.2634C37.8786 29.099 37.8394 30.3264 37.0161 30.8434C36.8645 30.9453 36.694 31.0161 36.5147 31.0513C36.3354 31.0866 36.1508 31.0858 35.9718 31.0489C35.7929 31.0119 35.623 30.9397 35.4723 30.8363C35.3216 30.733 35.193 30.6006 35.0941 30.4469C34.6926 29.7335 35.7866 29.0915 36.1881 29.8049C36.314 30.0231 36.5739 29.2498 36.5969 29.1638C36.7056 28.7583 36.8142 28.3528 36.9262 27.935L37.4741 25.4478C37.793 23.9134 38.1153 22.3666 38.413 20.8133C38.7106 19.26 39.0051 17.7189 39.2782 16.159L39.7278 13.6455L39.9341 12.3838C40 12.138 39.9772 11.289 40.1897 11.1352C39.5548 11.6368 38.6537 10.7237 39.2975 10.2377L39.2319 10.2859Z" fill="black"/>
<path d="M8.40642 6.33289L5.97139 26.5287L5.65655 25.9833L5.59512 25.9669C6.30853 25.5654 6.94721 26.6716 6.22152 27.0698C6.04226 27.1829 5.83397 27.2416 5.62202 27.2385C5.41006 27.2355 5.20356 27.171 5.02759 27.0528C4.9323 26.997 4.85317 26.9175 4.79796 26.8218C4.74276 26.7262 4.71339 26.6179 4.71275 26.5075L7.15103 6.29941C7.24787 5.49565 8.5164 5.47996 8.46542 6.30919L8.40642 6.33289Z" fill="black"/>
<path d="M39.9132 11.4298C39.3783 10.5753 37.3942 10.7548 36.5347 10.6694C35.1852 10.5449 33.839 10.408 32.5027 10.2344C29.8093 9.89898 27.1323 9.50216 24.4718 9.04391C21.8114 8.58565 19.1574 8.10282 16.5101 7.59542C15.1813 7.34471 13.868 7.08503 12.5359 6.84661L10.5549 6.47383C10.3951 6.43103 8.43367 6.18203 8.54073 6.42144L7.34722 6.74698C7.31359 6.46271 7.3549 6.1746 7.46705 5.91124C7.57921 5.64788 7.7583 5.41842 7.98654 5.24568C8.60911 4.74082 9.48564 5.64736 8.87865 6.14322C8.65978 6.32007 8.51647 6.57366 8.4779 6.8524C8.37954 7.56357 7.16939 7.41052 7.20302 6.69518L7.25797 5.99871L8.34892 6.44908L8.13385 6.76021C7.85269 7.51459 6.69105 7.22967 6.90506 6.43096C7.08461 5.93153 7.44358 5.51679 7.91207 5.26742C8.38056 5.01806 8.92508 4.95192 9.43964 5.08189L9.11038 6.31068C8.23795 6.07691 8.33297 8.13056 8.26753 8.71885L8.01633 11.1802C7.85381 12.7697 7.66671 14.3527 7.47633 15.948C7.07918 19.1341 6.63176 22.3111 6.13411 25.479C6.0094 26.2885 4.78391 25.947 4.90533 25.1498C5.52292 21.272 6.04791 17.3958 6.49917 13.4999C6.70714 11.5933 6.92169 9.66209 7.09191 7.79803C7.05197 7.03837 7.25368 6.28558 7.66811 5.64766C7.88316 5.40282 8.16435 5.22528 8.47787 5.1364C8.79139 5.04752 9.12388 5.05107 9.43544 5.14662C9.59838 5.19028 9.73734 5.2969 9.82168 5.443C9.90603 5.58909 9.92886 5.76269 9.8852 5.92564C9.84154 6.08859 9.73497 6.22751 9.58887 6.31186C9.44278 6.39621 9.26913 6.41907 9.10618 6.37541C8.74983 6.27992 8.26291 6.42602 8.12969 6.82493L6.9009 6.49568C7.02336 6.1656 7.20756 5.86186 7.44364 5.60068C7.53457 5.51583 7.64797 5.4589 7.77034 5.43668C7.8927 5.41445 8.01885 5.42787 8.13381 5.47533C8.24876 5.52278 8.34768 5.60227 8.41873 5.70434C8.48979 5.80641 8.53 5.92675 8.53459 6.05103L8.47968 6.74751L7.2081 6.57799C7.29236 6.07738 7.55416 5.62389 7.94552 5.30054L8.83763 6.19808C8.73985 6.2584 8.66249 6.34675 8.6156 6.45163C8.5687 6.5565 8.55448 6.67306 8.57471 6.78614C8.65673 7.41394 7.63699 7.68068 7.39347 7.11497C7.30328 6.88954 7.2696 6.64546 7.29538 6.40404C7.32117 6.16261 7.40562 5.93117 7.54138 5.72988C7.67713 5.52858 7.86009 5.36356 8.07427 5.24919C8.28844 5.13482 8.52734 5.07457 8.77014 5.07372C9.46851 5.04591 10.1671 5.12214 10.8431 5.29991L13.2886 5.75763C16.5493 6.36792 19.8067 6.99052 23.074 7.57625C26.3412 8.16197 29.7143 8.697 33.0711 9.096C34.7188 9.28726 36.3763 9.44166 38.0372 9.58378C38.5923 9.54708 39.1482 9.64232 39.6594 9.86171C40.1706 10.0811 40.6226 10.4184 40.9784 10.846C41.4233 11.5447 40.3204 12.1711 39.8722 11.4846L39.9132 11.4298Z" fill="black"/>
<path d="M6.11305 26C6.58933 26.3514 7.16284 26.5465 7.75458 26.5584C8.35669 26.7198 9.0064 26.8017 9.58482 26.904C10.8432 27.1226 12.1017 27.3413 13.3667 27.5354C15.8934 27.9358 18.4365 28.2748 21.051 28.5935C26.1571 29.1978 31.3192 29.5932 36.4168 29.787C37.237 29.8224 37.2404 31.0876 36.4193 31.1046C30.9735 30.8834 25.5416 30.4464 20.1236 29.7937C17.4957 29.4758 14.874 29.1026 12.2582 28.6739C10.9318 28.4633 9.6119 28.2282 8.29204 27.9931C7.16778 27.9563 6.07971 27.5868 5.16547 26.9315C5.04553 26.812 4.97796 26.6498 4.97762 26.4805C4.97729 26.3112 5.04422 26.1488 5.16368 26.0288C5.28314 25.9089 5.44537 25.8413 5.61465 25.841C5.78392 25.8407 5.94638 25.9076 6.06631 26.027L6.11305 26Z" fill="black"/>
</g>
<defs>
<clipPath id="clip0_21_20921">
<rect width="28.2487" height="38.2529" fill="white" transform="translate(44.2608 9.90059) rotate(105)"/>
</clipPath>
</defs>
</svg>
