<svg width="96" height="11" viewBox="0 0 96 11" fill="none" xmlns="http://www.w3.org/2000/svg">
<path d="M3.836 10.066C3.11733 10.066 2.47333 9.94933 1.904 9.716C1.33467 9.48267 0.877333 9.13733 0.532 8.68C0.196 8.22267 0.0186667 7.672 0 7.028H2.548C2.58533 7.392 2.71133 7.672 2.926 7.868C3.14067 8.05467 3.42067 8.148 3.766 8.148C4.12067 8.148 4.40067 8.06867 4.606 7.91C4.81133 7.742 4.914 7.51333 4.914 7.224C4.914 6.98133 4.83 6.78067 4.662 6.622C4.50333 6.46333 4.30267 6.33267 4.06 6.23C3.82667 6.12733 3.49067 6.01067 3.052 5.88C2.41733 5.684 1.89933 5.488 1.498 5.292C1.09667 5.096 0.751333 4.80667 0.462 4.424C0.172667 4.04133 0.028 3.542 0.028 2.926C0.028 2.01133 0.359333 1.29733 1.022 0.784C1.68467 0.261334 2.548 0 3.612 0C4.69467 0 5.56733 0.261334 6.23 0.784C6.89267 1.29733 7.24733 2.016 7.294 2.94H4.704C4.68533 2.62267 4.56867 2.37533 4.354 2.198C4.13933 2.01133 3.864 1.918 3.528 1.918C3.23867 1.918 3.00533 1.99733 2.828 2.156C2.65067 2.30533 2.562 2.52467 2.562 2.814C2.562 3.13133 2.71133 3.37867 3.01 3.556C3.30867 3.73333 3.77533 3.92467 4.41 4.13C5.04467 4.34467 5.558 4.55 5.95 4.746C6.35133 4.942 6.69667 5.22667 6.986 5.6C7.27533 5.97333 7.42 6.454 7.42 7.042C7.42 7.602 7.27533 8.11067 6.986 8.568C6.706 9.02533 6.29533 9.38933 5.754 9.66C5.21267 9.93067 4.57333 10.066 3.836 10.066Z" fill="#EC1940"/>
<path d="M16.3833 3.304C16.3833 3.87333 16.2526 4.396 15.9913 4.872C15.7299 5.33867 15.3286 5.71667 14.7873 6.006C14.2459 6.29533 13.5739 6.44 12.7713 6.44H11.2873V9.968H8.89328V0.14L12.7713 0.14C13.5553 0.14 14.2179 0.275333 14.7593 0.546C15.3006 0.816666 15.7066 1.19 15.9773 1.666C16.2479 2.142 16.3833 2.688 16.3833 3.304ZM12.5893 4.536C13.0466 4.536 13.3873 4.42867 13.6113 4.214C13.8353 3.99933 13.9473 3.696 13.9473 3.304C13.9473 2.912 13.8353 2.60867 13.6113 2.394C13.3873 2.17933 13.0466 2.072 12.5893 2.072L11.2873 2.072V4.536H12.5893Z" fill="#EC1940"/>
<path d="M23.7476 8.232H20.0796L19.4916 9.968H16.9856L20.5416 0.14L23.3136 0.14L26.8696 9.968H24.3356L23.7476 8.232ZM23.1316 6.384L21.9136 2.786L20.7096 6.384H23.1316Z" fill="#EC1940"/>
<path d="M39.0819 0.14V9.968H36.6879V4.074L34.4899 9.968H32.5579L30.3459 4.06V9.968H27.9519V0.14L30.7799 0.14L33.5379 6.944L36.2679 0.14L39.0819 0.14Z" fill="#EC1940"/>
<path d="M57.2942 0.14L54.7322 9.968H51.8342L50.2662 3.5L48.6422 9.968L45.7442 9.968L43.2522 0.14L45.8142 0.14L47.2282 7.294L48.9782 0.14L51.6102 0.14L53.2902 7.294L54.7182 0.14L57.2942 0.14Z" fill="#EC1940"/>
<path d="M63.1428 10.066C62.2188 10.066 61.3695 9.85133 60.5948 9.422C59.8295 8.99267 59.2182 8.39533 58.7608 7.63C58.3128 6.85533 58.0888 5.98733 58.0888 5.026C58.0888 4.06467 58.3128 3.20133 58.7608 2.436C59.2182 1.67067 59.8295 1.07333 60.5948 0.644C61.3695 0.214667 62.2188 0 63.1428 0C64.0668 0 64.9115 0.214667 65.6768 0.644C66.4515 1.07333 67.0582 1.67067 67.4968 2.436C67.9448 3.20133 68.1688 4.06467 68.1688 5.026C68.1688 5.98733 67.9448 6.85533 67.4968 7.63C67.0489 8.39533 66.4422 8.99267 65.6768 9.422C64.9115 9.85133 64.0668 10.066 63.1428 10.066ZM63.1428 7.882C63.9268 7.882 64.5522 7.62067 65.0188 7.098C65.4948 6.57533 65.7328 5.88467 65.7328 5.026C65.7328 4.158 65.4948 3.46733 65.0188 2.954C64.5522 2.43133 63.9268 2.17 63.1428 2.17C62.3495 2.17 61.7148 2.42667 61.2388 2.94C60.7722 3.45333 60.5388 4.14867 60.5388 5.026C60.5388 5.894 60.7722 6.58933 61.2388 7.112C61.7148 7.62533 62.3495 7.882 63.1428 7.882Z" fill="#EC1940"/>
<path d="M74.5127 9.968L72.4687 6.258L71.8947 6.258V9.968H69.5007V0.14L73.5187 0.14C74.2934 0.14 74.9514 0.275333 75.4927 0.546C76.0434 0.816666 76.454 1.19 76.7247 1.666C76.9954 2.13267 77.1307 2.65533 77.1307 3.234C77.1307 3.88733 76.944 4.47067 76.5707 4.984C76.2067 5.49733 75.6654 5.86133 74.9467 6.076L77.2147 9.968H74.5127ZM71.8947 4.564L73.3787 4.564C73.8174 4.564 74.144 4.45667 74.3587 4.242C74.5827 4.02733 74.6947 3.724 74.6947 3.332C74.6947 2.95867 74.5827 2.66467 74.3587 2.45C74.144 2.23533 73.8174 2.128 73.3787 2.128H71.8947V4.564Z" fill="#EC1940"/>
<path d="M82.3155 0.14C83.3515 0.14 84.2569 0.345333 85.0315 0.756C85.8062 1.16667 86.4035 1.74533 86.8235 2.492C87.2529 3.22933 87.4675 4.08333 87.4675 5.054C87.4675 6.01533 87.2529 6.86933 86.8235 7.616C86.4035 8.36267 85.8015 8.94133 85.0175 9.352C84.2429 9.76267 83.3422 9.968 82.3155 9.968L78.6335 9.968V0.14L82.3155 0.14ZM82.1615 7.896C83.0669 7.896 83.7715 7.64867 84.2755 7.154C84.7795 6.65933 85.0315 5.95933 85.0315 5.054C85.0315 4.14867 84.7795 3.444 84.2755 2.94C83.7715 2.436 83.0669 2.184 82.1615 2.184H81.0275V7.896H82.1615Z" fill="#EC1940"/>
<path d="M92.3614 10.066C91.6427 10.066 90.9987 9.94933 90.4294 9.716C89.8601 9.48267 89.4027 9.13733 89.0574 8.68C88.7214 8.22267 88.5441 7.672 88.5254 7.028H91.0734C91.1107 7.392 91.2367 7.672 91.4514 7.868C91.6661 8.05467 91.9461 8.148 92.2914 8.148C92.6461 8.148 92.9261 8.06867 93.1314 7.91C93.3367 7.742 93.4394 7.51333 93.4394 7.224C93.4394 6.98133 93.3554 6.78067 93.1874 6.622C93.0287 6.46333 92.8281 6.33267 92.5854 6.23C92.3521 6.12733 92.0161 6.01067 91.5774 5.88C90.9427 5.684 90.4247 5.488 90.0234 5.292C89.6221 5.096 89.2767 4.80667 88.9874 4.424C88.6981 4.04133 88.5534 3.542 88.5534 2.926C88.5534 2.01133 88.8847 1.29733 89.5474 0.784C90.2101 0.261334 91.0734 0 92.1374 0C93.2201 0 94.0927 0.261334 94.7554 0.784C95.4181 1.29733 95.7727 2.016 95.8194 2.94H93.2294C93.2107 2.62267 93.0941 2.37533 92.8794 2.198C92.6647 2.01133 92.3894 1.918 92.0534 1.918C91.7641 1.918 91.5307 1.99733 91.3534 2.156C91.1761 2.30533 91.0874 2.52467 91.0874 2.814C91.0874 3.13133 91.2367 3.37867 91.5354 3.556C91.8341 3.73333 92.3007 3.92467 92.9354 4.13C93.5701 4.34467 94.0834 4.55 94.4754 4.746C94.8767 4.942 95.2221 5.22667 95.5114 5.6C95.8007 5.97333 95.9454 6.454 95.9454 7.042C95.9454 7.602 95.8007 8.11067 95.5114 8.568C95.2314 9.02533 94.8207 9.38933 94.2794 9.66C93.7381 9.93067 93.0987 10.066 92.3614 10.066Z" fill="#EC1940"/>
</svg>
