<svg width="49" height="11" viewBox="0 0 49 11" fill="none" xmlns="http://www.w3.org/2000/svg">
<path d="M8.792 9.968H6.398L2.394 3.906L2.394 9.968H0L0 0.14L2.394 0.14L6.398 6.23V0.14L8.792 0.14V9.968Z" fill="#EC1940"/>
<path d="M15.1753 10.066C14.2513 10.066 13.402 9.85133 12.6273 9.422C11.862 8.99267 11.2507 8.39533 10.7933 7.63C10.3453 6.85533 10.1213 5.98733 10.1213 5.026C10.1213 4.06467 10.3453 3.20133 10.7933 2.436C11.2507 1.67067 11.862 1.07333 12.6273 0.644C13.402 0.214667 14.2513 0 15.1753 0C16.0993 0 16.944 0.214667 17.7093 0.644C18.484 1.07333 19.0907 1.67067 19.5293 2.436C19.9773 3.20133 20.2013 4.06467 20.2013 5.026C20.2013 5.98733 19.9773 6.85533 19.5293 7.63C19.0813 8.39533 18.4747 8.99267 17.7093 9.422C16.944 9.85133 16.0993 10.066 15.1753 10.066ZM15.1753 7.882C15.9593 7.882 16.5847 7.62067 17.0513 7.098C17.5273 6.57533 17.7653 5.88467 17.7653 5.026C17.7653 4.158 17.5273 3.46733 17.0513 2.954C16.5847 2.43133 15.9593 2.17 15.1753 2.17C14.382 2.17 13.7473 2.42667 13.2713 2.94C12.8047 3.45333 12.5713 4.14867 12.5713 5.026C12.5713 5.894 12.8047 6.58933 13.2713 7.112C13.7473 7.62533 14.382 7.882 15.1753 7.882Z" fill="#EC1940"/>
<path d="M28.056 10.066C27.3373 10.066 26.6933 9.94933 26.124 9.716C25.5547 9.48267 25.0973 9.13733 24.752 8.68C24.416 8.22267 24.2387 7.672 24.22 7.028H26.768C26.8053 7.392 26.9313 7.672 27.146 7.868C27.3607 8.05467 27.6407 8.148 27.986 8.148C28.3407 8.148 28.6207 8.06867 28.826 7.91C29.0313 7.742 29.134 7.51333 29.134 7.224C29.134 6.98133 29.05 6.78067 28.882 6.622C28.7233 6.46333 28.5227 6.33267 28.28 6.23C28.0467 6.12733 27.7107 6.01067 27.272 5.88C26.6373 5.684 26.1193 5.488 25.718 5.292C25.3167 5.096 24.9713 4.80667 24.682 4.424C24.3927 4.04133 24.248 3.542 24.248 2.926C24.248 2.01133 24.5793 1.29733 25.242 0.784C25.9047 0.261334 26.768 0 27.832 0C28.9147 0 29.7873 0.261334 30.45 0.784C31.1127 1.29733 31.4673 2.016 31.514 2.94H28.924C28.9053 2.62267 28.7887 2.37533 28.574 2.198C28.3593 2.01133 28.084 1.918 27.748 1.918C27.4587 1.918 27.2253 1.99733 27.048 2.156C26.8707 2.30533 26.782 2.52467 26.782 2.814C26.782 3.13133 26.9313 3.37867 27.23 3.556C27.5287 3.73333 27.9953 3.92467 28.63 4.13C29.2647 4.34467 29.778 4.55 30.17 4.746C30.5713 4.942 30.9167 5.22667 31.206 5.6C31.4953 5.97333 31.64 6.454 31.64 7.042C31.64 7.602 31.4953 8.11067 31.206 8.568C30.926 9.02533 30.5153 9.38933 29.974 9.66C29.4327 9.93067 28.7933 10.066 28.056 10.066Z" fill="#EC1940"/>
<path d="M40.6033 3.304C40.6033 3.87333 40.4726 4.396 40.2113 4.872C39.9499 5.33867 39.5486 5.71667 39.0073 6.006C38.466 6.29533 37.7939 6.44 36.9913 6.44H35.5073V9.968H33.1133V0.14L36.9913 0.14C37.7753 0.14 38.438 0.275333 38.9793 0.546C39.5206 0.816666 39.9266 1.19 40.1973 1.666C40.4679 2.142 40.6033 2.688 40.6033 3.304ZM36.8093 4.536C37.2666 4.536 37.6073 4.42867 37.8313 4.214C38.0553 3.99933 38.1673 3.696 38.1673 3.304C38.1673 2.912 38.0553 2.60867 37.8313 2.394C37.6073 2.17933 37.2666 2.072 36.8093 2.072L35.5073 2.072V4.536H36.8093Z" fill="#EC1940"/>
<path d="M48.2476 0.14V2.058H44.2436V4.13H47.2396V5.992H44.2436V9.968H41.8496V0.14L48.2476 0.14Z" fill="#EC1940"/>
</svg>
