<svg width="46" height="53" viewBox="0 0 46 53" fill="none" xmlns="http://www.w3.org/2000/svg">
<g clip-path="url(#clip0_21_20842)">
<path d="M16.4496 7.03105C13.6703 8.95993 11.3907 11.5243 9.80029 14.5112C8.1757 17.5705 7.61401 21.0831 8.20367 24.4959C9.015 28.6174 11.7933 32.2995 11.4547 36.521C11.255 37.6168 11.1852 38.7323 11.2469 39.8443C11.5688 41.7592 13.2651 43.0029 14.8229 43.9773L22.8234 49.1199C24.3953 50.1238 26.2227 51.1682 27.9839 50.5465C29.0669 50.0268 29.9882 49.2219 30.6489 48.2183C32.4134 46.0925 33.932 43.774 35.1757 41.3069C36.4233 38.7975 37.0417 36.0222 36.9775 33.2208C36.8272 32.0335 36.7915 30.8345 36.8711 29.6403C37.0676 28.6412 37.3832 27.6691 37.8112 26.7451C38.9177 23.9632 39.7136 21.0677 40.1845 18.1112C40.5432 15.9319 40.6782 13.5516 39.6168 11.6843C39.1451 10.9298 38.5523 10.2584 37.8623 9.69695C34.9228 7.15044 31.2825 5.55224 27.4187 5.11181C23.5548 4.67138 19.6475 5.40927 16.2089 7.22876" fill="white"/>
<path d="M16.3853 6.93495C12.817 9.3808 10.1125 12.8925 8.65841 16.9681C7.99625 18.9281 7.73702 21.0017 7.89632 23.0642C8.12811 24.9789 8.64191 26.8485 9.42103 28.6124C10.2095 30.3901 10.8124 32.2445 11.2202 34.1463C11.3946 35.1724 11.4083 36.2195 11.2608 37.25C11.0565 38.2156 11.0363 39.211 11.2015 40.1839C11.7464 41.6755 12.8121 42.9195 14.2019 43.6864C16.2616 45.0818 18.3814 46.3756 20.4564 47.7273C22.1659 48.8284 23.986 50.3483 26.028 50.7444C28.07 51.1406 29.3348 49.9773 30.4491 48.6142C33.3376 45.0525 36.0244 41.0523 36.8041 36.4457C36.9921 35.3646 37.0604 34.266 37.0076 33.17C36.8339 31.9439 36.8123 30.7009 36.9432 29.4694C37.2572 28.2575 37.6716 27.0739 38.182 25.9308C38.5975 24.744 38.9815 23.5421 39.3341 22.3251C39.9504 20.172 40.3155 17.9548 40.4221 15.7178C40.5632 13.9025 40.0058 12.1022 38.864 10.6851C36.3753 7.9913 33.1116 6.13758 29.5237 5.38005C25.9009 4.55186 22.1167 4.77519 18.6154 6.02382C17.7661 6.33325 16.9404 6.70384 16.1445 7.13266C16.0414 7.18236 16.1701 7.37455 16.2733 7.32485C19.5109 5.63872 23.1583 4.90182 26.7953 5.19902C30.4323 5.49622 33.911 6.81544 36.8305 9.00471C37.6905 9.54768 38.4329 10.2577 39.0138 11.0928C39.5947 11.9279 40.0023 12.8711 40.2126 13.8667C40.4066 16.0187 40.2075 18.1882 39.625 20.2692C39.1476 22.4605 38.4898 24.6086 37.6584 26.6916C37.2368 27.6267 36.9225 28.6066 36.7216 29.6125C36.6329 30.715 36.6552 31.8236 36.7882 32.9215C37.0592 37.4668 35.0965 41.7082 32.5577 45.3556C31.9555 46.236 31.3134 47.0901 30.6534 47.9256C30.0667 48.8171 29.318 49.5905 28.4463 50.2057C26.5129 51.3188 24.4428 50.1282 22.7912 49.0718L16.7975 45.1958C15.2076 44.1733 13.2912 43.2082 12.1408 41.6652C10.7606 39.8334 11.629 37.808 11.5941 35.7729C11.5189 34.21 11.189 32.6699 10.6176 31.2136C9.9229 29.2785 9.02247 27.4062 8.50082 25.3969C7.93509 23.148 7.91822 20.7958 8.45164 18.5385C9.67578 13.8868 12.5392 9.8339 16.514 7.12714C16.5992 7.05887 16.4704 6.86668 16.3853 6.93495Z" fill="black"/>
<path d="M24.7484 11.567C21.0816 10.038 17.0925 12.8589 15.4783 16.0699C14.6648 17.6917 14.3454 19.5167 14.5599 21.3181C14.7743 23.1195 15.5132 24.8179 16.6845 26.2022C17.8788 27.6078 19.4961 28.5883 21.2944 28.9968C23.0927 29.4054 24.9751 29.22 26.6598 28.4684C28.1834 27.6744 29.466 26.4855 30.3735 25.0261C31.281 23.5666 31.78 21.8902 31.8185 20.1721C31.9448 15.9621 29.1438 11.3648 24.444 11.3868C23.782 11.388 24.0616 12.479 24.6581 12.4548C28.433 12.4155 30.8239 15.8394 30.8179 19.356C30.8499 20.8193 30.5276 22.2688 29.8784 23.5808C29.2293 24.8928 28.2725 26.0283 27.0898 26.8903C25.7419 27.795 24.1381 28.2399 22.5175 28.1585C20.8968 28.0772 19.346 27.474 18.0963 26.439C16.8919 25.3745 16.0376 23.9704 15.6455 22.4109C15.2535 20.8514 15.3421 19.2095 15.8997 17.7009C17.0467 14.4245 21.0152 11.0324 24.6783 12.5722C25.3549 12.8091 25.2172 11.7678 24.7157 11.5555L24.7484 11.567Z" fill="black"/>
<path d="M25.0613 11.8972C21.8607 11.6962 18.2416 12.7953 16.4141 15.6007C14.4486 18.5906 15.1064 23.1854 17.1771 26.0191C18.1232 27.3678 19.5475 28.3048 21.1602 28.6395C22.9458 28.895 24.7661 28.5541 26.3389 27.6695C27.9645 26.8954 29.3293 25.6638 30.2661 24.1255C31.2029 22.5872 31.6709 20.809 31.6128 19.009C31.538 17.1077 30.7468 15.3055 29.3981 13.9645C28.0495 12.6236 26.2433 11.8433 24.3426 11.7804C23.6768 11.7925 23.9603 12.8726 24.542 12.8556C26.0482 12.8502 27.5035 13.3988 28.6313 14.3972C29.759 15.3956 30.4805 16.774 30.6586 18.2703C30.8008 19.8243 30.5028 21.3871 29.7986 22.7798C29.0943 24.1725 28.0124 25.3387 26.6767 26.1449C24.0724 27.8446 20.4491 28.5009 18.1884 25.895C17.1309 24.6197 16.4635 23.0661 16.2661 21.4205C16.0686 19.7749 16.3496 18.1071 17.0752 16.6168C18.7013 13.8268 22.196 12.7331 25.2722 12.9396C25.9336 12.9749 25.6316 11.9129 25.0619 11.8606L25.0613 11.8972Z" fill="black"/>
<path d="M30.2648 14.6016L32.7693 14.1666L32.3281 13.1171C31.5926 13.2609 30.8684 13.4581 30.1614 13.7072C29.7275 13.8618 29.8823 14.5045 30.238 14.678C30.5355 14.8495 30.8732 14.9385 31.2166 14.9358C31.5599 14.9332 31.8963 14.839 32.1912 14.663C32.4865 14.4844 32.3148 13.9952 32.12 13.8166C31.9139 13.6102 31.6375 13.4893 31.346 13.4782C31.0546 13.4671 30.7696 13.5666 30.5483 13.7568C30.3321 14.0138 30.2045 14.3336 30.1842 14.6688C30.1639 15.004 30.2522 15.3368 30.4359 15.6178L31.2054 15.2742C30.9919 15.0214 30.8141 14.7405 30.6769 14.4394L30.0006 14.9014C30.245 15.1705 30.5526 15.3742 30.8956 15.4943C31.2386 15.6144 31.6062 15.647 31.965 15.5891C32.0937 15.5622 32.2132 15.5024 32.312 15.4156C32.4108 15.3289 32.4856 15.218 32.529 15.0939C32.5725 14.9698 32.5832 14.8365 32.5601 14.7071C32.5369 14.5776 32.4808 14.4563 32.3971 14.355C32.3405 14.2315 32.2564 14.1226 32.1513 14.0366C32.0462 13.9506 31.9228 13.8898 31.7905 13.8589C31.6583 13.828 31.5207 13.8278 31.3884 13.8582C31.256 13.8887 31.1323 13.9491 31.0268 14.0347C30.4853 14.5317 30.7219 15.3256 30.9913 15.8858C31.108 16.1473 31.5772 16.5568 31.8208 16.1762C32.1515 15.6621 32.3914 15.095 32.5302 14.4997C32.6984 14.0191 31.8577 13.2712 31.6212 13.9117C31.3178 14.7658 31.2041 15.6758 31.288 16.5781C31.3157 16.9189 31.8935 17.4031 32.1665 17.0083C32.6445 16.3083 32.9294 15.4945 32.9924 14.6492C33.0318 14.2217 32.2298 13.5731 32.0631 14.1891C31.8157 15.0471 31.6132 15.9174 31.4566 16.7965C31.429 16.9383 31.4442 17.085 31.5001 17.2181C31.556 17.3511 31.6502 17.4646 31.7707 17.544C31.9999 17.6242 32.2956 17.6542 32.3656 17.3845C32.6484 16.4305 32.6281 15.4124 32.3075 14.4708C32.2099 14.1546 31.5317 13.7823 31.418 14.282L30.8043 17.1199L31.732 17.4446L31.3167 15.6564L30.958 16.1561C31.5637 16.2455 32.1949 16.8221 32.7954 16.2967C33.3959 15.7713 33.0114 14.8398 33.0198 14.291C33.011 14.1388 32.9563 13.9929 32.8628 13.8726C32.7692 13.7522 32.6414 13.6632 32.4961 13.6173C32.4408 13.5937 32.3804 13.5845 32.3206 13.5903C32.2608 13.5962 32.2034 13.6171 32.1537 13.651C32.104 13.6848 32.0636 13.7307 32.0363 13.7843C32.0089 13.8378 31.9955 13.8974 31.9972 13.9575C31.8841 15.6027 31.6477 17.2371 31.29 18.8469L30.3373 23.773L31.2774 24.237C31.6236 21.1267 32.2023 18.0466 33.0086 15.0227C33.1223 14.5231 32.2193 13.7779 32.0958 14.4457C31.6745 16.0604 31.3889 17.7074 31.2418 19.3695C31.1969 19.9178 32.1 20.4178 32.2022 19.7057C32.3503 18.1264 32.6199 16.5607 33.0086 15.0227L32.0958 14.4457C31.2698 17.5452 30.6765 20.702 30.3209 23.8898C30.2924 24.3212 31.1675 24.9709 31.261 24.3538L32.2499 19.2198C32.6283 17.5982 32.8857 15.9507 33.0198 14.291L32.0594 13.9548L32.1143 14.6728C32.1339 14.8268 32.2396 15.3297 32.1244 15.4488C32.0092 15.5678 31.5918 15.3604 31.4647 15.3036C31.264 15.203 31.0513 15.1285 30.8317 15.082C30.5698 14.9903 30.4179 15.354 30.473 15.5817L30.8774 17.3661C30.964 17.6785 31.6788 18.2965 31.805 17.6909L32.4297 14.8568L31.5402 14.668C31.7592 15.3582 31.7607 16.0992 31.5444 16.7905L32.4534 17.3785C32.6169 16.4917 32.8202 15.6311 33.06 14.771L32.1308 14.3108C32.0809 14.9959 31.85 15.6555 31.4616 16.2221L32.3401 16.6522C32.2922 15.9227 32.3981 15.1912 32.6508 14.5051L31.7418 13.9172C31.624 14.4413 31.4159 14.941 31.1268 15.3938L31.9562 15.6842C31.8963 15.5405 31.7533 15.3189 31.778 15.1436C31.8026 14.9683 32.1001 14.6434 31.663 14.5271C31.5211 14.4775 31.3115 14.5512 31.1331 14.501C30.8941 14.4604 30.6771 14.3367 30.5203 14.1516C30.4582 14.0599 30.3622 13.9968 30.2535 13.9759C30.1447 13.9551 30.0322 13.9784 29.9405 14.0406C29.8489 14.1028 29.7857 14.1989 29.7648 14.3077C29.744 14.4165 29.7672 14.5291 29.8293 14.6208C30.0103 15.0168 30.2433 15.387 30.522 15.7215C30.6655 15.9066 30.893 16.0966 31.155 15.9431C31.2054 15.9135 31.2493 15.8741 31.2842 15.8273C31.3192 15.7805 31.3445 15.7272 31.3586 15.6705C31.3728 15.6138 31.3755 15.5549 31.3666 15.4971C31.3577 15.4394 31.3374 15.384 31.3069 15.3342C31.1968 15.124 31.0833 14.8881 31.2367 14.6599C31.2635 14.5834 31.5337 14.3715 31.6385 14.4572L31.5634 13.6218C31.4164 13.7214 31.2463 13.7818 31.0694 13.7971C30.8925 13.8124 30.7146 13.7822 30.5527 13.7093L30.6293 14.6802C31.3363 14.4311 32.0605 14.2339 32.7961 14.0901C33.3904 13.9672 32.8947 12.8986 32.3549 13.0407L29.8236 13.5522C29.2369 13.6533 29.7141 14.7398 30.2648 14.6016Z" fill="black"/>
<path d="M32.1503 14.2196C31.3969 18.7045 30.5489 23.1564 29.6063 27.5751L30.5465 28.0391L30.8423 24.4647C30.8855 24.0262 29.9918 23.3946 29.9092 24.0154L29.0722 28.7858L30.0124 29.2498L30.1578 26.6648C30.1754 26.2296 29.3112 25.5838 29.2138 26.2117L28.87 28.1388C28.7858 28.6242 29.6554 29.3946 29.7828 28.7158C29.9424 28.1467 30.0167 27.5571 30.0033 26.9662C29.9914 26.5452 29.3209 25.9059 29.0702 26.517C28.7827 27.1979 28.6624 27.9377 28.7192 28.6745C28.736 29.0114 29.2591 29.7217 29.5993 29.24L30.2124 28.3635L29.3323 27.798L29.3843 28.9441C29.4077 29.3323 30.1137 30.0454 30.3283 29.3972L30.596 28.6327C30.768 28.1412 29.9376 27.4337 29.6722 28.0518C29.6531 28.1064 29.4619 28.6525 29.4619 28.6525L29.8439 28.7862C29.725 28.671 29.6367 28.2233 29.5734 28.054L29.219 27.0717C29.0647 26.6377 28.3984 26.4412 28.3093 27.0107L27.9375 29.3326C27.8757 29.7891 28.788 30.4027 28.8815 29.7856L29.2727 28.1081L28.3703 27.5715C28.2272 28.2181 28.1364 28.8751 28.099 29.5362C28.0705 29.9676 28.6149 30.477 28.99 30.1056C29.2137 29.8804 29.4768 29.6983 29.7662 29.5682L29.0895 29.3313L29.4054 29.7239C29.6209 29.9832 30.0492 30.1945 30.2202 29.7762C30.274 29.6243 30.2956 29.4629 30.2835 29.3022C30.2714 29.1415 30.2259 28.9852 30.1499 28.8432C30.0739 28.7012 29.9691 28.5766 29.8422 28.4775C29.7153 28.3784 29.5691 28.3069 29.4129 28.2676C29.3678 28.2484 29.3191 28.2387 29.27 28.2391C29.2209 28.2395 29.1725 28.25 29.1276 28.2699C29.0827 28.2898 29.0424 28.3188 29.0091 28.3549C28.9759 28.3911 28.9504 28.4336 28.9343 28.48C28.8999 28.5783 28.6589 29.5116 28.4107 29.2408C27.9791 28.7587 27.4507 29.3583 27.8091 29.8393C28.7086 31.0492 30.4933 30.5706 30.2837 28.9647C30.2205 28.5503 29.5723 28.1272 29.3561 28.64C29.1765 29.0451 29.1299 29.4966 29.2231 29.9297C29.3386 30.5096 30.3006 30.7361 30.1693 29.9913C30.1133 29.7334 30.1471 29.4641 30.2651 29.2279L29.3374 28.9032C29.3973 29.2919 28.8302 29.7922 28.5149 29.3631L27.9133 29.9616C28.0421 30.124 28.2179 30.2426 28.4166 30.3012C28.6154 30.3598 28.8274 30.3556 29.0238 30.2891C29.2572 30.174 29.4574 30.001 29.6053 29.7867C29.7533 29.5725 29.844 29.3239 29.8689 29.0647L29.3902 29.2772L29.292 29.2428L30.1068 29.2951L29.7909 28.9026C29.6115 28.6803 29.3834 28.5269 29.1143 28.6657C28.7548 28.8346 28.4309 29.0707 28.1601 29.3615L29.055 29.9199C29.0865 29.3444 29.16 28.7719 29.2749 28.207C29.4469 27.7155 28.4818 26.973 28.3659 27.619L27.9708 29.3074L28.9 29.7676L29.2718 27.4458L28.3621 27.3848C28.5486 27.8669 28.7165 28.367 28.9183 28.8055C28.9567 28.9841 29.0311 29.153 29.137 29.3018C29.2429 29.4506 29.3781 29.5762 29.5342 29.6709C30.3259 30.0339 30.3841 29.0979 30.5851 28.6289L29.6613 28.048L29.3937 28.8125L30.3338 29.2765L30.2818 28.1304C30.265 27.7935 29.7271 27.0902 29.387 27.5719L28.7777 28.4375L29.6577 29.003C29.6099 28.3496 29.7176 27.694 29.9721 27.0902L29.032 26.6262C29.0456 27.1347 28.9874 27.6427 28.8591 28.1349L29.7719 28.712L30.1267 26.7888L29.1865 26.3248L29.0411 28.9098C29.0235 29.345 29.8877 29.9908 29.9851 29.3628L30.8111 24.5886L29.871 24.1246L29.5752 27.6991C29.5429 28.1414 30.418 28.7911 30.5153 28.1631C31.451 23.7174 32.299 19.2656 33.0593 14.8075C33.1441 14.2855 32.2624 13.5845 32.1394 14.2157L32.1503 14.2196Z" fill="black"/>
<path d="M30.5004 30.5854C33.1636 30.2917 34.7378 27.5449 35.8092 25.3944C37.2345 22.6865 37.9748 19.6707 37.9654 16.6109C37.7733 11.2106 33.2433 7.28297 28.0645 6.57333C22.6631 5.83479 16.1546 7.90855 13.5569 13.0188C12.378 15.4953 11.7267 18.1899 11.6444 20.9313C11.4391 23.4108 11.9254 25.8983 13.0491 28.1171C14.5932 30.9503 17.5026 32.5083 20.3657 33.7435C23.0143 34.8915 26.4615 35.4731 28.7445 33.2563C29.1528 32.8598 28.4829 31.9388 28.0899 32.2916C26.2338 34.0938 23.5265 33.9184 21.2609 33.0761C18.9952 32.2339 16.0569 30.8987 14.4689 28.7858C11.6906 25.1037 12.3107 19.4482 13.7592 15.3455C14.5503 12.8884 16.2204 10.8098 18.4489 9.50867C20.6874 8.31016 23.1718 7.64438 25.7088 7.56312C30.4109 7.39478 35.6841 9.82937 36.7937 14.7786C37.4433 17.7522 36.5637 20.9997 35.3846 23.7378C34.4212 25.9996 32.8169 29.2876 30.033 29.5758C29.4468 29.6403 29.9393 30.6832 30.4851 30.629L30.5004 30.5854Z" fill="black"/>
<path d="M28.1268 31.0662C29.4153 31.5531 30.8379 31.5494 32.1243 31.0558C33.4676 30.4777 34.5823 29.4713 35.2948 28.1935C36.9833 25.573 38.1481 22.6499 38.7246 19.5862C39.2402 16.7527 38.6498 13.8297 37.0752 11.4198C35.4565 9.04838 33.0789 7.29934 30.3337 6.46051C27.3072 5.59744 24.0952 5.6313 21.0867 6.55798C18.1699 7.30945 15.5544 8.94057 13.5951 11.23C9.87338 15.9467 10.2641 22.9492 12.9956 28.0248C14.4471 30.9037 16.8759 33.1709 19.847 34.4202C21.2589 35.0025 22.7862 35.2511 24.3101 35.1467C25.834 35.0423 27.3134 34.5877 28.6335 33.8182C29.1171 33.5216 28.481 32.5389 27.9751 32.8644C26.9038 33.5039 25.7106 33.9115 24.4723 34.0609C23.234 34.2102 21.9784 34.098 20.7864 33.7315C18.259 32.9641 16.0811 31.3339 14.6319 29.1248C11.659 24.7738 10.814 18.5441 13.3367 13.7877C15.8595 9.03126 22.1919 6.51577 27.4881 6.96001C32.7843 7.40426 37.8993 11.3405 37.9516 17.0352C37.7991 20.1657 36.8919 23.2132 35.3075 25.9176C34.7186 27.3507 33.7757 28.611 32.5673 29.5803C31.9294 29.9975 31.2024 30.2588 30.4451 30.3429C29.6878 30.4271 28.9214 30.3318 28.2079 30.0648C27.5312 29.8279 27.6613 30.891 28.1704 31.0815L28.1268 31.0662Z" fill="black"/>
<path d="M12.7573 12.4691C9.96078 16.4677 10.4006 21.9303 12.0496 26.2837C12.7638 28.3565 13.9948 30.2126 15.6262 31.6762C17.2576 33.1398 19.2354 34.1625 21.3725 34.6477C23.7325 35.1712 26.1955 34.9744 28.4432 34.0826C29.0135 33.8532 28.4872 32.872 28.002 33.0332C26.2054 33.7524 24.2575 34.0092 22.3364 33.78C20.4154 33.5509 18.5828 32.8431 17.0064 31.7216C13.5581 29.2883 11.9786 24.7018 11.7555 20.6147C11.5211 18.0313 12.1718 15.4445 13.6007 13.2794C13.9037 12.8337 13.134 11.988 12.7791 12.4768L12.7573 12.4691Z" fill="black"/>
<path d="M28.1732 33.3138C28.1664 33.6679 28.2307 34.0197 28.3622 34.3485C28.4063 34.4699 28.4857 34.5752 28.5901 34.6511C28.6945 34.727 28.8192 34.7699 28.9482 34.7743C29.0035 34.7651 29.0562 34.7442 29.1028 34.7129C29.1493 34.6816 29.1887 34.6407 29.2182 34.593C29.2476 34.5452 29.2666 34.4917 29.2737 34.4361C29.2808 34.3804 29.2759 34.3239 29.2594 34.2703C29.1144 33.7399 28.8742 33.2404 28.5504 32.7961C28.4971 32.708 28.4213 32.6357 28.3308 32.5868C28.2402 32.5379 28.1382 32.514 28.0354 32.5177C27.9471 32.5245 27.8651 32.5659 27.8072 32.6329C27.7494 32.6999 27.7203 32.787 27.7264 32.8754C27.7508 33.5262 27.8818 34.1685 28.1143 34.7767C28.1571 34.8989 28.2361 35.0051 28.3408 35.0812C28.4455 35.1573 28.5709 35.1996 28.7003 35.2025C28.9639 35.1844 29.03 34.9256 28.9968 34.7055C28.9736 34.5522 28.9199 34.4051 28.8387 34.273C28.7576 34.1409 28.6507 34.0265 28.5245 33.9366C28.3983 33.8466 28.2553 33.783 28.1039 33.7495C27.9526 33.716 27.7961 33.7132 27.6437 33.7414C27.5859 33.7649 27.5338 33.8004 27.4908 33.8456C27.4478 33.8908 27.4149 33.9446 27.3943 34.0035C27.3737 34.0624 27.3658 34.125 27.3713 34.1871C27.3767 34.2493 27.3952 34.3096 27.4257 34.3639C27.6256 34.7482 27.876 35.1039 28.1703 35.4215L28.3813 34.5391L28.294 34.5085L28.1521 34.4588C28.1521 34.4588 27.9993 34.4054 28.1521 34.4588L27.9775 34.3977L28.065 35.3724C28.1933 35.356 27.9886 35.3457 28.065 35.3724L28.1633 35.4068L28.4006 35.4286L28.073 34.3699C27.7375 34.4689 27.3937 34.5373 27.0458 34.5742L26.9476 34.5398L26.6879 34.547L26.1541 34.5318C26.0938 34.5309 26.0342 34.5444 25.9801 34.5711C25.926 34.5978 25.879 34.637 25.8429 34.6854C25.8068 34.7338 25.7827 34.79 25.7726 34.8495C25.7624 34.909 25.7665 34.97 25.7845 35.0276C25.8119 35.169 25.8812 35.2988 25.9834 35.4001C26.0856 35.5015 26.2159 35.5697 26.3574 35.596C27.1095 35.6613 27.8672 35.5856 28.5917 35.3729C28.6928 35.3234 28.7704 35.236 28.8076 35.1297C28.8448 35.0234 28.8387 34.9067 28.7905 34.8049C28.7554 34.6763 28.684 34.5605 28.5848 34.4714C28.4856 34.3824 28.3629 34.3238 28.2313 34.3027C28.0182 34.2819 27.8035 34.2849 27.5911 34.3115C27.4007 34.3306 27.3274 34.5747 27.3432 34.7396C27.3538 34.8503 27.3895 34.9571 27.4476 35.0518C27.5058 35.1466 27.5848 35.2267 27.6787 35.2862C27.9612 35.477 28.2883 35.5915 28.6282 35.6186C28.7156 35.6233 28.8015 35.5948 28.8689 35.5388C28.9362 35.4828 28.9799 35.4034 28.9912 35.3166C29.0003 35.2076 28.9852 35.0979 28.9469 34.9955C28.9086 34.893 28.8481 34.8004 28.7698 34.7241L28.6825 34.6936L28.5499 34.5123L28.3966 34.2502L28.3093 34.2197L28.2668 34.1312L28.045 34.7647L28.1405 34.7368C28.1405 34.7368 28.0423 34.7024 28.1405 34.7368C28.2388 34.7712 28.0641 34.71 28.1405 34.7368C28.2169 34.7635 28.1405 34.7368 28.1405 34.7368L28.0751 34.7139C28.1433 34.799 28.0222 34.585 28.0751 34.7139C28.128 34.8427 28.0511 34.6074 28.0751 34.7139L28.9684 34.6466L28.8987 34.426C28.8588 34.2982 28.8266 34.1682 28.8022 34.0367C28.7732 33.9121 28.7519 33.786 28.7385 33.6588C28.7257 33.5997 28.718 33.5396 28.7156 33.4792L28.75 33.3809L27.915 33.4563L28.083 33.7113L28.1376 33.7304L28.2014 33.8631L28.3143 34.1356C28.3338 34.1843 28.349 34.2348 28.3595 34.2863C28.3361 34.1432 28.3595 34.2863 28.3595 34.2863L29.2567 34.208C29.2317 34.154 29.2188 34.0951 29.2191 34.0355C29.2191 34.0355 29.193 33.8302 29.2421 33.97C29.2911 34.1098 29.2765 33.8717 29.2956 33.8171C29.2978 33.6713 29.254 33.5285 29.1704 33.409C29.0869 33.2896 28.9679 33.1995 28.8303 33.1515C28.776 33.1292 28.7171 33.1205 28.6587 33.1262C28.6003 33.132 28.5442 33.152 28.4953 33.1845C28.4464 33.217 28.4063 33.2611 28.3783 33.3127C28.3504 33.3644 28.3356 33.4221 28.3352 33.4809L28.1732 33.3138Z" fill="black"/>
<path d="M27.8159 29.4003L28.482 28.4075L27.591 27.8381L27.2754 30.0693L28.2358 30.4055L28.5532 27.5742C28.5544 27.4402 28.5175 27.3085 28.4467 27.1947C28.3759 27.0809 28.2741 26.9896 28.1533 26.9316C28.1065 26.9024 28.0536 26.884 27.9987 26.8779C27.9438 26.8718 27.8882 26.878 27.836 26.8962C27.7838 26.9144 27.7364 26.944 27.6971 26.983C27.6579 27.0219 27.6278 27.0691 27.6092 27.1212C27.3863 27.878 27.2685 28.6618 27.2592 29.4507C27.2611 29.5964 27.3058 29.7383 27.3879 29.8586C27.47 29.9789 27.5858 30.0723 27.7207 30.1271C27.776 30.1507 27.8363 30.16 27.8962 30.1541C27.956 30.1482 28.0134 30.1273 28.0631 30.0935C28.1128 30.0596 28.1531 30.0137 28.1805 29.9602C28.2078 29.9066 28.2213 29.847 28.2196 29.7869C28.2177 29.0685 28.3273 28.3541 28.5444 27.6693L27.6043 27.2053L27.2869 30.0366C27.2887 30.1823 27.3335 30.3242 27.4156 30.4445C27.4976 30.5648 27.6134 30.6583 27.7483 30.713C27.8037 30.7336 27.8633 30.7406 27.922 30.7334C27.9806 30.7263 28.0367 30.7052 28.0856 30.6718C28.1344 30.6385 28.1746 30.594 28.2027 30.5419C28.2309 30.4899 28.2461 30.4319 28.2472 30.3728L28.5514 28.1743C28.5514 28.0514 28.5209 27.9303 28.4626 27.8221C28.4042 27.7139 28.3198 27.622 28.217 27.5546C28.1359 27.4935 28.0347 27.4651 27.9336 27.4751C27.8325 27.4852 27.7389 27.5329 27.6713 27.6088L26.9942 28.5978C26.9347 28.7244 26.9185 28.8671 26.9481 29.0038C26.9778 29.1405 27.0516 29.2636 27.1583 29.354C27.3241 29.5102 27.6477 29.6357 27.8197 29.3894L27.8159 29.4003Z" fill="black"/>
<path d="M23.084 12.5413C23.7607 12.7782 23.6344 11.7041 23.1215 11.5245C22.4448 11.2877 22.5711 12.3617 23.084 12.5413Z" fill="black"/>
<path d="M23.2659 12.372C25.5478 12.3303 27.7743 13.0751 29.5717 14.4815C29.7992 14.6715 30.3357 14.749 30.2987 14.2947C30.2558 13.5073 29.6687 13.1546 29.0336 12.8342C28.3984 12.5138 27.5341 12.1131 26.7746 11.7981C25.5183 11.152 24.0612 11.0151 22.7062 11.416C22.1801 11.6241 22.5547 12.4786 23.0301 12.4856C25.7343 12.4887 28.3575 13.407 30.4731 15.0913C30.7115 15.2852 31.2261 15.355 31.211 14.9083C31.1584 13.5536 29.8232 13.0984 28.7389 12.731C27.2833 12.1833 25.7658 11.8168 24.2206 11.6396C23.5668 11.5824 23.8688 12.6444 24.4347 12.7077C25.6202 12.8308 26.7879 13.0875 27.9157 13.4727C28.4177 13.6484 28.9307 13.828 29.4327 14.0038C29.651 14.0802 30.1748 14.2636 30.1922 14.5639L31.0005 14.3197C28.6892 12.4426 25.8123 11.4009 22.835 11.363L23.1627 12.4217C24.206 12.1085 25.3288 12.1996 26.3077 12.6768C26.8752 12.8755 27.3761 13.1244 27.9425 13.3962L28.785 13.7893C28.9231 13.8257 29.0581 13.873 29.1888 13.9306C29.3961 14.0032 29.365 14.1272 29.3307 13.9803L30.0724 13.7864C28.0849 12.1774 25.6011 11.3079 23.0441 11.3258C22.3783 11.3379 22.6617 12.418 23.2582 12.3939L23.2659 12.372Z" fill="black"/>
<path d="M32.4238 13.7881L32.2005 15.9658L33.1609 16.302L33.0043 14.3346L32.6293 14.706C32.5109 14.5542 32.4547 14.6449 32.5757 14.8589C32.6968 15.0729 32.4419 15.2412 32.4604 15.4683C32.4789 15.6955 32.3424 16.0155 32.2904 16.3038L31.9024 18.2521L31.1464 22.0211L29.5997 29.6938C29.4931 30.2082 30.4004 30.9059 30.5125 30.2708L32.4473 20.6498L33.4082 15.9105C33.5629 15.1187 33.6256 13.6449 32.4479 13.6494C32.3996 13.6477 32.3515 13.6558 32.3064 13.6732C32.2613 13.6906 32.2202 13.7169 32.1855 13.7506C32.1509 13.7842 32.1234 13.8246 32.1046 13.8691C32.0859 13.9137 32.0764 13.9616 32.0767 14.0099L32.2005 15.9658C32.2331 16.4676 33.051 17.0359 33.1609 16.302L33.3804 14.1353C33.4291 13.5761 32.5223 13.087 32.42 13.7991L32.4238 13.7881Z" fill="black"/>
<path d="M9.82339 19.4846C9.87346 23.6679 11.267 27.7234 13.7982 31.052C15.1078 32.7063 16.7991 34.0179 18.7269 34.8744C20.6548 35.7308 22.7617 36.1065 24.8669 35.9692C26.1655 35.9234 27.4567 35.7513 28.7221 35.4553C29.9747 35.0969 29.0649 33.6015 28.7841 32.8288C28.6396 32.4717 27.7998 32.141 27.8743 32.7678C27.911 33.6367 28.1206 34.4895 28.4908 35.2763C28.7106 35.7333 29.4942 35.9095 29.388 35.198C29.2708 34.2888 29.0297 33.4 28.6712 32.5564L27.8269 32.7635C28.1811 33.4569 28.4463 34.1924 28.6164 34.9524C28.7505 35.5143 29.7196 35.7555 29.5627 35.014C29.3668 34.1614 29.0674 33.3361 28.6712 32.5564C28.3908 31.9924 27.5269 32.0455 27.8269 32.7635C28.1361 33.5236 28.3428 34.3216 28.4417 35.1365L29.3389 35.0583C29.0278 34.4466 28.8451 33.7776 28.802 33.0926L27.8923 33.0316C27.9942 33.3002 28.3046 33.8134 28.2931 34.0914C28.2815 34.3693 27.9475 34.4485 27.6359 34.4988C27.0273 34.5923 26.415 34.6967 25.8141 34.7683C24.5473 34.9457 23.2637 34.9697 21.9912 34.8398C19.6968 34.5303 17.5518 33.527 15.8433 31.9642C12.3974 28.8943 10.9423 24.3022 10.7401 19.8056C10.7081 19.2672 9.74666 18.759 9.77974 19.4694L9.82339 19.4846Z" fill="black"/>
<path d="M13.5837 40.0984C13.0504 37.5912 13.0299 35.0018 13.5232 32.486C14.0166 29.9702 15.0137 27.5801 16.4544 25.4596C16.7729 26.1994 17.2014 26.8867 17.7253 27.4983C18.8925 29.1762 19.4086 31.2223 19.1774 33.254C19.9779 31.9859 20.7037 30.6721 21.3511 29.3194C22.2684 27.7261 22.73 25.9112 22.6854 24.0733C24.5768 26.1944 26.2782 28.7885 26.1693 31.6192C26.1094 32.91 25.6549 34.1731 25.6387 35.4793C27.0283 33.7262 28.3299 31.9097 29.5435 30.0297C30.9315 28.0994 31.9526 25.93 32.5557 23.6301C35.2105 29.6597 35.635 36.8456 32.6279 42.6707C31.529 44.6343 30.2545 46.4943 28.8202 48.2279C28.7124 48.3863 28.5587 48.5079 28.3797 48.5763C28.2404 48.5915 28.0995 48.5757 27.9671 48.53C23.9346 47.2408 20.7031 44.2582 16.901 42.4858C15.849 42.0613 14.8456 41.5251 13.9081 40.8863" fill="white"/>
<path d="M14.0704 40.0726C13.5626 37.6256 13.5503 35.1014 14.0342 32.6491C14.5182 30.1968 15.4886 27.8663 16.888 25.7953L16.0586 25.5049C16.4964 26.7739 17.5467 27.6933 18.0877 28.9125C18.6644 30.2034 18.8816 31.6266 18.7162 33.0312C18.6888 33.3894 19.3222 34.0648 19.611 33.5897C20.5618 32.0767 21.4116 30.5025 22.155 28.8775C22.8863 27.425 23.2404 25.8119 23.1846 24.1868L22.4577 24.3737C23.763 25.7439 24.7529 27.3835 25.3579 29.1773C25.6387 30.0544 25.7317 30.981 25.631 31.8966C25.5078 33.0182 25.1877 34.1076 25.1448 35.245C25.1354 35.6218 25.6891 36.2448 26.0396 35.8035C27.5017 33.9369 28.8884 31.9704 30.177 29.9695C31.4712 28.093 32.4332 26.0078 33.0211 23.8053L32.1425 23.6203C34.3131 28.3801 34.7966 33.7389 33.5131 38.8122C32.7003 41.4701 31.3878 43.9484 29.6459 46.114C29.433 46.4072 29.213 46.6857 28.9891 46.9752C28.8053 47.2867 28.5781 47.5704 28.3143 47.8178C27.8564 48.1111 26.7542 47.4801 26.2746 47.2754C24.9666 46.6706 23.7048 45.9707 22.4993 45.1813C21.1625 44.3455 19.8448 43.4551 18.4704 42.6919C16.959 42.0291 15.4868 41.2804 14.061 40.4494C13.4532 40.0159 13.3137 41.0092 13.7513 41.334C15.0866 42.1386 16.4719 42.857 17.8987 43.4849C19.2841 44.2518 20.6094 45.1204 21.9315 45.9633C23.2096 46.8014 24.5435 47.551 25.9239 48.207C26.5907 48.5138 27.2849 48.7569 27.9975 48.9329C28.661 49.0671 28.9471 48.7749 29.3385 48.2867C31.2984 45.9902 32.871 43.3894 33.9944 40.5868C34.9091 37.9592 35.2921 35.1759 35.1211 32.3992C34.9435 29.2769 34.2073 26.212 32.9475 23.3504C32.8276 23.0632 32.1903 22.644 32.069 23.1655C31.4725 25.3801 30.4911 27.4726 29.1698 29.3471C27.9374 31.2574 26.6255 33.1152 25.2011 34.9092L26.0812 35.4748C26.1231 34.1654 26.548 32.9165 26.6117 31.6147C26.6452 30.6608 26.5099 29.7087 26.212 28.8021C25.4924 26.846 24.3794 25.0586 22.942 23.5501C22.7227 23.3017 22.189 23.2865 22.2112 23.7479C22.2515 25.289 21.9064 26.816 21.2073 28.1902C20.4995 29.7458 19.686 31.251 18.7725 32.6954L19.6526 33.261C19.8042 31.8223 19.612 30.3683 19.0918 29.0188C18.8444 28.3718 18.5211 27.7565 18.1286 27.1859C17.6489 26.6157 17.2385 25.9906 16.9062 25.3235C16.808 25.0439 16.3088 24.6853 16.0768 25.0331C14.6105 27.2121 13.5952 29.6626 13.0905 32.2401C12.5858 34.8176 12.602 37.4699 13.1383 40.0406C13.2576 40.6095 14.2306 40.8398 14.0736 40.0983L14.0704 40.0726Z" fill="black"/>
<path d="M13.6642 38.6431C13.1486 36.4576 13.15 34.1816 13.6683 31.9963C14.1867 29.811 15.2076 27.7766 16.65 26.0552L15.8096 25.7611L17.55 29.1534C18.0294 30.0936 19.1477 31.5885 18.4259 32.6354C18.1377 33.0739 18.831 33.8929 19.2405 33.4232C21.6675 30.6266 23.1234 27.1185 23.39 23.425L22.6483 23.619C23.9246 25.0743 24.8435 26.8079 25.3318 28.6816C25.8201 30.5553 25.8643 32.5175 25.461 34.4117C25.3501 34.7284 25.8459 35.5518 26.2466 35.1772C29.6455 32.0997 32.1474 28.1581 33.486 23.7719L32.6713 23.7196C33.1981 24.6435 33.524 25.6683 33.6275 26.7271C33.8111 27.8825 33.9581 29.0374 34.0467 30.1841C34.2532 32.4557 34.1643 34.7448 33.7821 36.9938C33.4672 39.044 32.7301 41.0066 31.6174 42.757C30.5048 44.5075 29.0409 46.0078 27.3186 47.1627C26.835 47.4593 27.471 48.4421 27.9622 48.1237C29.823 46.8824 31.3981 45.2584 32.5824 43.3602C33.7666 41.4619 34.5328 39.333 34.8299 37.1154C35.1614 34.7221 35.1872 32.2963 34.9069 29.8967C34.7062 27.7055 34.5694 25.1565 33.3481 23.221C33.173 22.9513 32.6677 22.7498 32.5333 23.1687C31.2395 27.4106 28.8249 31.2246 25.5446 34.208L26.3302 34.9735C26.7896 32.8374 26.7387 30.6232 26.1818 28.5109C25.6249 26.3986 24.5776 24.4479 23.125 22.8173C22.8806 22.5356 22.4375 22.5766 22.398 23.0042C22.1352 26.5366 20.7297 29.8878 18.3943 32.5508L19.2089 33.3386C19.9427 32.2224 19.417 30.9594 18.8852 29.8538L16.6371 25.4622C16.4914 25.1783 16.0872 24.8284 15.7967 25.1681C14.2821 27.0124 13.2168 29.1837 12.685 31.5105C12.1532 33.8373 12.1695 36.2556 12.7327 38.5745C12.8667 39.1363 13.8506 39.3705 13.668 38.6322L13.6642 38.6431Z" fill="black"/>
<path d="M12.625 37.7276C12.6676 39.0212 13.0509 40.2804 13.7361 41.3778C13.8649 41.57 14.1944 41.7834 14.4128 41.6147C14.505 41.5205 14.5591 41.3954 14.5645 41.2636C14.5699 41.1319 14.5262 41.0029 14.4419 40.9015C14.3625 40.793 14.292 40.6781 14.2314 40.5581L14.1926 40.4587L14.1185 40.2856C14.0089 40.0388 13.914 39.7849 13.8229 39.5201L13.788 39.4098L13.7433 39.2225L13.6578 38.837C13.6163 38.685 13.5845 38.5306 13.5624 38.3746C13.5508 38.3117 13.5444 38.2479 13.5434 38.184L13.5854 38.0639C13.5836 37.9181 13.5388 37.7762 13.4567 37.6559C13.3746 37.5356 13.2589 37.4422 13.1239 37.3874C13.069 37.3627 13.0086 37.3528 12.9487 37.3586C12.8887 37.3643 12.8313 37.3856 12.7821 37.4204C12.7328 37.4551 12.6935 37.502 12.6678 37.5566C12.6422 37.6111 12.6312 37.6714 12.636 37.7315L12.625 37.7276Z" fill="black"/>
</g>
<defs>
<clipPath id="clip0_21_20842">
<rect width="33.247" height="44.1816" fill="white" transform="translate(14.5988) rotate(19.2946)"/>
</clipPath>
</defs>
</svg>
